<ttFont>
    <TTGlyph name=".notdef" xMin="48" yMin="72" xMax="1096" yMax="1355">
      <contour>
        <pt x="522" y="73" on="1"/>
        <pt x="203" y="78" on="1"/>
        <pt x="164" y="78" on="0"/>
        <pt x="112" y="74" on="0"/>
        <pt x="87" y="79" on="0"/>
        <pt x="77" y="86" on="1"/>
        <pt x="54" y="102" on="0"/>
        <pt x="56" y="136" on="1"/>
        <pt x="78" y="558" on="0"/>
        <pt x="79" y="697" on="1"/>
        <pt x="83" y="986" on="0"/>
        <pt x="48" y="1291" on="1"/>
        <pt x="44" y="1323" on="0"/>
        <pt x="59" y="1335" on="1"/>
        <pt x="82" y="1356" on="0"/>
        <pt x="104" y="1352" on="1"/>
        <pt x="137" y="1346" on="0"/>
        <pt x="191" y="1346" on="1"/>
        <pt x="281" y="1346" on="0"/>
        <pt x="368" y="1356" on="0"/>
        <pt x="396" y="1347" on="0"/>
        <pt x="406" y="1339" on="1"/>
        <pt x="425" y="1323" on="0"/>
        <pt x="425" y="1278" on="0"/>
        <pt x="390" y="1246" on="0"/>
        <pt x="316" y="1251" on="0"/>
        <pt x="263" y="1257" on="0"/>
        <pt x="224" y="1257" on="0"/>
        <pt x="195" y="1256" on="0"/>
        <pt x="178" y="1255" on="1"/>
        <pt x="172" y="1255" on="0"/>
        <pt x="165" y="1254" on="1"/>
        <pt x="165" y="1145" on="0"/>
        <pt x="164" y="1062" on="1"/>
        <pt x="162" y="959" on="0"/>
        <pt x="161" y="800" on="0"/>
        <pt x="160" y="696" on="1"/>
        <pt x="158" y="480" on="0"/>
        <pt x="156" y="162" on="1"/>
        <pt x="163" y="162" on="0"/>
        <pt x="170" y="162" on="1"/>
        <pt x="199" y="163" on="0"/>
        <pt x="272" y="164" on="0"/>
        <pt x="353" y="167" on="0"/>
        <pt x="392" y="168" on="1"/>
        <pt x="470" y="172" on="0"/>
        <pt x="558" y="180" on="0"/>
        <pt x="597" y="144" on="0"/>
        <pt x="597" y="102" on="0"/>
        <pt x="561" y="71" on="0"/>
      </contour>
      <contour>
        <pt x="989" y="162" on="1"/>
        <pt x="988" y="327" on="0"/>
        <pt x="987" y="453" on="1"/>
        <pt x="986" y="591" on="0"/>
        <pt x="985" y="800" on="0"/>
        <pt x="983" y="959" on="0"/>
        <pt x="982" y="1028" on="1"/>
        <pt x="980" y="1140" on="0"/>
        <pt x="980" y="1256" on="1"/>
        <pt x="956" y="1257" on="0"/>
        <pt x="935" y="1257" on="1"/>
        <pt x="897" y="1257" on="0"/>
        <pt x="825" y="1255" on="0"/>
        <pt x="785" y="1254" on="1"/>
        <pt x="707" y="1252" on="0"/>
        <pt x="615" y="1246" on="0"/>
        <pt x="579" y="1278" on="0"/>
        <pt x="579" y="1309" on="0"/>
        <pt x="590" y="1331" on="0"/>
        <pt x="600" y="1339" on="1"/>
        <pt x="622" y="1358" on="0"/>
        <pt x="668" y="1352" on="0"/>
        <pt x="746" y="1350" on="0"/>
        <pt x="792" y="1348" on="1"/>
        <pt x="867" y="1346" on="0"/>
        <pt x="919" y="1346" on="1"/>
        <pt x="1002" y="1346" on="0"/>
        <pt x="1051" y="1353" on="0"/>
        <pt x="1072" y="1348" on="0"/>
        <pt x="1080" y="1340" on="1"/>
        <pt x="1099" y="1322" on="0"/>
        <pt x="1096" y="1291" on="1"/>
        <pt x="1062" y="994" on="0"/>
        <pt x="1065" y="779" on="1"/>
        <pt x="1067" y="558" on="0"/>
        <pt x="1089" y="136" on="1"/>
        <pt x="1092" y="86" on="0"/>
        <pt x="1046" y="76" on="1"/>
        <pt x="1033" y="74" on="0"/>
        <pt x="1017" y="76" on="1"/>
        <pt x="990" y="78" on="0"/>
        <pt x="901" y="78" on="0"/>
        <pt x="825" y="74" on="0"/>
        <pt x="754" y="71" on="0"/>
        <pt x="717" y="102" on="0"/>
        <pt x="717" y="144" on="0"/>
        <pt x="757" y="180" on="0"/>
        <pt x="810" y="174" on="1"/>
        <pt x="922" y="163" on="0"/>
      </contour>
      <contour>
        <pt x="619" y="706" on="1"/>
        <pt x="656" y="639" on="0"/>
        <pt x="691" y="584" on="1"/>
        <pt x="771" y="457" on="0"/>
        <pt x="790" y="421" on="1"/>
        <pt x="801" y="409" on="0"/>
        <pt x="801" y="364" on="0"/>
        <pt x="769" y="336" on="0"/>
        <pt x="750" y="336" on="1"/>
        <pt x="710" y="336" on="0"/>
        <pt x="693" y="373" on="1"/>
        <pt x="633" y="520" on="0"/>
        <pt x="602" y="578" on="1"/>
        <pt x="575" y="625" on="0"/>
        <pt x="562" y="650" on="1"/>
        <pt x="400" y="356" on="0"/>
        <pt x="372" y="338" on="1"/>
        <pt x="361" y="331" on="0"/>
        <pt x="329" y="331" on="0"/>
        <pt x="297" y="360" on="0"/>
        <pt x="297" y="403" on="0"/>
        <pt x="334" y="451" on="0"/>
        <pt x="379" y="507" on="0"/>
        <pt x="404" y="542" on="1"/>
        <pt x="456" y="619" on="0"/>
        <pt x="503" y="715" on="1"/>
        <pt x="476" y="756" on="0"/>
        <pt x="444" y="816" on="1"/>
        <pt x="402" y="893" on="0"/>
        <pt x="329" y="1006" on="0"/>
        <pt x="321" y="1035" on="0"/>
        <pt x="321" y="1071" on="0"/>
        <pt x="353" y="1098" on="0"/>
        <pt x="374" y="1098" on="1"/>
        <pt x="411" y="1098" on="0"/>
        <pt x="429" y="1051" on="1"/>
        <pt x="484" y="920" on="0"/>
        <pt x="523" y="855" on="1"/>
        <pt x="551" y="808" on="0"/>
        <pt x="568" y="780" on="1"/>
        <pt x="576" y="792" on="0"/>
        <pt x="587" y="809" on="1"/>
        <pt x="606" y="838" on="0"/>
        <pt x="628" y="878" on="1"/>
        <pt x="683" y="976" on="0"/>
        <pt x="712" y="1070" on="1"/>
        <pt x="723" y="1106" on="0"/>
        <pt x="761" y="1106" on="1"/>
        <pt x="795" y="1106" on="0"/>
        <pt x="806" y="1072" on="1"/>
        <pt x="815" y="1042" on="0"/>
        <pt x="777" y="970" on="0"/>
        <pt x="728" y="891" on="0"/>
        <pt x="702" y="850" on="1"/>
        <pt x="648" y="764" on="0"/>
      </contour>
    </TTGlyph>
    <TTGlyph name="A" xMin="52" yMin="-9" xMax="868" yMax="1621">
      <contour>
        <pt x="460" y="1621" on="1"/>
        <pt x="484" y="1621" on="0"/>
        <pt x="524" y="1581" on="0"/>
        <pt x="547" y="1454" on="0"/>
        <pt x="594" y="1218" on="0"/>
        <pt x="652" y="950" on="0"/>
        <pt x="716" y="665" on="0"/>
        <pt x="748" y="531" on="1"/>
        <pt x="825" y="217" on="0"/>
        <pt x="868" y="72" on="1"/>
        <pt x="878" y="35" on="0"/>
        <pt x="847" y="-9" on="0"/>
        <pt x="809" y="-9" on="0"/>
        <pt x="778" y="13" on="0"/>
        <pt x="754" y="121" on="0"/>
        <pt x="700" y="363" on="0"/>
        <pt x="669" y="502" on="1"/>
        <pt x="668" y="508" on="0"/>
        <pt x="667" y="513" on="1"/>
        <pt x="599" y="516" on="0"/>
        <pt x="475" y="516" on="1"/>
        <pt x="329" y="516" on="0"/>
        <pt x="252" y="512" on="1"/>
        <pt x="251" y="506" on="0"/>
        <pt x="250" y="500" on="1"/>
        <pt x="189" y="206" on="0"/>
        <pt x="160" y="45" on="1"/>
        <pt x="150" y="-6" on="0"/>
        <pt x="107" y="-6" on="1"/>
        <pt x="62" y="-6" on="0"/>
        <pt x="52" y="38" on="1"/>
        <pt x="49" y="51" on="0"/>
        <pt x="67" y="107" on="0"/>
        <pt x="102" y="244" on="0"/>
        <pt x="143" y="421" on="0"/>
        <pt x="189" y="631" on="0"/>
        <pt x="237" y="853" on="0"/>
        <pt x="285" y="1078" on="0"/>
        <pt x="329" y="1288" on="0"/>
        <pt x="368" y="1472" on="0"/>
        <pt x="380" y="1526" on="1"/>
        <pt x="399" y="1621" on="0"/>
      </contour>
      <contour>
        <pt x="271" y="605" on="1"/>
        <pt x="347" y="601" on="0"/>
        <pt x="476" y="601" on="1"/>
        <pt x="583" y="601" on="0"/>
        <pt x="647" y="604" on="1"/>
        <pt x="626" y="695" on="0"/>
        <pt x="605" y="791" on="1"/>
        <pt x="572" y="940" on="0"/>
        <pt x="542" y="1080" on="1"/>
        <pt x="492" y="1309" on="0"/>
        <pt x="456" y="1482" on="1"/>
        <pt x="433" y="1367" on="0"/>
        <pt x="390" y="1169" on="1"/>
        <pt x="334" y="905" on="0"/>
        <pt x="305" y="767" on="1"/>
        <pt x="288" y="684" on="0"/>
      </contour>
    </TTGlyph>
    <TTGlyph name="AE" xMin="5" yMin="-11" xMax="1241" yMax="1624">
      <contour>
        <pt x="667" y="593" on="1"/>
        <pt x="681" y="1261" on="1"/>
        <pt x="681" y="1378" on="0"/>
        <pt x="675" y="1522" on="1"/>
        <pt x="649" y="1480" on="0"/>
        <pt x="586" y="1320" on="1"/>
        <pt x="515" y="1138" on="0"/>
        <pt x="449" y="969" on="0"/>
        <pt x="387" y="805" on="0"/>
        <pt x="337" y="671" on="0"/>
        <pt x="320" y="626" on="1"/>
        <pt x="313" y="606" on="0"/>
        <pt x="308" y="593" on="1"/>
      </contour>
      <contour>
        <pt x="762" y="86" on="1"/>
        <pt x="1014" y="86" on="0"/>
        <pt x="1096" y="94" on="1"/>
        <pt x="1183" y="103" on="0"/>
        <pt x="1211" y="95" on="0"/>
        <pt x="1220" y="86" on="1"/>
        <pt x="1241" y="68" on="0"/>
        <pt x="1241" y="25" on="0"/>
        <pt x="1204" y="-6" on="0"/>
        <pt x="1170" y="-4" on="1"/>
        <pt x="1002" y="9" on="0"/>
        <pt x="753" y="-8" on="0"/>
        <pt x="708" y="-14" on="0"/>
        <pt x="668" y="13" on="0"/>
        <pt x="673" y="94" on="0"/>
        <pt x="673" y="207" on="0"/>
        <pt x="672" y="271" on="1"/>
        <pt x="671" y="433" on="0"/>
        <pt x="672" y="510" on="1"/>
        <pt x="502" y="518" on="0"/>
        <pt x="450" y="518" on="1"/>
        <pt x="396" y="518" on="0"/>
        <pt x="354" y="517" on="0"/>
        <pt x="333" y="516" on="1"/>
        <pt x="302" y="515" on="0"/>
        <pt x="281" y="512" on="1"/>
        <pt x="239" y="394" on="0"/>
        <pt x="203" y="302" on="1"/>
        <pt x="164" y="201" on="0"/>
        <pt x="148" y="160" on="1"/>
        <pt x="110" y="56" on="0"/>
        <pt x="103" y="35" on="1"/>
        <pt x="90" y="-7" on="0"/>
        <pt x="48" y="-7" on="1"/>
        <pt x="22" y="-7" on="0"/>
        <pt x="10" y="10" on="1"/>
        <pt x="-12" y="40" on="0"/>
        <pt x="22" y="108" on="0"/>
        <pt x="80" y="244" on="0"/>
        <pt x="154" y="426" on="0"/>
        <pt x="238" y="643" on="0"/>
        <pt x="327" y="872" on="0"/>
        <pt x="415" y="1103" on="0"/>
        <pt x="455" y="1209" on="1"/>
        <pt x="532" y="1414" on="0"/>
        <pt x="589" y="1559" on="1"/>
        <pt x="613" y="1623" on="0"/>
        <pt x="674" y="1623" on="1"/>
        <pt x="856" y="1617" on="1"/>
        <pt x="988" y="1617" on="0"/>
        <pt x="1080" y="1630" on="0"/>
        <pt x="1120" y="1593" on="0"/>
        <pt x="1120" y="1550" on="0"/>
        <pt x="1084" y="1519" on="0"/>
        <pt x="1021" y="1522" on="0"/>
        <pt x="951" y="1527" on="0"/>
        <pt x="911" y="1528" on="1"/>
        <pt x="828" y="1531" on="0"/>
        <pt x="765" y="1527" on="1"/>
        <pt x="765" y="1365" on="1"/>
        <pt x="765" y="1261" on="0"/>
        <pt x="764" y="1151" on="1"/>
        <pt x="763" y="860" on="0"/>
        <pt x="763" y="739" on="1"/>
        <pt x="884" y="739" on="0"/>
        <pt x="944" y="746" on="1"/>
        <pt x="1008" y="752" on="0"/>
        <pt x="1040" y="726" on="0"/>
        <pt x="1040" y="704" on="1"/>
        <pt x="1040" y="649" on="0"/>
        <pt x="936" y="652" on="1"/>
        <pt x="916" y="652" on="0"/>
        <pt x="899" y="652" on="1"/>
        <pt x="820" y="653" on="1"/>
        <pt x="763" y="653" on="1"/>
        <pt x="762" y="302" on="1"/>
      </contour>
    </TTGlyph>
    <TTGlyph name="Aacute" xMin="52" yMin="-9" xMax="868" yMax="1916">
      <component glyphName="A" x="0" y="0" flags="0x1204"/>
      <component glyphName="acute.cap" x="131" y="0" flags="0x1004"/>
    </TTGlyph>
    <TTGlyph name="Acircumflex" xMin="52" yMin="-9" xMax="868" yMax="1917">
      <component glyphName="A" x="0" y="0" flags="0x1204"/>
      <component glyphName="circumflex.cap" x="88" y="0" flags="0x1004"/>
    </TTGlyph>
    <TTGlyph name="Adieresis" xMin="52" yMin="-9" xMax="868" yMax="1918">
      <component glyphName="A" x="0" y="0" flags="0x1204"/>
      <component glyphName="dieresis.cap" x="124" y="0" flags="0x1004"/>
    </TTGlyph>
    <TTGlyph name="Agrave" xMin="52" yMin="-9" xMax="868" yMax="1916">
      <component glyphName="A" x="0" y="0" flags="0x1204"/>
      <component glyphName="grave.cap" x="227" y="0" flags="0x1004"/>
    </TTGlyph>
    <TTGlyph name="Aring" xMin="52" yMin="-9" xMax="868" yMax="1918">
      <component glyphName="A" x="0" y="0" flags="0x1204"/>
      <component glyphName="ring.cap" x="85" y="0" flags="0x1004"/>
    </TTGlyph>
    <TTGlyph name="Atilde" xMin="52" yMin="-9" xMax="868" yMax="1918">
      <component glyphName="A" x="0" y="0" flags="0x1204"/>
      <component glyphName="tilde.cap" x="72" y="0" flags="0x1004"/>
    </TTGlyph>
    <TTGlyph name="B" xMin="144" yMin="5" xMax="819" yMax="1616">
      <contour>
        <pt x="458" y="847" on="1"/>
        <pt x="498" y="855" on="1"/>
        <pt x="649" y="853" on="0"/>
        <pt x="819" y="710" on="0"/>
        <pt x="819" y="578" on="1"/>
        <pt x="819" y="417" on="0"/>
        <pt x="723" y="280" on="1"/>
        <pt x="594" y="95" on="0"/>
        <pt x="360" y="22" on="1"/>
        <pt x="216" y="-22" on="0"/>
        <pt x="176" y="5" on="1"/>
        <pt x="152" y="21" on="0"/>
        <pt x="152" y="62" on="1"/>
        <pt x="162" y="864" on="1"/>
        <pt x="162" y="973" on="1"/>
        <pt x="162" y="1116" on="0"/>
        <pt x="153" y="1298" on="0"/>
        <pt x="147" y="1420" on="0"/>
        <pt x="142" y="1521" on="0"/>
        <pt x="155" y="1548" on="0"/>
        <pt x="166" y="1555" on="1"/>
        <pt x="191" y="1572" on="0"/>
        <pt x="422" y="1616" on="0"/>
        <pt x="485" y="1616" on="1"/>
        <pt x="812" y="1616" on="0"/>
        <pt x="812" y="1340" on="1"/>
        <pt x="812" y="1116" on="0"/>
        <pt x="576" y="932" on="1"/>
        <pt x="521" y="889" on="0"/>
      </contour>
      <contour>
        <pt x="252" y="99" on="1"/>
        <pt x="335" y="102" on="0"/>
        <pt x="410" y="136" on="1"/>
        <pt x="495" y="176" on="0"/>
        <pt x="599" y="255" on="0"/>
        <pt x="640" y="307" on="1"/>
        <pt x="730" y="421" on="0"/>
        <pt x="730" y="567" on="1"/>
        <pt x="730" y="670" on="0"/>
        <pt x="649" y="725" on="1"/>
        <pt x="576" y="774" on="0"/>
        <pt x="465" y="774" on="1"/>
        <pt x="369" y="774" on="0"/>
        <pt x="305" y="752" on="1"/>
        <pt x="267" y="739" on="0"/>
        <pt x="245" y="729" on="1"/>
        <pt x="245" y="706" on="0"/>
        <pt x="246" y="680" on="1"/>
        <pt x="246" y="609" on="0"/>
        <pt x="247" y="441" on="0"/>
        <pt x="248" y="357" on="1"/>
        <pt x="250" y="176" on="0"/>
      </contour>
      <contour>
        <pt x="245" y="822" on="1"/>
        <pt x="382" y="850" on="0"/>
        <pt x="536" y="986" on="1"/>
        <pt x="646" y="1083" on="0"/>
        <pt x="694" y="1202" on="1"/>
        <pt x="718" y="1264" on="0"/>
        <pt x="718" y="1388" on="0"/>
        <pt x="679" y="1467" on="0"/>
        <pt x="646" y="1492" on="1"/>
        <pt x="583" y="1537" on="0"/>
        <pt x="473" y="1537" on="1"/>
        <pt x="348" y="1537" on="0"/>
        <pt x="250" y="1492" on="1"/>
        <pt x="250" y="1479" on="0"/>
        <pt x="249" y="1458" on="1"/>
        <pt x="248" y="1422" on="0"/>
        <pt x="247" y="1349" on="1"/>
        <pt x="245" y="1203" on="0"/>
        <pt x="245" y="1026" on="1"/>
      </contour>
    </TTGlyph>
    <TTGlyph name="C" xMin="96" yMin="-23" xMax="822" yMax="1619">
      <contour>
        <pt x="715" y="413" on="1"/>
        <pt x="715" y="446" on="0"/>
        <pt x="748" y="483" on="0"/>
        <pt x="791" y="483" on="0"/>
        <pt x="824" y="452" on="0"/>
        <pt x="822" y="420" on="1"/>
        <pt x="812" y="218" on="0"/>
        <pt x="713" y="95" on="1"/>
        <pt x="618" y="-23" on="0"/>
        <pt x="475" y="-23" on="1"/>
        <pt x="205" y="-23" on="0"/>
        <pt x="126" y="381" on="1"/>
        <pt x="96" y="530" on="0"/>
        <pt x="96" y="935" on="0"/>
        <pt x="146" y="1252" on="0"/>
        <pt x="197" y="1369" on="1"/>
        <pt x="306" y="1619" on="0"/>
        <pt x="507" y="1619" on="1"/>
        <pt x="663" y="1619" on="0"/>
        <pt x="738" y="1496" on="1"/>
        <pt x="817" y="1365" on="0"/>
        <pt x="817" y="1068" on="1"/>
        <pt x="817" y="1035" on="0"/>
        <pt x="787" y="1002" on="0"/>
        <pt x="766" y="1002" on="1"/>
        <pt x="720" y="1002" on="0"/>
        <pt x="720" y="1060" on="1"/>
        <pt x="720" y="1430" on="0"/>
        <pt x="602" y="1501" on="1"/>
        <pt x="560" y="1526" on="0"/>
        <pt x="448" y="1526" on="0"/>
        <pt x="359" y="1463" on="0"/>
        <pt x="290" y="1352" on="0"/>
        <pt x="240" y="1201" on="0"/>
        <pt x="224" y="1114" on="1"/>
        <pt x="192" y="938" on="0"/>
        <pt x="192" y="595" on="0"/>
        <pt x="214" y="388" on="0"/>
        <pt x="254" y="241" on="0"/>
        <pt x="309" y="148" on="0"/>
        <pt x="342" y="121" on="1"/>
        <pt x="398" y="74" on="0"/>
        <pt x="485" y="74" on="1"/>
        <pt x="582" y="74" on="0"/>
        <pt x="644" y="153" on="1"/>
        <pt x="717" y="244" on="0"/>
      </contour>
    </TTGlyph>
    <TTGlyph name="Ccedilla" xMin="96" yMin="-543" xMax="822" yMax="1619">
      <component glyphName="C" x="0" y="0" flags="0x1004"/>
      <component glyphName="cedilla" x="212" y="0" flags="0x1004"/>
    </TTGlyph>
    <TTGlyph name="D" xMin="142" yMin="-3" xMax="894" yMax="1623">
      <contour>
        <pt x="862" y="1242" on="1"/>
        <pt x="894" y="1120" on="0"/>
        <pt x="894" y="825" on="0"/>
        <pt x="844" y="572" on="0"/>
        <pt x="754" y="357" on="0"/>
        <pt x="629" y="184" on="0"/>
        <pt x="553" y="123" on="1"/>
        <pt x="396" y="-3" on="0"/>
        <pt x="212" y="-3" on="1"/>
        <pt x="183" y="-3" on="0"/>
        <pt x="166" y="34" on="0"/>
        <pt x="166" y="60" on="1"/>
        <pt x="166" y="146" on="1"/>
        <pt x="166" y="208" on="0"/>
        <pt x="165" y="385" on="0"/>
        <pt x="164" y="602" on="0"/>
        <pt x="161" y="835" on="0"/>
        <pt x="158" y="1072" on="0"/>
        <pt x="156" y="1180" on="1"/>
        <pt x="150" y="1404" on="0"/>
        <pt x="142" y="1533" on="1"/>
        <pt x="137" y="1601" on="0"/>
        <pt x="202" y="1609" on="1"/>
        <pt x="298" y="1623" on="0"/>
        <pt x="360" y="1623" on="1"/>
        <pt x="762" y="1623" on="0"/>
      </contour>
      <contour>
        <pt x="266" y="91" on="1"/>
        <pt x="379" y="95" on="0"/>
        <pt x="491" y="188" on="1"/>
        <pt x="699" y="361" on="0"/>
        <pt x="769" y="704" on="1"/>
        <pt x="793" y="822" on="0"/>
        <pt x="793" y="1121" on="0"/>
        <pt x="720" y="1342" on="0"/>
        <pt x="662" y="1408" on="1"/>
        <pt x="553" y="1532" on="0"/>
        <pt x="381" y="1532" on="1"/>
        <pt x="306" y="1532" on="0"/>
        <pt x="259" y="1516" on="1"/>
        <pt x="251" y="1413" on="0"/>
        <pt x="251" y="1227" on="1"/>
        <pt x="251" y="1004" on="0"/>
        <pt x="253" y="768" on="0"/>
        <pt x="256" y="542" on="0"/>
        <pt x="259" y="335" on="0"/>
        <pt x="261" y="253" on="1"/>
        <pt x="264" y="150" on="0"/>
      </contour>
    </TTGlyph>
    <TTGlyph name="E" xMin="152" yMin="-11" xMax="740" yMax="1625">
      <contour>
        <pt x="258" y="549" on="1"/>
        <pt x="260" y="194" on="1"/>
        <pt x="260" y="146" on="0"/>
        <pt x="260" y="112" on="1"/>
        <pt x="261" y="97" on="0"/>
        <pt x="261" y="86" on="1"/>
        <pt x="513" y="86" on="0"/>
        <pt x="596" y="94" on="1"/>
        <pt x="682" y="103" on="0"/>
        <pt x="710" y="95" on="0"/>
        <pt x="720" y="86" on="1"/>
        <pt x="740" y="68" on="0"/>
        <pt x="740" y="25" on="0"/>
        <pt x="702" y="-6" on="0"/>
        <pt x="668" y="-4" on="1"/>
        <pt x="504" y="9" on="0"/>
        <pt x="240" y="-8" on="0"/>
        <pt x="208" y="-13" on="0"/>
        <pt x="183" y="-8" on="0"/>
        <pt x="173" y="0" on="1"/>
        <pt x="150" y="17" on="0"/>
        <pt x="152" y="50" on="1"/>
        <pt x="167" y="339" on="0"/>
        <pt x="167" y="1040" on="0"/>
        <pt x="168" y="1221" on="0"/>
        <pt x="168" y="1296" on="1"/>
        <pt x="166" y="1457" on="0"/>
        <pt x="156" y="1590" on="0"/>
        <pt x="171" y="1616" on="0"/>
        <pt x="182" y="1622" on="1"/>
        <pt x="197" y="1629" on="0"/>
        <pt x="220" y="1625" on="1"/>
        <pt x="262" y="1618" on="0"/>
        <pt x="331" y="1618" on="1"/>
        <pt x="464" y="1618" on="0"/>
        <pt x="561" y="1629" on="0"/>
        <pt x="589" y="1620" on="0"/>
        <pt x="598" y="1612" on="1"/>
        <pt x="618" y="1596" on="0"/>
        <pt x="618" y="1550" on="0"/>
        <pt x="582" y="1520" on="0"/>
        <pt x="520" y="1523" on="0"/>
        <pt x="450" y="1528" on="0"/>
        <pt x="410" y="1530" on="1"/>
        <pt x="326" y="1533" on="0"/>
        <pt x="264" y="1528" on="1"/>
        <pt x="264" y="1441" on="0"/>
        <pt x="263" y="1355" on="1"/>
        <pt x="262" y="1253" on="0"/>
        <pt x="261" y="1148" on="1"/>
        <pt x="258" y="866" on="0"/>
        <pt x="258" y="732" on="1"/>
        <pt x="383" y="732" on="0"/>
        <pt x="442" y="738" on="1"/>
        <pt x="506" y="745" on="0"/>
        <pt x="539" y="719" on="0"/>
        <pt x="539" y="697" on="1"/>
        <pt x="539" y="642" on="0"/>
        <pt x="436" y="644" on="1"/>
        <pt x="415" y="645" on="0"/>
        <pt x="398" y="645" on="1"/>
        <pt x="317" y="646" on="1"/>
        <pt x="258" y="646" on="1"/>
      </contour>
    </TTGlyph>
    <TTGlyph name="Eacute" xMin="152" yMin="-11" xMax="740" yMax="1916">
      <component glyphName="E" x="0" y="0" flags="0x1204"/>
      <component glyphName="acute.cap" x="82" y="0" flags="0x1004"/>
    </TTGlyph>
    <TTGlyph name="Ecircumflex" xMin="152" yMin="-11" xMax="740" yMax="1917">
      <component glyphName="E" x="0" y="0" flags="0x1204"/>
      <component glyphName="circumflex.cap" x="39" y="0" flags="0x1004"/>
    </TTGlyph>
    <TTGlyph name="Edieresis" xMin="152" yMin="-11" xMax="740" yMax="1918">
      <component glyphName="E" x="0" y="0" flags="0x1204"/>
      <component glyphName="dieresis.cap" x="75" y="0" flags="0x1004"/>
    </TTGlyph>
    <TTGlyph name="Egrave" xMin="152" yMin="-11" xMax="740" yMax="1916">
      <component glyphName="E" x="0" y="0" flags="0x1204"/>
      <component glyphName="grave.cap" x="178" y="0" flags="0x1004"/>
    </TTGlyph>
    <TTGlyph name="Eth" xMin="39" yMin="-3" xMax="894" yMax="1623">
      <contour>
        <pt x="862" y="1242" on="1"/>
        <pt x="894" y="1120" on="0"/>
        <pt x="894" y="825" on="0"/>
        <pt x="844" y="572" on="0"/>
        <pt x="754" y="357" on="0"/>
        <pt x="629" y="184" on="0"/>
        <pt x="553" y="123" on="1"/>
        <pt x="396" y="-3" on="0"/>
        <pt x="212" y="-3" on="1"/>
        <pt x="183" y="-3" on="0"/>
        <pt x="166" y="34" on="0"/>
        <pt x="166" y="60" on="1"/>
        <pt x="166" y="146" on="1"/>
        <pt x="166" y="208" on="0"/>
        <pt x="165" y="385" on="0"/>
        <pt x="164" y="602" on="0"/>
        <pt x="162" y="718" on="1"/>
        <pt x="162" y="780" on="0"/>
        <pt x="161" y="842" on="1"/>
        <pt x="138" y="841" on="0"/>
        <pt x="125" y="840" on="1"/>
        <pt x="88" y="836" on="0"/>
        <pt x="64" y="843" on="0"/>
        <pt x="56" y="850" on="1"/>
        <pt x="39" y="865" on="0"/>
        <pt x="39" y="911" on="0"/>
        <pt x="72" y="946" on="0"/>
        <pt x="116" y="940" on="1"/>
        <pt x="134" y="938" on="0"/>
        <pt x="160" y="937" on="1"/>
        <pt x="160" y="945" on="0"/>
        <pt x="160" y="954" on="1"/>
        <pt x="158" y="1072" on="0"/>
        <pt x="156" y="1180" on="1"/>
        <pt x="150" y="1404" on="0"/>
        <pt x="142" y="1533" on="1"/>
        <pt x="137" y="1601" on="0"/>
        <pt x="202" y="1609" on="1"/>
        <pt x="298" y="1623" on="0"/>
        <pt x="360" y="1623" on="1"/>
        <pt x="762" y="1623" on="0"/>
      </contour>
      <contour>
        <pt x="266" y="91" on="1"/>
        <pt x="379" y="95" on="0"/>
        <pt x="491" y="188" on="1"/>
        <pt x="699" y="361" on="0"/>
        <pt x="769" y="704" on="1"/>
        <pt x="793" y="822" on="0"/>
        <pt x="793" y="1121" on="0"/>
        <pt x="720" y="1342" on="0"/>
        <pt x="662" y="1408" on="1"/>
        <pt x="553" y="1532" on="0"/>
        <pt x="381" y="1532" on="1"/>
        <pt x="306" y="1532" on="0"/>
        <pt x="259" y="1516" on="1"/>
        <pt x="251" y="1413" on="0"/>
        <pt x="251" y="1227" on="1"/>
        <pt x="251" y="1047" on="0"/>
        <pt x="252" y="935" on="1"/>
        <pt x="254" y="935" on="0"/>
        <pt x="257" y="935" on="1"/>
        <pt x="354" y="935" on="0"/>
        <pt x="454" y="945" on="0"/>
        <pt x="487" y="910" on="0"/>
        <pt x="487" y="869" on="0"/>
        <pt x="456" y="836" on="0"/>
        <pt x="426" y="838" on="1"/>
        <pt x="334" y="844" on="0"/>
        <pt x="269" y="844" on="1"/>
        <pt x="260" y="844" on="0"/>
        <pt x="252" y="844" on="1"/>
        <pt x="253" y="748" on="0"/>
        <pt x="254" y="655" on="1"/>
        <pt x="256" y="542" on="0"/>
        <pt x="259" y="335" on="0"/>
        <pt x="261" y="253" on="1"/>
        <pt x="264" y="150" on="0"/>
      </contour>
    </TTGlyph>
    <TTGlyph name="Euro" xMin="24" yMin="-23" xMax="879" yMax="1670">
      <contour>
        <pt x="772" y="446" on="1"/>
        <pt x="772" y="480" on="0"/>
        <pt x="809" y="514" on="0"/>
        <pt x="850" y="514" on="0"/>
        <pt x="881" y="485" on="0"/>
        <pt x="879" y="454" on="1"/>
        <pt x="867" y="237" on="0"/>
        <pt x="776" y="108" on="1"/>
        <pt x="682" y="-23" on="0"/>
        <pt x="532" y="-23" on="1"/>
        <pt x="221" y="-23" on="0"/>
        <pt x="160" y="585" on="1"/>
        <pt x="124" y="583" on="0"/>
        <pt x="88" y="581" on="1"/>
        <pt x="55" y="579" on="0"/>
        <pt x="24" y="609" on="0"/>
        <pt x="24" y="646" on="0"/>
        <pt x="56" y="677" on="0"/>
        <pt x="88" y="675" on="1"/>
        <pt x="119" y="672" on="0"/>
        <pt x="153" y="670" on="1"/>
        <pt x="147" y="757" on="0"/>
        <pt x="145" y="855" on="1"/>
        <pt x="118" y="853" on="0"/>
        <pt x="98" y="852" on="1"/>
        <pt x="57" y="849" on="0"/>
        <pt x="25" y="878" on="0"/>
        <pt x="25" y="916" on="0"/>
        <pt x="58" y="947" on="0"/>
        <pt x="90" y="945" on="1"/>
        <pt x="117" y="943" on="0"/>
        <pt x="145" y="941" on="1"/>
        <pt x="150" y="1448" on="0"/>
        <pt x="365" y="1612" on="1"/>
        <pt x="440" y="1670" on="0"/>
        <pt x="619" y="1670" on="0"/>
        <pt x="740" y="1624" on="0"/>
        <pt x="782" y="1570" on="1"/>
        <pt x="871" y="1458" on="0"/>
        <pt x="871" y="1205" on="1"/>
        <pt x="871" y="1172" on="0"/>
        <pt x="837" y="1139" on="0"/>
        <pt x="796" y="1139" on="0"/>
        <pt x="764" y="1168" on="0"/>
        <pt x="764" y="1198" on="1"/>
        <pt x="764" y="1410" on="0"/>
        <pt x="712" y="1496" on="1"/>
        <pt x="661" y="1579" on="0"/>
        <pt x="544" y="1579" on="1"/>
        <pt x="344" y="1579" on="0"/>
        <pt x="276" y="1225" on="1"/>
        <pt x="253" y="1104" on="0"/>
        <pt x="250" y="937" on="1"/>
        <pt x="285" y="936" on="0"/>
        <pt x="322" y="936" on="1"/>
        <pt x="452" y="936" on="0"/>
        <pt x="582" y="944" on="1"/>
        <pt x="614" y="946" on="0"/>
        <pt x="647" y="913" on="0"/>
        <pt x="647" y="886" on="0"/>
        <pt x="639" y="868" on="0"/>
        <pt x="631" y="862" on="1"/>
        <pt x="614" y="847" on="0"/>
        <pt x="572" y="852" on="0"/>
        <pt x="530" y="855" on="0"/>
        <pt x="502" y="856" on="1"/>
        <pt x="455" y="859" on="0"/>
        <pt x="334" y="859" on="0"/>
        <pt x="295" y="858" on="1"/>
        <pt x="271" y="858" on="0"/>
        <pt x="249" y="858" on="1"/>
        <pt x="249" y="756" on="0"/>
        <pt x="255" y="667" on="1"/>
        <pt x="287" y="666" on="0"/>
        <pt x="320" y="666" on="1"/>
        <pt x="449" y="666" on="0"/>
        <pt x="591" y="673" on="1"/>
        <pt x="623" y="675" on="0"/>
        <pt x="656" y="644" on="0"/>
        <pt x="656" y="607" on="0"/>
        <pt x="625" y="579" on="0"/>
        <pt x="583" y="582" on="1"/>
        <pt x="471" y="590" on="0"/>
        <pt x="376" y="590" on="1"/>
        <pt x="319" y="590" on="0"/>
        <pt x="261" y="589" on="1"/>
        <pt x="266" y="543" on="0"/>
        <pt x="272" y="502" on="1"/>
        <pt x="294" y="344" on="0"/>
        <pt x="334" y="250" on="1"/>
        <pt x="406" y="77" on="0"/>
        <pt x="543" y="77" on="1"/>
        <pt x="650" y="77" on="0"/>
        <pt x="773" y="265" on="0"/>
      </contour>
    </TTGlyph>
    <TTGlyph name="F" xMin="152" yMin="0" xMax="646" yMax="1627">
      <contour>
        <pt x="177" y="447" on="1"/>
        <pt x="176" y="926" on="1"/>
        <pt x="176" y="1262" on="0"/>
        <pt x="152" y="1564" on="1"/>
        <pt x="149" y="1609" on="0"/>
        <pt x="181" y="1622" on="1"/>
        <pt x="199" y="1630" on="0"/>
        <pt x="223" y="1626" on="1"/>
        <pt x="265" y="1619" on="0"/>
        <pt x="385" y="1619" on="0"/>
        <pt x="440" y="1620" on="0"/>
        <pt x="468" y="1621" on="1"/>
        <pt x="538" y="1624" on="0"/>
        <pt x="589" y="1630" on="0"/>
        <pt x="616" y="1622" on="0"/>
        <pt x="626" y="1614" on="1"/>
        <pt x="646" y="1596" on="0"/>
        <pt x="646" y="1551" on="0"/>
        <pt x="610" y="1521" on="0"/>
        <pt x="547" y="1524" on="0"/>
        <pt x="471" y="1529" on="0"/>
        <pt x="427" y="1530" on="1"/>
        <pt x="335" y="1533" on="0"/>
        <pt x="271" y="1529" on="1"/>
        <pt x="271" y="1356" on="1"/>
        <pt x="271" y="1254" on="0"/>
        <pt x="270" y="1148" on="1"/>
        <pt x="269" y="865" on="0"/>
        <pt x="269" y="732" on="1"/>
        <pt x="406" y="732" on="0"/>
        <pt x="484" y="740" on="1"/>
        <pt x="567" y="749" on="0"/>
        <pt x="567" y="697" on="1"/>
        <pt x="567" y="647" on="0"/>
        <pt x="452" y="646" on="1"/>
        <pt x="423" y="645" on="0"/>
        <pt x="406" y="645" on="1"/>
        <pt x="326" y="646" on="1"/>
        <pt x="269" y="646" on="1"/>
        <pt x="278" y="61" on="1"/>
        <pt x="278" y="35" on="0"/>
        <pt x="251" y="0" on="0"/>
        <pt x="219" y="0" on="0"/>
        <pt x="199" y="5" on="0"/>
        <pt x="190" y="12" on="1"/>
        <pt x="169" y="30" on="0"/>
        <pt x="171" y="61" on="1"/>
        <pt x="177" y="176" on="0"/>
      </contour>
    </TTGlyph>
    <TTGlyph name="G" xMin="92" yMin="-23" xMax="829" yMax="1630">
      <contour>
        <pt x="817" y="1164" on="1"/>
        <pt x="819" y="1098" on="0"/>
        <pt x="772" y="1098" on="1"/>
        <pt x="752" y="1098" on="0"/>
        <pt x="720" y="1127" on="0"/>
        <pt x="720" y="1156" on="1"/>
        <pt x="720" y="1470" on="0"/>
        <pt x="586" y="1522" on="1"/>
        <pt x="544" y="1538" on="0"/>
        <pt x="409" y="1528" on="0"/>
        <pt x="294" y="1415" on="0"/>
        <pt x="258" y="1320" on="1"/>
        <pt x="190" y="1142" on="0"/>
        <pt x="190" y="826" on="1"/>
        <pt x="190" y="156" on="0"/>
        <pt x="410" y="88" on="1"/>
        <pt x="447" y="77" on="0"/>
        <pt x="487" y="77" on="1"/>
        <pt x="681" y="77" on="0"/>
        <pt x="724" y="442" on="1"/>
        <pt x="737" y="560" on="0"/>
        <pt x="736" y="611" on="1"/>
        <pt x="647" y="616" on="0"/>
        <pt x="588" y="609" on="1"/>
        <pt x="523" y="601" on="0"/>
        <pt x="475" y="601" on="0"/>
        <pt x="446" y="635" on="0"/>
        <pt x="446" y="676" on="0"/>
        <pt x="476" y="708" on="0"/>
        <pt x="539" y="699" on="0"/>
        <pt x="570" y="699" on="1"/>
        <pt x="628" y="699" on="1"/>
        <pt x="680" y="699" on="0"/>
        <pt x="707" y="703" on="1"/>
        <pt x="754" y="710" on="0"/>
        <pt x="777" y="710" on="1"/>
        <pt x="829" y="710" on="0"/>
        <pt x="829" y="651" on="1"/>
        <pt x="829" y="336" on="0"/>
        <pt x="736" y="157" on="1"/>
        <pt x="641" y="-23" on="0"/>
        <pt x="478" y="-23" on="1"/>
        <pt x="281" y="-23" on="0"/>
        <pt x="187" y="184" on="1"/>
        <pt x="92" y="395" on="0"/>
        <pt x="92" y="845" on="1"/>
        <pt x="92" y="1607" on="0"/>
        <pt x="497" y="1630" on="1"/>
        <pt x="817" y="1647" on="0"/>
      </contour>
    </TTGlyph>
    <TTGlyph name="H" xMin="152" yMin="-1" xMax="838" yMax="1621">
      <contour>
        <pt x="735" y="1112" on="1"/>
        <pt x="734" y="1270" on="1"/>
        <pt x="734" y="1308" on="0"/>
        <pt x="733" y="1395" on="0"/>
        <pt x="732" y="1496" on="0"/>
        <pt x="730" y="1591" on="0"/>
        <pt x="766" y="1621" on="0"/>
        <pt x="806" y="1621" on="0"/>
        <pt x="839" y="1591" on="0"/>
        <pt x="838" y="1559" on="1"/>
        <pt x="822" y="1004" on="0"/>
        <pt x="822" y="689" on="1"/>
        <pt x="822" y="182" on="0"/>
        <pt x="829" y="63" on="1"/>
        <pt x="831" y="31" on="0"/>
        <pt x="798" y="-1" on="0"/>
        <pt x="759" y="-1" on="0"/>
        <pt x="728" y="30" on="0"/>
        <pt x="729" y="62" on="1"/>
        <pt x="733" y="391" on="0"/>
        <pt x="735" y="627" on="1"/>
        <pt x="646" y="635" on="0"/>
        <pt x="492" y="635" on="1"/>
        <pt x="332" y="635" on="0"/>
        <pt x="255" y="626" on="1"/>
        <pt x="256" y="324" on="0"/>
        <pt x="262" y="68" on="1"/>
        <pt x="263" y="35" on="0"/>
        <pt x="227" y="1" on="0"/>
        <pt x="186" y="1" on="0"/>
        <pt x="154" y="32" on="0"/>
        <pt x="158" y="142" on="0"/>
        <pt x="162" y="348" on="0"/>
        <pt x="164" y="464" on="1"/>
        <pt x="166" y="659" on="0"/>
        <pt x="166" y="1067" on="0"/>
        <pt x="165" y="1234" on="0"/>
        <pt x="164" y="1303" on="1"/>
        <pt x="161" y="1411" on="0"/>
        <pt x="152" y="1553" on="1"/>
        <pt x="150" y="1585" on="0"/>
        <pt x="186" y="1616" on="0"/>
        <pt x="230" y="1616" on="0"/>
        <pt x="266" y="1585" on="0"/>
        <pt x="262" y="1492" on="0"/>
        <pt x="258" y="1360" on="0"/>
        <pt x="256" y="1201" on="0"/>
        <pt x="256" y="1104" on="1"/>
        <pt x="255" y="1013" on="0"/>
        <pt x="255" y="721" on="1"/>
        <pt x="321" y="711" on="0"/>
        <pt x="494" y="711" on="1"/>
        <pt x="660" y="711" on="0"/>
        <pt x="735" y="721" on="1"/>
        <pt x="735" y="759" on="0"/>
        <pt x="735" y="794" on="1"/>
      </contour>
    </TTGlyph>
    <TTGlyph name="I" xMin="189" yMin="0" xMax="303" yMax="1628">
      <contour>
        <pt x="292" y="1367" on="0"/>
        <pt x="291" y="1258" on="0"/>
        <pt x="291" y="490" on="0"/>
        <pt x="303" y="66" on="1"/>
        <pt x="304" y="34" on="0"/>
        <pt x="265" y="0" on="0"/>
        <pt x="222" y="0" on="0"/>
        <pt x="189" y="30" on="0"/>
        <pt x="193" y="134" on="0"/>
        <pt x="197" y="318" on="0"/>
        <pt x="199" y="422" on="1"/>
        <pt x="203" y="628" on="0"/>
        <pt x="203" y="985" on="0"/>
        <pt x="202" y="1184" on="0"/>
        <pt x="200" y="1268" on="1"/>
        <pt x="197" y="1454" on="0"/>
        <pt x="189" y="1565" on="1"/>
        <pt x="186" y="1597" on="0"/>
        <pt x="215" y="1628" on="0"/>
        <pt x="261" y="1628" on="0"/>
        <pt x="301" y="1597" on="0"/>
        <pt x="298" y="1523" on="0"/>
        <pt x="295" y="1451" on="0"/>
      </contour>
    </TTGlyph>
    <TTGlyph name="IJ" xMin="189" yMin="-22" xMax="1132" yMax="1628">
      <component glyphName="I" x="0" y="0" flags="0x1004"/>
      <component glyphName="J" x="492" y="0" flags="0x1004"/>
    </TTGlyph>
    <TTGlyph name="Iacute" xMin="157" yMin="0" xMax="481" yMax="1916">
      <component glyphName="I" x="0" y="0" flags="0x1204"/>
      <component glyphName="acute.cap" x="-83" y="0" flags="0x1004"/>
    </TTGlyph>
    <TTGlyph name="Icircumflex" xMin="1" yMin="0" xMax="494" yMax="1917">
      <component glyphName="I" x="0" y="0" flags="0x1204"/>
      <component glyphName="circumflex.cap" x="-126" y="0" flags="0x1004"/>
    </TTGlyph>
    <TTGlyph name="Idieresis" xMin="17" yMin="0" xMax="478" yMax="1918">
      <component glyphName="I" x="0" y="0" flags="0x1204"/>
      <component glyphName="dieresis.cap" x="-90" y="0" flags="0x1004"/>
    </TTGlyph>
    <TTGlyph name="Igrave" xMin="-6" yMin="0" xMax="350" yMax="1916">
      <component glyphName="I" x="0" y="0" flags="0x1204"/>
      <component glyphName="grave.cap" x="12" y="0" flags="0x1004"/>
    </TTGlyph>
    <TTGlyph name="Itilde" xMin="-1" yMin="0" xMax="518" yMax="1918">
      <component glyphName="I" x="0" y="0" flags="0x1204"/>
      <component glyphName="tilde.cap" x="-142" y="0" flags="0x1004"/>
    </TTGlyph>
    <TTGlyph name="J" xMin="57" yMin="-22" xMax="640" yMax="1621">
      <contour>
        <pt x="640" y="1559" on="1"/>
        <pt x="636" y="1087" on="0"/>
        <pt x="636" y="976" on="1"/>
        <pt x="636" y="563" on="1"/>
        <pt x="636" y="261" on="0"/>
        <pt x="568" y="122" on="1"/>
        <pt x="498" y="-22" on="0"/>
        <pt x="335" y="-22" on="1"/>
        <pt x="210" y="-22" on="0"/>
        <pt x="136" y="92" on="1"/>
        <pt x="57" y="212" on="0"/>
        <pt x="57" y="430" on="1"/>
        <pt x="57" y="541" on="0"/>
        <pt x="96" y="579" on="0"/>
        <pt x="146" y="579" on="0"/>
        <pt x="175" y="541" on="0"/>
        <pt x="172" y="508" on="1"/>
        <pt x="166" y="456" on="0"/>
        <pt x="166" y="296" on="0"/>
        <pt x="194" y="174" on="0"/>
        <pt x="218" y="136" on="1"/>
        <pt x="264" y="65" on="0"/>
        <pt x="342" y="65" on="1"/>
        <pt x="447" y="65" on="0"/>
        <pt x="492" y="169" on="1"/>
        <pt x="538" y="276" on="0"/>
        <pt x="540" y="544" on="1"/>
        <pt x="542" y="664" on="0"/>
        <pt x="542" y="1038" on="0"/>
        <pt x="543" y="1199" on="0"/>
        <pt x="542" y="1272" on="1"/>
        <pt x="540" y="1425" on="0"/>
        <pt x="529" y="1560" on="1"/>
        <pt x="526" y="1592" on="0"/>
        <pt x="560" y="1621" on="0"/>
        <pt x="602" y="1621" on="0"/>
        <pt x="640" y="1591" on="0"/>
      </contour>
    </TTGlyph>
    <TTGlyph name="Jcircumflex" xMin="57" yMin="-22" xMax="827" yMax="1917">
      <component glyphName="J" x="0" y="0" flags="0x1204"/>
      <component glyphName="circumflex.cap" x="207" y="0" flags="0x1004"/>
    </TTGlyph>
    <TTGlyph name="K" xMin="152" yMin="0" xMax="891" yMax="1634">
      <contour>
        <pt x="820" y="1598" on="0"/>
        <pt x="824" y="1566" on="0"/>
        <pt x="776" y="1453" on="0"/>
        <pt x="696" y="1309" on="1"/>
        <pt x="622" y="1176" on="0"/>
        <pt x="525" y="999" on="1"/>
        <pt x="585" y="825" on="0"/>
        <pt x="660" y="641" on="1"/>
        <pt x="740" y="443" on="0"/>
        <pt x="774" y="359" on="1"/>
        <pt x="855" y="158" on="0"/>
        <pt x="893" y="67" on="0"/>
        <pt x="889" y="36" on="0"/>
        <pt x="881" y="24" on="1"/>
        <pt x="864" y="0" on="0"/>
        <pt x="841" y="0" on="1"/>
        <pt x="799" y="0" on="0"/>
        <pt x="783" y="41" on="1"/>
        <pt x="570" y="654" on="0"/>
        <pt x="471" y="904" on="1"/>
        <pt x="352" y="681" on="0"/>
        <pt x="266" y="545" on="1"/>
        <pt x="266" y="249" on="0"/>
        <pt x="270" y="66" on="1"/>
        <pt x="271" y="34" on="0"/>
        <pt x="234" y="0" on="0"/>
        <pt x="190" y="0" on="0"/>
        <pt x="155" y="30" on="0"/>
        <pt x="159" y="141" on="0"/>
        <pt x="165" y="349" on="0"/>
        <pt x="168" y="467" on="1"/>
        <pt x="174" y="703" on="0"/>
        <pt x="174" y="1074" on="0"/>
        <pt x="172" y="1241" on="0"/>
        <pt x="170" y="1310" on="1"/>
        <pt x="165" y="1427" on="0"/>
        <pt x="152" y="1562" on="1"/>
        <pt x="149" y="1594" on="0"/>
        <pt x="188" y="1625" on="0"/>
        <pt x="237" y="1625" on="0"/>
        <pt x="278" y="1594" on="0"/>
        <pt x="277" y="1562" on="1"/>
        <pt x="266" y="1305" on="0"/>
        <pt x="266" y="688" on="1"/>
        <pt x="510" y="1104" on="0"/>
        <pt x="662" y="1466" on="1"/>
        <pt x="692" y="1537" on="0"/>
        <pt x="719" y="1614" on="0"/>
        <pt x="748" y="1634" on="0"/>
        <pt x="778" y="1634" on="0"/>
        <pt x="803" y="1621" on="0"/>
      </contour>
    </TTGlyph>
    <TTGlyph name="L" xMin="152" yMin="-11" xMax="717" yMax="1625">
      <contour>
        <pt x="208" y="1625" on="1"/>
        <pt x="269" y="1625" on="0"/>
        <pt x="269" y="1538" on="1"/>
        <pt x="269" y="1420" on="0"/>
        <pt x="266" y="1159" on="0"/>
        <pt x="264" y="947" on="0"/>
        <pt x="263" y="806" on="1"/>
        <pt x="261" y="513" on="0"/>
        <pt x="259" y="87" on="1"/>
        <pt x="458" y="83" on="0"/>
        <pt x="641" y="101" on="1"/>
        <pt x="677" y="105" on="0"/>
        <pt x="717" y="67" on="0"/>
        <pt x="717" y="25" on="0"/>
        <pt x="681" y="-6" on="0"/>
        <pt x="646" y="-4" on="1"/>
        <pt x="532" y="5" on="0"/>
        <pt x="269" y="-5" on="0"/>
        <pt x="215" y="-13" on="0"/>
        <pt x="190" y="-8" on="0"/>
        <pt x="180" y="0" on="1"/>
        <pt x="158" y="17" on="0"/>
        <pt x="160" y="50" on="1"/>
        <pt x="172" y="284" on="0"/>
        <pt x="172" y="1039" on="0"/>
        <pt x="171" y="1218" on="0"/>
        <pt x="169" y="1293" on="1"/>
        <pt x="165" y="1442" on="0"/>
        <pt x="152" y="1561" on="1"/>
        <pt x="149" y="1593" on="0"/>
        <pt x="185" y="1625" on="0"/>
      </contour>
    </TTGlyph>
    <TTGlyph name="Ldotaccent" xMin="152" yMin="-11" xMax="883" yMax="1625">
      <component glyphName="L" x="0" y="0" flags="0x1004"/>
      <component glyphName="period" x="565" y="749" flags="0x1004"/>
    </TTGlyph>
    <TTGlyph name="Lslash" xMin="0" yMin="-11" xMax="717" yMax="1625">
      <contour>
        <pt x="208" y="1625" on="1"/>
        <pt x="269" y="1625" on="0"/>
        <pt x="269" y="1538" on="1"/>
        <pt x="269" y="1420" on="0"/>
        <pt x="266" y="1159" on="0"/>
        <pt x="264" y="947" on="0"/>
        <pt x="263" y="806" on="1"/>
        <pt x="263" y="771" on="0"/>
        <pt x="263" y="734" on="1"/>
        <pt x="304" y="782" on="0"/>
        <pt x="332" y="818" on="1"/>
        <pt x="395" y="901" on="0"/>
        <pt x="450" y="973" on="0"/>
        <pt x="492" y="1028" on="0"/>
        <pt x="536" y="1033" on="0"/>
        <pt x="550" y="1020" on="1"/>
        <pt x="585" y="989" on="0"/>
        <pt x="546" y="944" on="1"/>
        <pt x="526" y="921" on="0"/>
        <pt x="471" y="864" on="0"/>
        <pt x="442" y="833" on="1"/>
        <pt x="336" y="722" on="0"/>
        <pt x="262" y="627" on="1"/>
        <pt x="260" y="391" on="0"/>
        <pt x="259" y="87" on="1"/>
        <pt x="458" y="83" on="0"/>
        <pt x="641" y="101" on="1"/>
        <pt x="677" y="105" on="0"/>
        <pt x="717" y="67" on="0"/>
        <pt x="717" y="25" on="0"/>
        <pt x="681" y="-6" on="0"/>
        <pt x="646" y="-4" on="1"/>
        <pt x="532" y="5" on="0"/>
        <pt x="269" y="-5" on="0"/>
        <pt x="215" y="-13" on="0"/>
        <pt x="190" y="-8" on="0"/>
        <pt x="180" y="0" on="1"/>
        <pt x="158" y="17" on="0"/>
        <pt x="160" y="50" on="1"/>
        <pt x="169" y="235" on="0"/>
        <pt x="171" y="510" on="1"/>
        <pt x="161" y="496" on="0"/>
        <pt x="152" y="486" on="1"/>
        <pt x="120" y="443" on="0"/>
        <pt x="73" y="384" on="0"/>
        <pt x="29" y="379" on="0"/>
        <pt x="1" y="404" on="0"/>
        <pt x="-1" y="448" on="0"/>
        <pt x="41" y="490" on="0"/>
        <pt x="100" y="553" on="0"/>
        <pt x="134" y="590" on="1"/>
        <pt x="154" y="611" on="0"/>
        <pt x="172" y="631" on="1"/>
        <pt x="172" y="646" on="0"/>
        <pt x="172" y="662" on="1"/>
        <pt x="172" y="1039" on="0"/>
        <pt x="171" y="1218" on="0"/>
        <pt x="169" y="1293" on="1"/>
        <pt x="165" y="1442" on="0"/>
        <pt x="152" y="1561" on="1"/>
        <pt x="149" y="1593" on="0"/>
        <pt x="185" y="1625" on="0"/>
      </contour>
    </TTGlyph>
    <TTGlyph name="M" xMin="152" yMin="0" xMax="1167" yMax="1630">
      <contour>
        <pt x="1150" y="1254" on="1"/>
        <pt x="1151" y="893" on="1"/>
        <pt x="1151" y="515" on="0"/>
        <pt x="1167" y="62" on="1"/>
        <pt x="1168" y="30" on="0"/>
        <pt x="1133" y="0" on="0"/>
        <pt x="1089" y="0" on="0"/>
        <pt x="1053" y="34" on="0"/>
        <pt x="1053" y="66" on="1"/>
        <pt x="1068" y="516" on="0"/>
        <pt x="1068" y="816" on="1"/>
        <pt x="1068" y="1334" on="1"/>
        <pt x="1068" y="1392" on="0"/>
        <pt x="1067" y="1443" on="1"/>
        <pt x="1045" y="1358" on="0"/>
        <pt x="1010" y="1222" on="1"/>
        <pt x="930" y="923" on="0"/>
        <pt x="866" y="694" on="0"/>
        <pt x="834" y="583" on="1"/>
        <pt x="768" y="354" on="0"/>
        <pt x="711" y="181" on="1"/>
        <pt x="705" y="161" on="0"/>
        <pt x="670" y="141" on="0"/>
        <pt x="654" y="141" on="1"/>
        <pt x="623" y="141" on="0"/>
        <pt x="612" y="181" on="1"/>
        <pt x="607" y="197" on="0"/>
        <pt x="570" y="320" on="0"/>
        <pt x="515" y="501" on="0"/>
        <pt x="448" y="726" on="0"/>
        <pt x="377" y="962" on="0"/>
        <pt x="309" y="1194" on="0"/>
        <pt x="281" y="1292" on="1"/>
        <pt x="258" y="1373" on="0"/>
        <pt x="242" y="1432" on="1"/>
        <pt x="244" y="1184" on="1"/>
        <pt x="244" y="731" on="0"/>
        <pt x="263" y="139" on="0"/>
        <pt x="265" y="43" on="0"/>
        <pt x="254" y="21" on="0"/>
        <pt x="245" y="14" on="1"/>
        <pt x="206" y="-19" on="0"/>
        <pt x="168" y="16" on="1"/>
        <pt x="150" y="33" on="0"/>
        <pt x="155" y="119" on="0"/>
        <pt x="159" y="248" on="0"/>
        <pt x="160" y="320" on="1"/>
        <pt x="164" y="490" on="0"/>
        <pt x="164" y="635" on="1"/>
        <pt x="152" y="1545" on="1"/>
        <pt x="152" y="1590" on="0"/>
        <pt x="194" y="1627" on="0"/>
        <pt x="222" y="1627" on="1"/>
        <pt x="275" y="1627" on="0"/>
        <pt x="295" y="1563" on="1"/>
        <pt x="297" y="1557" on="0"/>
        <pt x="314" y="1498" on="0"/>
        <pt x="342" y="1403" on="0"/>
        <pt x="379" y="1278" on="0"/>
        <pt x="421" y="1134" on="0"/>
        <pt x="444" y="1055" on="1"/>
        <pt x="524" y="780" on="0"/>
        <pt x="665" y="302" on="1"/>
        <pt x="739" y="513" on="0"/>
        <pt x="938" y="1259" on="1"/>
        <pt x="977" y="1407" on="0"/>
        <pt x="1016" y="1561" on="1"/>
        <pt x="1034" y="1630" on="0"/>
        <pt x="1099" y="1630" on="1"/>
        <pt x="1125" y="1630" on="0"/>
        <pt x="1156" y="1579" on="0"/>
        <pt x="1154" y="1531" on="1"/>
        <pt x="1150" y="1464" on="0"/>
      </contour>
    </TTGlyph>
    <TTGlyph name="N" xMin="152" yMin="-1" xMax="919" yMax="1630">
      <contour>
        <pt x="918" y="1567" on="1"/>
        <pt x="912" y="1069" on="0"/>
        <pt x="912" y="656" on="0"/>
        <pt x="913" y="463" on="0"/>
        <pt x="914" y="376" on="1"/>
        <pt x="916" y="192" on="0"/>
        <pt x="921" y="57" on="0"/>
        <pt x="909" y="31" on="0"/>
        <pt x="899" y="22" on="1"/>
        <pt x="858" y="-15" on="0"/>
        <pt x="812" y="15" on="1"/>
        <pt x="794" y="27" on="0"/>
        <pt x="786" y="51" on="1"/>
        <pt x="698" y="309" on="0"/>
        <pt x="450" y="914" on="0"/>
        <pt x="401" y="1039" on="1"/>
        <pt x="312" y="1266" on="0"/>
        <pt x="246" y="1455" on="1"/>
        <pt x="259" y="60" on="1"/>
        <pt x="259" y="29" on="0"/>
        <pt x="227" y="-1" on="0"/>
        <pt x="186" y="-1" on="0"/>
        <pt x="151" y="32" on="0"/>
        <pt x="152" y="65" on="1"/>
        <pt x="162" y="340" on="0"/>
        <pt x="162" y="692" on="1"/>
        <pt x="162" y="1285" on="1"/>
        <pt x="162" y="1440" on="0"/>
        <pt x="160" y="1552" on="1"/>
        <pt x="160" y="1589" on="0"/>
        <pt x="205" y="1628" on="0"/>
        <pt x="230" y="1628" on="1"/>
        <pt x="286" y="1628" on="0"/>
        <pt x="322" y="1522" on="0"/>
        <pt x="388" y="1343" on="0"/>
        <pt x="470" y="1124" on="0"/>
        <pt x="564" y="879" on="0"/>
        <pt x="658" y="636" on="0"/>
        <pt x="746" y="408" on="0"/>
        <pt x="818" y="222" on="0"/>
        <pt x="843" y="156" on="1"/>
        <pt x="844" y="153" on="0"/>
        <pt x="845" y="151" on="1"/>
        <pt x="837" y="347" on="0"/>
        <pt x="832" y="578" on="1"/>
        <pt x="827" y="859" on="0"/>
        <pt x="820" y="1139" on="0"/>
        <pt x="813" y="1426" on="0"/>
        <pt x="808" y="1567" on="1"/>
        <pt x="808" y="1599" on="0"/>
        <pt x="843" y="1630" on="0"/>
        <pt x="885" y="1630" on="0"/>
        <pt x="918" y="1599" on="0"/>
      </contour>
    </TTGlyph>
    <TTGlyph name="Nacute" xMin="152" yMin="-1" xMax="919" yMax="1916">
      <component glyphName="N" x="0" y="0" flags="0x1204"/>
      <component glyphName="acute.cap" x="206" y="0" flags="0x1004"/>
    </TTGlyph>
    <TTGlyph name="Ntilde" xMin="152" yMin="-1" xMax="919" yMax="1918">
      <component glyphName="N" x="0" y="0" flags="0x1204"/>
      <component glyphName="tilde.cap" x="147" y="0" flags="0x1004"/>
    </TTGlyph>
    <TTGlyph name="O" xMin="89" yMin="-23" xMax="936" yMax="1631">
      <contour>
        <pt x="704" y="-23" on="0"/>
        <pt x="286" y="-23" on="0"/>
        <pt x="89" y="409" on="0"/>
        <pt x="89" y="831" on="1"/>
        <pt x="89" y="1164" on="0"/>
        <pt x="202" y="1390" on="1"/>
        <pt x="258" y="1500" on="0"/>
        <pt x="418" y="1631" on="0"/>
        <pt x="627" y="1631" on="0"/>
        <pt x="783" y="1522" on="0"/>
        <pt x="834" y="1419" on="1"/>
        <pt x="934" y="1217" on="0"/>
        <pt x="936" y="831" on="1"/>
        <pt x="938" y="425" on="0"/>
        <pt x="820" y="199" on="1"/>
      </contour>
      <contour>
        <pt x="676" y="1484" on="0"/>
        <pt x="582" y="1543" on="0"/>
        <pt x="468" y="1543" on="0"/>
        <pt x="376" y="1484" on="0"/>
        <pt x="301" y="1380" on="0"/>
        <pt x="244" y="1239" on="0"/>
        <pt x="224" y="1158" on="1"/>
        <pt x="185" y="992" on="0"/>
        <pt x="185" y="661" on="0"/>
        <pt x="210" y="437" on="0"/>
        <pt x="254" y="274" on="0"/>
        <pt x="315" y="165" on="0"/>
        <pt x="350" y="132" on="1"/>
        <pt x="415" y="73" on="0"/>
        <pt x="505" y="73" on="1"/>
        <pt x="771" y="73" on="0"/>
        <pt x="828" y="562" on="1"/>
        <pt x="841" y="674" on="0"/>
        <pt x="841" y="906" on="0"/>
        <pt x="827" y="1080" on="0"/>
        <pt x="796" y="1241" on="0"/>
        <pt x="747" y="1381" on="0"/>
      </contour>
    </TTGlyph>
    <TTGlyph name="OE" xMin="85" yMin="-23" xMax="1404" yMax="1638">
      <contour>
        <pt x="620" y="1520" on="1"/>
        <pt x="573" y="1547" on="0"/>
        <pt x="459" y="1547" on="0"/>
        <pt x="367" y="1493" on="0"/>
        <pt x="292" y="1398" on="0"/>
        <pt x="234" y="1269" on="0"/>
        <pt x="214" y="1194" on="1"/>
        <pt x="175" y="1041" on="0"/>
        <pt x="175" y="711" on="0"/>
        <pt x="200" y="470" on="0"/>
        <pt x="244" y="293" on="0"/>
        <pt x="304" y="174" on="0"/>
        <pt x="340" y="138" on="1"/>
        <pt x="405" y="73" on="0"/>
        <pt x="558" y="73" on="0"/>
        <pt x="679" y="151" on="0"/>
        <pt x="726" y="244" on="1"/>
        <pt x="830" y="450" on="0"/>
        <pt x="830" y="881" on="1"/>
        <pt x="830" y="1148" on="0"/>
        <pt x="762" y="1330" on="1"/>
        <pt x="712" y="1466" on="0"/>
      </contour>
      <contour>
        <pt x="926" y="732" on="1"/>
        <pt x="1047" y="732" on="0"/>
        <pt x="1107" y="738" on="1"/>
        <pt x="1171" y="745" on="0"/>
        <pt x="1203" y="719" on="0"/>
        <pt x="1203" y="697" on="1"/>
        <pt x="1203" y="642" on="0"/>
        <pt x="1100" y="644" on="1"/>
        <pt x="1079" y="645" on="0"/>
        <pt x="1062" y="645" on="1"/>
        <pt x="983" y="646" on="1"/>
        <pt x="926" y="646" on="1"/>
        <pt x="925" y="420" on="1"/>
        <pt x="925" y="86" on="1"/>
        <pt x="1173" y="86" on="0"/>
        <pt x="1258" y="94" on="1"/>
        <pt x="1347" y="103" on="0"/>
        <pt x="1374" y="95" on="0"/>
        <pt x="1384" y="86" on="1"/>
        <pt x="1404" y="70" on="0"/>
        <pt x="1404" y="25" on="0"/>
        <pt x="1367" y="-6" on="0"/>
        <pt x="1333" y="-4" on="1"/>
        <pt x="1167" y="9" on="0"/>
        <pt x="916" y="-8" on="0"/>
        <pt x="883" y="-13" on="0"/>
        <pt x="857" y="-8" on="0"/>
        <pt x="847" y="0" on="1"/>
        <pt x="823" y="17" on="0"/>
        <pt x="828" y="67" on="0"/>
        <pt x="835" y="147" on="0"/>
        <pt x="839" y="198" on="1"/>
        <pt x="847" y="307" on="0"/>
        <pt x="850" y="381" on="1"/>
        <pt x="783" y="109" on="0"/>
        <pt x="634" y="16" on="1"/>
        <pt x="573" y="-23" on="0"/>
        <pt x="491" y="-23" on="1"/>
        <pt x="282" y="-23" on="0"/>
        <pt x="85" y="440" on="0"/>
        <pt x="85" y="892" on="1"/>
        <pt x="85" y="1218" on="0"/>
        <pt x="200" y="1424" on="1"/>
        <pt x="318" y="1638" on="0"/>
        <pt x="518" y="1638" on="1"/>
        <pt x="782" y="1638" on="0"/>
        <pt x="847" y="1259" on="1"/>
        <pt x="850" y="1498" on="0"/>
        <pt x="843" y="1541" on="1"/>
        <pt x="831" y="1620" on="0"/>
        <pt x="888" y="1620" on="1"/>
        <pt x="1019" y="1613" on="1"/>
        <pt x="1150" y="1613" on="0"/>
        <pt x="1225" y="1624" on="0"/>
        <pt x="1253" y="1615" on="0"/>
        <pt x="1263" y="1606" on="1"/>
        <pt x="1283" y="1590" on="0"/>
        <pt x="1283" y="1546" on="0"/>
        <pt x="1246" y="1515" on="0"/>
        <pt x="1184" y="1518" on="0"/>
        <pt x="1114" y="1522" on="0"/>
        <pt x="1074" y="1524" on="1"/>
        <pt x="990" y="1527" on="0"/>
        <pt x="929" y="1522" on="1"/>
        <pt x="929" y="1446" on="0"/>
        <pt x="928" y="1361" on="1"/>
        <pt x="928" y="1256" on="0"/>
        <pt x="928" y="1145" on="1"/>
        <pt x="926" y="852" on="0"/>
      </contour>
    </TTGlyph>
    <TTGlyph name="Oacute" xMin="89" yMin="-23" xMax="936" yMax="1916">
      <component glyphName="O" x="0" y="0" flags="0x1204"/>
      <component glyphName="acute.cap" x="184" y="0" flags="0x1004"/>
    </TTGlyph>
    <TTGlyph name="Ocircumflex" xMin="89" yMin="-23" xMax="936" yMax="1917">
      <component glyphName="O" x="0" y="0" flags="0x1204"/>
      <component glyphName="circumflex.cap" x="141" y="0" flags="0x1004"/>
    </TTGlyph>
    <TTGlyph name="Odieresis" xMin="89" yMin="-23" xMax="936" yMax="1918">
      <component glyphName="O" x="0" y="0" flags="0x1204"/>
      <component glyphName="dieresis.cap" x="177" y="0" flags="0x1004"/>
    </TTGlyph>
    <TTGlyph name="Ograve" xMin="89" yMin="-23" xMax="936" yMax="1916">
      <component glyphName="O" x="0" y="0" flags="0x1204"/>
      <component glyphName="grave.cap" x="280" y="0" flags="0x1004"/>
    </TTGlyph>
    <TTGlyph name="Oslash" xMin="89" yMin="-152" xMax="936" yMax="1783">
      <contour>
        <pt x="629" y="1514" on="1"/>
        <pt x="582" y="1543" on="0"/>
        <pt x="468" y="1543" on="0"/>
        <pt x="376" y="1484" on="0"/>
        <pt x="301" y="1380" on="0"/>
        <pt x="244" y="1239" on="0"/>
        <pt x="224" y="1158" on="1"/>
        <pt x="185" y="992" on="0"/>
        <pt x="185" y="661" on="0"/>
        <pt x="210" y="437" on="0"/>
        <pt x="254" y="274" on="0"/>
        <pt x="284" y="220" on="1"/>
        <pt x="290" y="209" on="0"/>
        <pt x="296" y="200" on="1"/>
        <pt x="312" y="254" on="0"/>
        <pt x="330" y="312" on="1"/>
        <pt x="366" y="431" on="0"/>
        <pt x="444" y="696" on="0"/>
        <pt x="522" y="966" on="0"/>
        <pt x="597" y="1230" on="0"/>
        <pt x="630" y="1347" on="1"/>
        <pt x="650" y="1419" on="0"/>
        <pt x="668" y="1483" on="1"/>
        <pt x="650" y="1501" on="0"/>
      </contour>
      <contour>
        <pt x="360" y="123" on="1"/>
        <pt x="422" y="73" on="0"/>
        <pt x="505" y="73" on="1"/>
        <pt x="771" y="73" on="0"/>
        <pt x="828" y="562" on="1"/>
        <pt x="841" y="674" on="0"/>
        <pt x="841" y="906" on="0"/>
        <pt x="827" y="1080" on="0"/>
        <pt x="796" y="1241" on="0"/>
        <pt x="772" y="1311" on="1"/>
        <pt x="754" y="1362" on="0"/>
        <pt x="730" y="1404" on="1"/>
        <pt x="720" y="1371" on="0"/>
        <pt x="709" y="1336" on="1"/>
        <pt x="675" y="1222" on="0"/>
        <pt x="600" y="965" on="0"/>
        <pt x="524" y="698" on="0"/>
        <pt x="449" y="432" on="0"/>
        <pt x="414" y="310" on="1"/>
        <pt x="386" y="211" on="0"/>
      </contour>
      <contour>
        <pt x="766" y="1522" on="1"/>
        <pt x="805" y="1478" on="0"/>
        <pt x="834" y="1419" on="1"/>
        <pt x="934" y="1217" on="0"/>
        <pt x="936" y="831" on="1"/>
        <pt x="938" y="425" on="0"/>
        <pt x="820" y="199" on="1"/>
        <pt x="704" y="-23" on="0"/>
        <pt x="495" y="-23" on="1"/>
        <pt x="402" y="-23" on="0"/>
        <pt x="331" y="20" on="1"/>
        <pt x="313" y="-41" on="0"/>
        <pt x="302" y="-76" on="1"/>
        <pt x="285" y="-129" on="0"/>
        <pt x="257" y="-152" on="0"/>
        <pt x="226" y="-152" on="0"/>
        <pt x="201" y="-126" on="0"/>
        <pt x="201" y="-90" on="0"/>
        <pt x="216" y="-48" on="1"/>
        <pt x="230" y="-9" on="0"/>
        <pt x="258" y="81" on="1"/>
        <pt x="218" y="127" on="0"/>
        <pt x="188" y="193" on="1"/>
        <pt x="89" y="409" on="0"/>
        <pt x="89" y="831" on="1"/>
        <pt x="89" y="1164" on="0"/>
        <pt x="202" y="1390" on="1"/>
        <pt x="258" y="1500" on="0"/>
        <pt x="418" y="1631" on="0"/>
        <pt x="522" y="1631" on="1"/>
        <pt x="621" y="1631" on="0"/>
        <pt x="695" y="1583" on="1"/>
        <pt x="718" y="1665" on="0"/>
        <pt x="733" y="1720" on="1"/>
        <pt x="750" y="1783" on="0"/>
        <pt x="786" y="1783" on="1"/>
        <pt x="803" y="1783" on="0"/>
        <pt x="832" y="1758" on="0"/>
        <pt x="832" y="1716" on="0"/>
        <pt x="802" y="1633" on="0"/>
        <pt x="772" y="1541" on="1"/>
        <pt x="769" y="1531" on="0"/>
      </contour>
    </TTGlyph>
    <TTGlyph name="Otilde" xMin="89" yMin="-23" xMax="936" yMax="1918">
      <component glyphName="O" x="0" y="0" flags="0x1204"/>
      <component glyphName="tilde.cap" x="125" y="0" flags="0x1004"/>
    </TTGlyph>
    <TTGlyph name="P" xMin="152" yMin="3" xMax="842" yMax="1618">
      <contour>
        <pt x="270" y="441" on="1"/>
        <pt x="278" y="200" on="0"/>
        <pt x="282" y="70" on="1"/>
        <pt x="283" y="36" on="0"/>
        <pt x="248" y="3" on="0"/>
        <pt x="207" y="3" on="0"/>
        <pt x="175" y="34" on="0"/>
        <pt x="175" y="68" on="1"/>
        <pt x="175" y="294" on="1"/>
        <pt x="174" y="604" on="1"/>
        <pt x="174" y="882" on="1"/>
        <pt x="174" y="1154" on="0"/>
        <pt x="165" y="1302" on="0"/>
        <pt x="161" y="1378" on="0"/>
        <pt x="155" y="1457" on="0"/>
        <pt x="150" y="1533" on="0"/>
        <pt x="165" y="1561" on="0"/>
        <pt x="187" y="1574" on="0"/>
        <pt x="211" y="1578" on="0"/>
        <pt x="250" y="1588" on="1"/>
        <pt x="373" y="1618" on="0"/>
        <pt x="563" y="1618" on="0"/>
        <pt x="695" y="1570" on="0"/>
        <pt x="742" y="1521" on="1"/>
        <pt x="842" y="1418" on="0"/>
        <pt x="842" y="1227" on="1"/>
        <pt x="842" y="967" on="0"/>
        <pt x="660" y="750" on="1"/>
        <pt x="513" y="575" on="0"/>
      </contour>
      <contour>
        <pt x="267" y="536" on="1"/>
        <pt x="750" y="798" on="0"/>
        <pt x="750" y="1218" on="1"/>
        <pt x="750" y="1449" on="0"/>
        <pt x="590" y="1515" on="1"/>
        <pt x="471" y="1564" on="0"/>
        <pt x="301" y="1506" on="1"/>
        <pt x="281" y="1499" on="0"/>
        <pt x="263" y="1492" on="1"/>
        <pt x="256" y="1317" on="0"/>
        <pt x="256" y="1132" on="1"/>
        <pt x="256" y="830" on="1"/>
        <pt x="256" y="811" on="0"/>
        <pt x="258" y="775" on="0"/>
        <pt x="259" y="734" on="0"/>
        <pt x="262" y="669" on="0"/>
        <pt x="264" y="620" on="1"/>
        <pt x="265" y="585" on="0"/>
      </contour>
    </TTGlyph>
    <TTGlyph name="Q" xMin="84" yMin="-281" xMax="930" yMax="1631">
      <contour>
        <pt x="814" y="-218" on="0"/>
        <pt x="814" y="-243" on="0"/>
        <pt x="802" y="-261" on="0"/>
        <pt x="793" y="-268" on="1"/>
        <pt x="774" y="-281" on="0"/>
        <pt x="758" y="-281" on="1"/>
        <pt x="722" y="-281" on="0"/>
        <pt x="689" y="-179" on="0"/>
        <pt x="664" y="-103" on="0"/>
        <pt x="644" y="-44" on="0"/>
        <pt x="634" y="-16" on="1"/>
        <pt x="631" y="-8" on="0"/>
        <pt x="627" y="0" on="1"/>
        <pt x="568" y="-23" on="0"/>
        <pt x="496" y="-23" on="1"/>
        <pt x="391" y="-23" on="0"/>
        <pt x="238" y="75" on="0"/>
        <pt x="187" y="180" on="1"/>
        <pt x="84" y="392" on="0"/>
        <pt x="84" y="843" on="1"/>
        <pt x="84" y="1208" on="0"/>
        <pt x="198" y="1420" on="1"/>
        <pt x="310" y="1631" on="0"/>
        <pt x="515" y="1631" on="1"/>
        <pt x="926" y="1631" on="0"/>
        <pt x="930" y="843" on="1"/>
        <pt x="933" y="214" on="0"/>
        <pt x="703" y="42" on="1"/>
        <pt x="704" y="38" on="0"/>
        <pt x="706" y="34" on="1"/>
        <pt x="719" y="-1" on="0"/>
        <pt x="734" y="-36" on="1"/>
        <pt x="761" y="-103" on="0"/>
      </contour>
      <contour>
        <pt x="496" y="1541" on="1"/>
        <pt x="426" y="1541" on="0"/>
        <pt x="304" y="1426" on="0"/>
        <pt x="264" y="1328" on="1"/>
        <pt x="184" y="1130" on="0"/>
        <pt x="184" y="822" on="1"/>
        <pt x="184" y="148" on="0"/>
        <pt x="416" y="78" on="1"/>
        <pt x="453" y="66" on="0"/>
        <pt x="534" y="66" on="0"/>
        <pt x="576" y="74" on="1"/>
        <pt x="586" y="76" on="0"/>
        <pt x="596" y="79" on="1"/>
        <pt x="576" y="129" on="0"/>
        <pt x="541" y="212" on="1"/>
        <pt x="496" y="319" on="0"/>
        <pt x="498" y="349" on="0"/>
        <pt x="504" y="360" on="1"/>
        <pt x="519" y="384" on="0"/>
        <pt x="542" y="384" on="1"/>
        <pt x="588" y="384" on="0"/>
        <pt x="604" y="341" on="1"/>
        <pt x="628" y="267" on="0"/>
        <pt x="646" y="212" on="1"/>
        <pt x="661" y="163" on="0"/>
        <pt x="674" y="124" on="1"/>
        <pt x="702" y="148" on="0"/>
        <pt x="727" y="187" on="1"/>
        <pt x="760" y="238" on="0"/>
        <pt x="784" y="323" on="1"/>
        <pt x="836" y="502" on="0"/>
        <pt x="836" y="834" on="1"/>
        <pt x="836" y="1132" on="0"/>
        <pt x="762" y="1325" on="1"/>
        <pt x="678" y="1541" on="0"/>
      </contour>
    </TTGlyph>
    <TTGlyph name="R" xMin="152" yMin="3" xMax="838" yMax="1629">
      <contour>
        <pt x="265" y="464" on="1"/>
        <pt x="273" y="237" on="0"/>
        <pt x="278" y="70" on="1"/>
        <pt x="279" y="36" on="0"/>
        <pt x="243" y="3" on="0"/>
        <pt x="202" y="3" on="0"/>
        <pt x="171" y="34" on="0"/>
        <pt x="171" y="65" on="1"/>
        <pt x="171" y="817" on="1"/>
        <pt x="171" y="1207" on="0"/>
        <pt x="152" y="1517" on="1"/>
        <pt x="149" y="1561" on="0"/>
        <pt x="176" y="1578" on="1"/>
        <pt x="187" y="1585" on="0"/>
        <pt x="211" y="1588" on="0"/>
        <pt x="252" y="1600" on="1"/>
        <pt x="355" y="1629" on="0"/>
        <pt x="558" y="1629" on="0"/>
        <pt x="691" y="1584" on="0"/>
        <pt x="738" y="1538" on="1"/>
        <pt x="838" y="1440" on="0"/>
        <pt x="838" y="1249" on="1"/>
        <pt x="838" y="1003" on="0"/>
        <pt x="644" y="774" on="1"/>
        <pt x="613" y="737" on="0"/>
        <pt x="578" y="701" on="1"/>
        <pt x="676" y="401" on="0"/>
        <pt x="808" y="89" on="1"/>
        <pt x="832" y="35" on="0"/>
        <pt x="784" y="10" on="1"/>
        <pt x="772" y="4" on="0"/>
        <pt x="756" y="4" on="1"/>
        <pt x="720" y="4" on="0"/>
        <pt x="705" y="45" on="1"/>
        <pt x="673" y="138" on="0"/>
        <pt x="621" y="309" on="0"/>
        <pt x="596" y="390" on="1"/>
        <pt x="552" y="536" on="0"/>
        <pt x="513" y="640" on="1"/>
        <pt x="403" y="543" on="0"/>
      </contour>
      <contour>
        <pt x="262" y="559" on="1"/>
        <pt x="420" y="651" on="0"/>
        <pt x="558" y="809" on="1"/>
        <pt x="743" y="1024" on="0"/>
        <pt x="743" y="1240" on="1"/>
        <pt x="743" y="1464" on="0"/>
        <pt x="586" y="1529" on="1"/>
        <pt x="500" y="1565" on="0"/>
        <pt x="367" y="1539" on="1"/>
        <pt x="304" y="1527" on="0"/>
        <pt x="264" y="1507" on="1"/>
        <pt x="251" y="1206" on="0"/>
        <pt x="251" y="1002" on="1"/>
        <pt x="251" y="785" on="0"/>
        <pt x="252" y="752" on="0"/>
        <pt x="253" y="725" on="0"/>
        <pt x="255" y="696" on="0"/>
        <pt x="258" y="642" on="0"/>
        <pt x="260" y="599" on="1"/>
        <pt x="261" y="581" on="0"/>
      </contour>
    </TTGlyph>
    <TTGlyph name="Racute" xMin="152" yMin="3" xMax="838" yMax="1916">
      <component glyphName="R" x="0" y="0" flags="0x1204"/>
      <component glyphName="acute.cap" x="147" y="0" flags="0x1004"/>
    </TTGlyph>
    <TTGlyph name="Rcaron" xMin="152" yMin="3" xMax="838" yMax="1907">
      <component glyphName="R" x="0" y="0" flags="0x1204"/>
      <component glyphName="caron.cap" x="147" y="0" flags="0x1004"/>
    </TTGlyph>
    <TTGlyph name="Rcommaaccent" xMin="152" yMin="-520" xMax="838" yMax="1629">
      <component glyphName="R" x="0" y="0" flags="0x1204"/>
      <component glyphName="commaaccent" x="303" y="0" flags="0x1004"/>
    </TTGlyph>
    <TTGlyph name="S" xMin="78" yMin="-30" xMax="757" yMax="1640">
      <contour>
        <pt x="136" y="459" on="1"/>
        <pt x="171" y="459" on="0"/>
        <pt x="189" y="405" on="0"/>
        <pt x="189" y="281" on="0"/>
        <pt x="223" y="173" on="0"/>
        <pt x="253" y="136" on="1"/>
        <pt x="314" y="62" on="0"/>
        <pt x="530" y="62" on="0"/>
        <pt x="658" y="221" on="0"/>
        <pt x="658" y="370" on="1"/>
        <pt x="658" y="569" on="0"/>
        <pt x="489" y="724" on="1"/>
        <pt x="441" y="768" on="0"/>
        <pt x="340" y="854" on="0"/>
        <pt x="244" y="946" on="0"/>
        <pt x="206" y="1002" on="1"/>
        <pt x="123" y="1125" on="0"/>
        <pt x="123" y="1282" on="1"/>
        <pt x="123" y="1443" on="0"/>
        <pt x="218" y="1542" on="1"/>
        <pt x="312" y="1640" on="0"/>
        <pt x="454" y="1640" on="1"/>
        <pt x="576" y="1640" on="0"/>
        <pt x="654" y="1558" on="1"/>
        <pt x="741" y="1464" on="0"/>
        <pt x="734" y="1298" on="1"/>
        <pt x="733" y="1290" on="0"/>
        <pt x="734" y="1272" on="0"/>
        <pt x="729" y="1222" on="0"/>
        <pt x="692" y="1183" on="0"/>
        <pt x="649" y="1183" on="0"/>
        <pt x="619" y="1222" on="0"/>
        <pt x="624" y="1254" on="1"/>
        <pt x="637" y="1327" on="0"/>
        <pt x="637" y="1402" on="0"/>
        <pt x="610" y="1470" on="0"/>
        <pt x="585" y="1496" on="1"/>
        <pt x="531" y="1551" on="0"/>
        <pt x="445" y="1551" on="1"/>
        <pt x="350" y="1551" on="0"/>
        <pt x="290" y="1486" on="1"/>
        <pt x="224" y="1414" on="0"/>
        <pt x="224" y="1204" on="0"/>
        <pt x="270" y="1075" on="0"/>
        <pt x="345" y="971" on="0"/>
        <pt x="441" y="885" on="0"/>
        <pt x="540" y="801" on="0"/>
        <pt x="636" y="712" on="0"/>
        <pt x="674" y="658" on="1"/>
        <pt x="757" y="536" on="0"/>
        <pt x="757" y="377" on="1"/>
        <pt x="757" y="191" on="0"/>
        <pt x="661" y="80" on="1"/>
        <pt x="566" y="-30" on="0"/>
        <pt x="407" y="-30" on="1"/>
        <pt x="259" y="-30" on="0"/>
        <pt x="166" y="84" on="1"/>
        <pt x="78" y="191" on="0"/>
        <pt x="78" y="459" on="0"/>
      </contour>
    </TTGlyph>
    <TTGlyph name="T" xMin="-1" yMin="3" xMax="748" yMax="1626">
      <contour>
        <pt x="321" y="1617" on="1"/>
        <pt x="349" y="1617" on="0"/>
        <pt x="681" y="1625" on="1"/>
        <pt x="727" y="1625" on="0"/>
        <pt x="744" y="1590" on="1"/>
        <pt x="748" y="1580" on="0"/>
        <pt x="748" y="1554" on="0"/>
        <pt x="718" y="1527" on="0"/>
        <pt x="636" y="1529" on="0"/>
        <pt x="559" y="1533" on="0"/>
        <pt x="526" y="1534" on="1"/>
        <pt x="467" y="1536" on="0"/>
        <pt x="425" y="1535" on="1"/>
        <pt x="417" y="1305" on="0"/>
        <pt x="417" y="1036" on="1"/>
        <pt x="417" y="748" on="0"/>
        <pt x="418" y="535" on="0"/>
        <pt x="420" y="438" on="1"/>
        <pt x="423" y="190" on="0"/>
        <pt x="426" y="70" on="1"/>
        <pt x="427" y="36" on="0"/>
        <pt x="394" y="3" on="0"/>
        <pt x="355" y="3" on="0"/>
        <pt x="318" y="34" on="0"/>
        <pt x="318" y="65" on="1"/>
        <pt x="317" y="196" on="1"/>
        <pt x="327" y="1151" on="1"/>
        <pt x="327" y="1418" on="0"/>
        <pt x="320" y="1535" on="1"/>
        <pt x="267" y="1536" on="0"/>
        <pt x="194" y="1531" on="1"/>
        <pt x="108" y="1525" on="0"/>
        <pt x="31" y="1520" on="0"/>
        <pt x="-1" y="1550" on="0"/>
        <pt x="-1" y="1589" on="0"/>
        <pt x="31" y="1627" on="0"/>
        <pt x="102" y="1624" on="0"/>
        <pt x="154" y="1622" on="0"/>
        <pt x="193" y="1620" on="0"/>
        <pt x="223" y="1618" on="0"/>
        <pt x="254" y="1617" on="0"/>
        <pt x="274" y="1617" on="1"/>
      </contour>
    </TTGlyph>
    <TTGlyph name="Thorn" xMin="159" yMin="3" xMax="842" yMax="1657">
      <contour>
        <pt x="173" y="65" on="1"/>
        <pt x="180" y="563" on="1"/>
        <pt x="180" y="677" on="0"/>
        <pt x="174" y="1013" on="0"/>
        <pt x="171" y="1183" on="0"/>
        <pt x="168" y="1347" on="0"/>
        <pt x="166" y="1414" on="1"/>
        <pt x="161" y="1570" on="0"/>
        <pt x="158" y="1610" on="0"/>
        <pt x="168" y="1634" on="0"/>
        <pt x="177" y="1642" on="1"/>
        <pt x="196" y="1657" on="0"/>
        <pt x="219" y="1657" on="1"/>
        <pt x="273" y="1657" on="0"/>
        <pt x="271" y="1594" on="1"/>
        <pt x="270" y="1561" on="0"/>
        <pt x="269" y="1496" on="0"/>
        <pt x="268" y="1456" on="1"/>
        <pt x="266" y="1384" on="0"/>
        <pt x="265" y="1290" on="1"/>
        <pt x="378" y="1364" on="0"/>
        <pt x="482" y="1364" on="1"/>
        <pt x="740" y="1364" on="0"/>
        <pt x="816" y="1148" on="1"/>
        <pt x="842" y="1074" on="0"/>
        <pt x="842" y="856" on="0"/>
        <pt x="735" y="644" on="0"/>
        <pt x="648" y="554" on="1"/>
        <pt x="494" y="393" on="0"/>
        <pt x="266" y="281" on="1"/>
        <pt x="270" y="183" on="0"/>
        <pt x="276" y="70" on="1"/>
        <pt x="277" y="36" on="0"/>
        <pt x="241" y="3" on="0"/>
        <pt x="200" y="3" on="0"/>
        <pt x="173" y="34" on="0"/>
      </contour>
      <contour>
        <pt x="268" y="1191" on="1"/>
        <pt x="263" y="1044" on="0"/>
        <pt x="263" y="723" on="1"/>
        <pt x="261" y="530" on="1"/>
        <pt x="261" y="461" on="0"/>
        <pt x="263" y="378" on="1"/>
        <pt x="433" y="462" on="0"/>
        <pt x="563" y="586" on="1"/>
        <pt x="750" y="765" on="0"/>
        <pt x="750" y="964" on="1"/>
        <pt x="750" y="1193" on="0"/>
        <pt x="590" y="1255" on="1"/>
        <pt x="447" y="1311" on="0"/>
        <pt x="300" y="1216" on="1"/>
        <pt x="283" y="1205" on="0"/>
      </contour>
    </TTGlyph>
    <TTGlyph name="U" xMin="152" yMin="-23" xMax="892" yMax="1619">
      <contour>
        <pt x="173" y="518" on="1"/>
        <pt x="175" y="941" on="1"/>
        <pt x="175" y="1301" on="0"/>
        <pt x="152" y="1551" on="1"/>
        <pt x="149" y="1583" on="0"/>
        <pt x="187" y="1614" on="0"/>
        <pt x="236" y="1614" on="0"/>
        <pt x="276" y="1583" on="0"/>
        <pt x="272" y="1478" on="0"/>
        <pt x="267" y="1317" on="0"/>
        <pt x="265" y="1227" on="1"/>
        <pt x="261" y="1047" on="0"/>
        <pt x="261" y="755" on="0"/>
        <pt x="262" y="648" on="0"/>
        <pt x="263" y="598" on="1"/>
        <pt x="268" y="332" on="0"/>
        <pt x="318" y="190" on="0"/>
        <pt x="351" y="152" on="1"/>
        <pt x="417" y="76" on="0"/>
        <pt x="521" y="76" on="1"/>
        <pt x="628" y="76" on="0"/>
        <pt x="698" y="155" on="1"/>
        <pt x="770" y="237" on="0"/>
        <pt x="782" y="384" on="1"/>
        <pt x="793" y="564" on="0"/>
        <pt x="793" y="782" on="0"/>
        <pt x="792" y="941" on="0"/>
        <pt x="790" y="1040" on="1"/>
        <pt x="782" y="1328" on="0"/>
        <pt x="774" y="1557" on="1"/>
        <pt x="773" y="1589" on="0"/>
        <pt x="809" y="1619" on="0"/>
        <pt x="855" y="1619" on="0"/>
        <pt x="893" y="1589" on="0"/>
        <pt x="892" y="1557" on="1"/>
        <pt x="888" y="1408" on="0"/>
        <pt x="887" y="1118" on="0"/>
        <pt x="886" y="975" on="1"/>
        <pt x="884" y="628" on="0"/>
        <pt x="862" y="325" on="0"/>
        <pt x="817" y="171" on="0"/>
        <pt x="775" y="111" on="1"/>
        <pt x="681" y="-23" on="0"/>
        <pt x="522" y="-23" on="1"/>
        <pt x="259" y="-23" on="0"/>
        <pt x="194" y="268" on="1"/>
        <pt x="173" y="359" on="0"/>
        <pt x="173" y="471" on="1"/>
      </contour>
    </TTGlyph>
    <TTGlyph name="Uacute" xMin="152" yMin="-23" xMax="892" yMax="1916">
      <component glyphName="U" x="0" y="0" flags="0x1204"/>
      <component glyphName="acute.cap" x="191" y="0" flags="0x1004"/>
    </TTGlyph>
    <TTGlyph name="Ucircumflex" xMin="152" yMin="-23" xMax="892" yMax="1917">
      <component glyphName="U" x="0" y="0" flags="0x1204"/>
      <component glyphName="circumflex.cap" x="148" y="0" flags="0x1004"/>
    </TTGlyph>
    <TTGlyph name="Udieresis" xMin="152" yMin="-23" xMax="892" yMax="1918">
      <component glyphName="U" x="0" y="0" flags="0x1204"/>
      <component glyphName="dieresis.cap" x="184" y="0" flags="0x1004"/>
    </TTGlyph>
    <TTGlyph name="Ugrave" xMin="152" yMin="-23" xMax="892" yMax="1916">
      <component glyphName="U" x="0" y="0" flags="0x1204"/>
      <component glyphName="grave.cap" x="287" y="0" flags="0x1004"/>
    </TTGlyph>
    <TTGlyph name="V" xMin="44" yMin="-3" xMax="876" yMax="1630">
      <contour>
        <pt x="850" y="1626" on="0"/>
        <pt x="887" y="1585" on="0"/>
        <pt x="864" y="1507" on="0"/>
        <pt x="833" y="1373" on="0"/>
        <pt x="795" y="1202" on="0"/>
        <pt x="751" y="1001" on="0"/>
        <pt x="704" y="785" on="0"/>
        <pt x="655" y="560" on="0"/>
        <pt x="630" y="451" on="1"/>
        <pt x="574" y="207" on="0"/>
        <pt x="533" y="50" on="1"/>
        <pt x="520" y="-3" on="0"/>
        <pt x="469" y="-3" on="1"/>
        <pt x="415" y="-3" on="0"/>
        <pt x="398" y="50" on="1"/>
        <pt x="384" y="95" on="0"/>
        <pt x="293" y="530" on="0"/>
        <pt x="244" y="755" on="0"/>
        <pt x="191" y="994" on="0"/>
        <pt x="163" y="1112" on="1"/>
        <pt x="105" y="1355" on="0"/>
        <pt x="44" y="1558" on="0"/>
        <pt x="44" y="1601" on="0"/>
        <pt x="73" y="1629" on="0"/>
        <pt x="118" y="1631" on="0"/>
        <pt x="163" y="1599" on="0"/>
        <pt x="182" y="1495" on="0"/>
        <pt x="215" y="1325" on="0"/>
        <pt x="255" y="1128" on="0"/>
        <pt x="300" y="913" on="0"/>
        <pt x="346" y="698" on="0"/>
        <pt x="392" y="491" on="0"/>
        <pt x="414" y="400" on="1"/>
        <pt x="448" y="253" on="0"/>
        <pt x="474" y="160" on="1"/>
        <pt x="498" y="227" on="0"/>
        <pt x="524" y="344" on="1"/>
        <pt x="561" y="513" on="0"/>
        <pt x="576" y="586" on="1"/>
        <pt x="594" y="671" on="0"/>
        <pt x="646" y="954" on="0"/>
        <pt x="684" y="1147" on="0"/>
        <pt x="718" y="1316" on="0"/>
        <pt x="749" y="1467" on="0"/>
        <pt x="766" y="1576" on="0"/>
        <pt x="795" y="1626" on="0"/>
      </contour>
    </TTGlyph>
    <TTGlyph name="W" xMin="50" yMin="-2" xMax="1572" yMax="1632">
      <contour>
        <pt x="107" y="1263" on="0"/>
        <pt x="62" y="1477" on="0"/>
        <pt x="38" y="1589" on="0"/>
        <pt x="77" y="1628" on="0"/>
        <pt x="103" y="1628" on="1"/>
        <pt x="153" y="1628" on="0"/>
        <pt x="178" y="1460" on="0"/>
        <pt x="214" y="1259" on="0"/>
        <pt x="255" y="1039" on="0"/>
        <pt x="299" y="812" on="0"/>
        <pt x="342" y="595" on="0"/>
        <pt x="384" y="399" on="0"/>
        <pt x="402" y="320" on="1"/>
        <pt x="424" y="220" on="0"/>
        <pt x="438" y="167" on="1"/>
        <pt x="466" y="281" on="0"/>
        <pt x="514" y="467" on="1"/>
        <pt x="575" y="702" on="0"/>
        <pt x="644" y="974" on="0"/>
        <pt x="674" y="1100" on="1"/>
        <pt x="738" y="1372" on="0"/>
        <pt x="760" y="1523" on="1"/>
        <pt x="769" y="1598" on="0"/>
        <pt x="825" y="1596" on="1"/>
        <pt x="865" y="1594" on="0"/>
        <pt x="876" y="1542" on="1"/>
        <pt x="926" y="1316" on="0"/>
        <pt x="1030" y="792" on="0"/>
        <pt x="1073" y="578" on="0"/>
        <pt x="1112" y="387" on="0"/>
        <pt x="1128" y="310" on="1"/>
        <pt x="1149" y="211" on="0"/>
        <pt x="1164" y="157" on="1"/>
        <pt x="1181" y="228" on="0"/>
        <pt x="1202" y="316" on="1"/>
        <pt x="1230" y="438" on="0"/>
        <pt x="1292" y="710" on="0"/>
        <pt x="1356" y="994" on="0"/>
        <pt x="1384" y="1126" on="1"/>
        <pt x="1445" y="1414" on="0"/>
        <pt x="1466" y="1560" on="1"/>
        <pt x="1477" y="1636" on="0"/>
        <pt x="1528" y="1632" on="1"/>
        <pt x="1572" y="1630" on="0"/>
        <pt x="1572" y="1578" on="1"/>
        <pt x="1572" y="1558" on="0"/>
        <pt x="1546" y="1448" on="0"/>
        <pt x="1497" y="1225" on="0"/>
        <pt x="1445" y="990" on="0"/>
        <pt x="1391" y="751" on="0"/>
        <pt x="1340" y="527" on="0"/>
        <pt x="1294" y="327" on="0"/>
        <pt x="1275" y="249" on="1"/>
        <pt x="1233" y="76" on="0"/>
        <pt x="1222" y="51" on="1"/>
        <pt x="1200" y="-2" on="0"/>
        <pt x="1163" y="-2" on="1"/>
        <pt x="1119" y="-2" on="0"/>
        <pt x="1104" y="51" on="1"/>
        <pt x="1026" y="326" on="0"/>
        <pt x="915" y="877" on="0"/>
        <pt x="892" y="994" on="1"/>
        <pt x="869" y="1108" on="0"/>
        <pt x="822" y="1363" on="1"/>
        <pt x="751" y="1040" on="0"/>
        <pt x="700" y="838" on="1"/>
        <pt x="645" y="621" on="0"/>
        <pt x="619" y="514" on="1"/>
        <pt x="554" y="248" on="0"/>
        <pt x="510" y="51" on="1"/>
        <pt x="505" y="26" on="0"/>
        <pt x="465" y="-2" on="0"/>
        <pt x="444" y="-2" on="1"/>
        <pt x="394" y="-2" on="0"/>
        <pt x="379" y="51" on="1"/>
        <pt x="286" y="403" on="0"/>
      </contour>
    </TTGlyph>
    <TTGlyph name="X" xMin="129" yMin="-7" xMax="801" yMax="1663">
      <contour>
        <pt x="129" y="1598" on="1"/>
        <pt x="129" y="1663" on="0"/>
        <pt x="179" y="1663" on="1"/>
        <pt x="228" y="1663" on="0"/>
        <pt x="267" y="1531" on="0"/>
        <pt x="321" y="1376" on="0"/>
        <pt x="352" y="1292" on="1"/>
        <pt x="422" y="1102" on="0"/>
        <pt x="467" y="967" on="1"/>
        <pt x="503" y="1074" on="0"/>
        <pt x="558" y="1219" on="1"/>
        <pt x="672" y="1525" on="0"/>
        <pt x="685" y="1577" on="1"/>
        <pt x="705" y="1658" on="0"/>
        <pt x="753" y="1658" on="1"/>
        <pt x="772" y="1658" on="0"/>
        <pt x="801" y="1629" on="0"/>
        <pt x="801" y="1582" on="0"/>
        <pt x="764" y="1496" on="0"/>
        <pt x="701" y="1352" on="0"/>
        <pt x="666" y="1266" on="1"/>
        <pt x="586" y="1071" on="0"/>
        <pt x="509" y="841" on="1"/>
        <pt x="696" y="279" on="0"/>
        <pt x="776" y="94" on="1"/>
        <pt x="791" y="58" on="0"/>
        <pt x="778" y="36" on="1"/>
        <pt x="745" y="-21" on="0"/>
        <pt x="701" y="10" on="1"/>
        <pt x="688" y="19" on="0"/>
        <pt x="670" y="74" on="0"/>
        <pt x="636" y="179" on="0"/>
        <pt x="597" y="303" on="0"/>
        <pt x="553" y="440" on="0"/>
        <pt x="531" y="509" on="1"/>
        <pt x="486" y="649" on="0"/>
        <pt x="460" y="733" on="1"/>
        <pt x="433" y="649" on="0"/>
        <pt x="408" y="568" on="1"/>
        <pt x="377" y="469" on="0"/>
        <pt x="348" y="378" on="1"/>
        <pt x="270" y="140" on="0"/>
        <pt x="225" y="23" on="0"/>
        <pt x="192" y="-7" on="0"/>
        <pt x="159" y="-7" on="0"/>
        <pt x="133" y="26" on="0"/>
        <pt x="133" y="64" on="0"/>
        <pt x="140" y="83" on="1"/>
        <pt x="236" y="310" on="0"/>
        <pt x="416" y="860" on="1"/>
        <pt x="315" y="1165" on="0"/>
        <pt x="140" y="1553" on="1"/>
        <pt x="129" y="1577" on="0"/>
      </contour>
    </TTGlyph>
    <TTGlyph name="Y" xMin="44" yMin="-2" xMax="922" yMax="1643">
      <contour>
        <pt x="543" y="354" on="1"/>
        <pt x="550" y="63" on="1"/>
        <pt x="550" y="18" on="0"/>
        <pt x="507" y="2" on="1"/>
        <pt x="496" y="-2" on="0"/>
        <pt x="466" y="-2" on="0"/>
        <pt x="432" y="31" on="0"/>
        <pt x="438" y="102" on="0"/>
        <pt x="446" y="172" on="0"/>
        <pt x="449" y="208" on="1"/>
        <pt x="456" y="292" on="0"/>
        <pt x="456" y="386" on="0"/>
        <pt x="454" y="454" on="0"/>
        <pt x="452" y="490" on="1"/>
        <pt x="451" y="519" on="0"/>
        <pt x="449" y="555" on="1"/>
        <pt x="416" y="639" on="0"/>
        <pt x="376" y="734" on="1"/>
        <pt x="325" y="858" on="0"/>
        <pt x="270" y="992" on="1"/>
        <pt x="44" y="1536" on="0"/>
        <pt x="44" y="1581" on="1"/>
        <pt x="44" y="1606" on="0"/>
        <pt x="74" y="1636" on="0"/>
        <pt x="121" y="1638" on="0"/>
        <pt x="147" y="1605" on="0"/>
        <pt x="198" y="1429" on="0"/>
        <pt x="298" y="1152" on="0"/>
        <pt x="349" y="1026" on="1"/>
        <pt x="416" y="859" on="0"/>
        <pt x="500" y="671" on="1"/>
        <pt x="515" y="712" on="0"/>
        <pt x="532" y="758" on="1"/>
        <pt x="561" y="833" on="0"/>
        <pt x="622" y="998" on="0"/>
        <pt x="685" y="1171" on="0"/>
        <pt x="714" y="1254" on="1"/>
        <pt x="784" y="1457" on="0"/>
        <pt x="822" y="1592" on="0"/>
        <pt x="848" y="1643" on="0"/>
        <pt x="874" y="1643" on="1"/>
        <pt x="922" y="1643" on="0"/>
        <pt x="922" y="1596" on="1"/>
        <pt x="922" y="1560" on="0"/>
        <pt x="779" y="1188" on="0"/>
        <pt x="738" y="1071" on="0"/>
        <pt x="700" y="968" on="0"/>
        <pt x="656" y="851" on="0"/>
        <pt x="609" y="728" on="0"/>
        <pt x="588" y="672" on="1"/>
        <pt x="564" y="612" on="0"/>
        <pt x="548" y="571" on="1"/>
        <pt x="543" y="393" on="0"/>
      </contour>
    </TTGlyph>
    <TTGlyph name="Yacute" xMin="44" yMin="-2" xMax="922" yMax="1916">
      <component glyphName="Y" x="0" y="0" flags="0x1204"/>
      <component glyphName="acute.cap" x="179" y="0" flags="0x1004"/>
    </TTGlyph>
    <TTGlyph name="Z" xMin="58" yMin="-6" xMax="709" yMax="1620">
      <contour>
        <pt x="173" y="1618" on="1"/>
        <pt x="370" y="1609" on="1"/>
        <pt x="454" y="1609" on="0"/>
        <pt x="547" y="1613" on="0"/>
        <pt x="601" y="1615" on="0"/>
        <pt x="657" y="1625" on="0"/>
        <pt x="709" y="1598" on="0"/>
        <pt x="709" y="1553" on="1"/>
        <pt x="709" y="1509" on="0"/>
        <pt x="488" y="948" on="0"/>
        <pt x="407" y="745" on="0"/>
        <pt x="329" y="546" on="0"/>
        <pt x="257" y="362" on="0"/>
        <pt x="228" y="285" on="1"/>
        <pt x="177" y="145" on="0"/>
        <pt x="160" y="87" on="1"/>
        <pt x="187" y="88" on="1"/>
        <pt x="198" y="88" on="1"/>
        <pt x="437" y="88" on="0"/>
        <pt x="613" y="105" on="1"/>
        <pt x="648" y="108" on="0"/>
        <pt x="683" y="72" on="0"/>
        <pt x="683" y="30" on="0"/>
        <pt x="649" y="-9" on="0"/>
        <pt x="616" y="-6" on="1"/>
        <pt x="558" y="-2" on="0"/>
        <pt x="415" y="-2" on="0"/>
        <pt x="317" y="0" on="0"/>
        <pt x="270" y="0" on="1"/>
        <pt x="158" y="2" on="0"/>
        <pt x="113" y="-5" on="0"/>
        <pt x="88" y="2" on="0"/>
        <pt x="78" y="10" on="1"/>
        <pt x="54" y="31" on="0"/>
        <pt x="63" y="90" on="0"/>
        <pt x="107" y="211" on="0"/>
        <pt x="177" y="383" on="0"/>
        <pt x="265" y="595" on="0"/>
        <pt x="360" y="824" on="0"/>
        <pt x="453" y="1059" on="0"/>
        <pt x="492" y="1168" on="1"/>
        <pt x="572" y="1388" on="0"/>
        <pt x="598" y="1515" on="1"/>
        <pt x="543" y="1517" on="0"/>
        <pt x="448" y="1517" on="1"/>
        <pt x="265" y="1517" on="0"/>
        <pt x="200" y="1514" on="1"/>
        <pt x="98" y="1508" on="0"/>
        <pt x="98" y="1561" on="1"/>
        <pt x="98" y="1584" on="0"/>
        <pt x="138" y="1618" on="0"/>
      </contour>
    </TTGlyph>
    <TTGlyph name="a" xMin="78" yMin="-22" xMax="603" yMax="778">
      <contour>
        <pt x="490" y="205" on="1"/>
        <pt x="489" y="260" on="0"/>
        <pt x="490" y="340" on="1"/>
        <pt x="447" y="355" on="0"/>
        <pt x="381" y="355" on="1"/>
        <pt x="292" y="355" on="0"/>
        <pt x="235" y="312" on="1"/>
        <pt x="207" y="290" on="0"/>
        <pt x="173" y="227" on="0"/>
        <pt x="173" y="128" on="0"/>
        <pt x="241" y="62" on="0"/>
        <pt x="373" y="62" on="0"/>
        <pt x="454" y="152" on="1"/>
        <pt x="477" y="177" on="0"/>
      </contour>
      <contour>
        <pt x="554" y="-21" on="1"/>
        <pt x="494" y="-21" on="0"/>
        <pt x="494" y="70" on="1"/>
        <pt x="494" y="76" on="0"/>
        <pt x="493" y="104" on="1"/>
        <pt x="484" y="93" on="0"/>
        <pt x="473" y="80" on="1"/>
        <pt x="383" y="-22" on="0"/>
        <pt x="277" y="-22" on="1"/>
        <pt x="192" y="-22" on="0"/>
        <pt x="136" y="32" on="1"/>
        <pt x="78" y="88" on="0"/>
        <pt x="78" y="175" on="1"/>
        <pt x="78" y="296" on="0"/>
        <pt x="172" y="370" on="1"/>
        <pt x="214" y="403" on="0"/>
        <pt x="319" y="437" on="0"/>
        <pt x="384" y="437" on="1"/>
        <pt x="438" y="437" on="0"/>
        <pt x="490" y="419" on="1"/>
        <pt x="490" y="525" on="1"/>
        <pt x="490" y="613" on="0"/>
        <pt x="417" y="701" on="0"/>
        <pt x="339" y="701" on="0"/>
        <pt x="290" y="681" on="0"/>
        <pt x="271" y="662" on="1"/>
        <pt x="229" y="621" on="0"/>
        <pt x="223" y="560" on="1"/>
        <pt x="226" y="528" on="0"/>
        <pt x="194" y="503" on="0"/>
        <pt x="175" y="503" on="1"/>
        <pt x="121" y="503" on="0"/>
        <pt x="123" y="575" on="1"/>
        <pt x="125" y="650" on="0"/>
        <pt x="199" y="713" on="1"/>
        <pt x="275" y="778" on="0"/>
        <pt x="369" y="778" on="1"/>
        <pt x="509" y="778" on="0"/>
        <pt x="558" y="639" on="1"/>
        <pt x="575" y="589" on="0"/>
        <pt x="575" y="529" on="1"/>
        <pt x="575" y="426" on="1"/>
        <pt x="574" y="258" on="1"/>
        <pt x="574" y="169" on="1"/>
        <pt x="574" y="109" on="0"/>
        <pt x="603" y="35" on="0"/>
        <pt x="603" y="4" on="0"/>
        <pt x="573" y="-21" on="0"/>
      </contour>
    </TTGlyph>
    <TTGlyph name="aacute" xMin="78" yMin="-22" xMax="603" yMax="1146">
      <component glyphName="a" x="0" y="0" flags="0x1204"/>
      <component glyphName="acute" x="187" y="0" flags="0x1004"/>
    </TTGlyph>
    <TTGlyph name="acircumflex" xMin="78" yMin="-22" xMax="603" yMax="1153">
      <component glyphName="a" x="0" y="0" flags="0x1204"/>
      <component glyphName="circumflex" x="-4" y="0" flags="0x1004"/>
    </TTGlyph>
    <TTGlyph name="acute" xMin="120" yMin="855" xMax="383" yMax="1146">
      <contour>
        <pt x="150" y="944" on="1"/>
        <pt x="242" y="1042" on="0"/>
        <pt x="276" y="1087" on="1"/>
        <pt x="338" y="1171" on="0"/>
        <pt x="380" y="1146" on="1"/>
        <pt x="422" y="1118" on="0"/>
        <pt x="383" y="1067" on="1"/>
        <pt x="355" y="1032" on="0"/>
        <pt x="324" y="1002" on="1"/>
        <pt x="252" y="932" on="0"/>
        <pt x="206" y="880" on="0"/>
        <pt x="175" y="855" on="0"/>
        <pt x="145" y="855" on="0"/>
        <pt x="120" y="874" on="0"/>
        <pt x="120" y="911" on="0"/>
      </contour>
    </TTGlyph>
    <TTGlyph name="acute.cap" xMin="240" yMin="1685" xMax="564" yMax="1916">
      <contour>
        <pt x="334" y="1805" on="0"/>
        <pt x="404" y="1848" on="0"/>
        <pt x="492" y="1921" on="0"/>
        <pt x="552" y="1910" on="0"/>
        <pt x="564" y="1890" on="1"/>
        <pt x="589" y="1850" on="0"/>
        <pt x="538" y="1814" on="1"/>
        <pt x="516" y="1797" on="0"/>
        <pt x="376" y="1729" on="0"/>
        <pt x="320" y="1694" on="0"/>
        <pt x="291" y="1682" on="0"/>
        <pt x="272" y="1685" on="1"/>
        <pt x="235" y="1691" on="0"/>
        <pt x="240" y="1727" on="1"/>
        <pt x="243" y="1744" on="0"/>
        <pt x="279" y="1772" on="0"/>
      </contour>
    </TTGlyph>
    <TTGlyph name="adieresis" xMin="78" yMin="-22" xMax="603" yMax="1066">
      <component glyphName="a" x="0" y="0" flags="0x1204"/>
      <component glyphName="dieresis" x="24" y="0" flags="0x1004"/>
    </TTGlyph>
    <TTGlyph name="ae" xMin="67" yMin="-22" xMax="987" yMax="778">
      <contour>
        <pt x="572" y="429" on="1"/>
        <pt x="719" y="431" on="1"/>
        <pt x="753" y="431" on="0"/>
        <pt x="834" y="435" on="1"/>
        <pt x="873" y="437" on="0"/>
        <pt x="898" y="438" on="1"/>
        <pt x="913" y="601" on="0"/>
        <pt x="835" y="664" on="1"/>
        <pt x="803" y="690" on="0"/>
        <pt x="710" y="690" on="0"/>
        <pt x="652" y="658" on="0"/>
        <pt x="611" y="605" on="0"/>
        <pt x="584" y="538" on="0"/>
        <pt x="576" y="502" on="1"/>
        <pt x="568" y="467" on="0"/>
        <pt x="565" y="429" on="1"/>
      </contour>
      <contour>
        <pt x="480" y="362" on="1"/>
        <pt x="450" y="369" on="0"/>
        <pt x="412" y="369" on="1"/>
        <pt x="360" y="369" on="0"/>
        <pt x="275" y="349" on="0"/>
        <pt x="241" y="328" on="1"/>
        <pt x="164" y="279" on="0"/>
        <pt x="164" y="186" on="1"/>
        <pt x="164" y="128" on="0"/>
        <pt x="226" y="53" on="0"/>
        <pt x="331" y="53" on="0"/>
        <pt x="398" y="95" on="0"/>
        <pt x="422" y="126" on="1"/>
        <pt x="464" y="181" on="0"/>
        <pt x="478" y="247" on="1"/>
      </contour>
      <contour>
        <pt x="547" y="647" on="1"/>
        <pt x="568" y="690" on="0"/>
        <pt x="608" y="724" on="1"/>
        <pt x="670" y="778" on="0"/>
        <pt x="803" y="778" on="0"/>
        <pt x="881" y="747" on="0"/>
        <pt x="934" y="694" on="0"/>
        <pt x="965" y="623" on="0"/>
        <pt x="974" y="584" on="1"/>
        <pt x="987" y="522" on="0"/>
        <pt x="987" y="383" on="0"/>
        <pt x="954" y="354" on="0"/>
        <pt x="921" y="354" on="1"/>
        <pt x="831" y="354" on="1"/>
        <pt x="562" y="359" on="1"/>
        <pt x="563" y="288" on="0"/>
        <pt x="577" y="234" on="1"/>
        <pt x="592" y="177" on="0"/>
        <pt x="618" y="140" on="1"/>
        <pt x="669" y="64" on="0"/>
        <pt x="746" y="64" on="1"/>
        <pt x="834" y="64" on="0"/>
        <pt x="872" y="149" on="1"/>
        <pt x="898" y="202" on="0"/>
        <pt x="926" y="202" on="1"/>
        <pt x="944" y="202" on="0"/>
        <pt x="953" y="190" on="1"/>
        <pt x="981" y="155" on="0"/>
        <pt x="934" y="82" on="1"/>
        <pt x="868" y="-21" on="0"/>
        <pt x="732" y="-21" on="1"/>
        <pt x="620" y="-21" on="0"/>
        <pt x="546" y="98" on="1"/>
        <pt x="532" y="121" on="0"/>
        <pt x="521" y="148" on="1"/>
        <pt x="488" y="73" on="0"/>
        <pt x="428" y="28" on="1"/>
        <pt x="361" y="-22" on="0"/>
        <pt x="231" y="-22" on="0"/>
        <pt x="154" y="5" on="0"/>
        <pt x="126" y="30" on="1"/>
        <pt x="67" y="84" on="0"/>
        <pt x="67" y="236" on="0"/>
        <pt x="116" y="336" on="0"/>
        <pt x="158" y="370" on="1"/>
        <pt x="243" y="439" on="0"/>
        <pt x="373" y="439" on="1"/>
        <pt x="406" y="439" on="1"/>
        <pt x="443" y="439" on="0"/>
        <pt x="480" y="436" on="1"/>
        <pt x="480" y="525" on="1"/>
        <pt x="480" y="675" on="0"/>
        <pt x="398" y="694" on="1"/>
        <pt x="373" y="699" on="0"/>
        <pt x="322" y="699" on="0"/>
        <pt x="277" y="683" on="0"/>
        <pt x="260" y="666" on="1"/>
        <pt x="219" y="628" on="0"/>
        <pt x="218" y="583" on="1"/>
        <pt x="218" y="506" on="0"/>
        <pt x="171" y="511" on="1"/>
        <pt x="151" y="513" on="0"/>
        <pt x="122" y="545" on="0"/>
        <pt x="124" y="614" on="0"/>
        <pt x="161" y="687" on="0"/>
        <pt x="192" y="716" on="1"/>
        <pt x="262" y="778" on="0"/>
        <pt x="356" y="778" on="1"/>
        <pt x="517" y="778" on="0"/>
      </contour>
    </TTGlyph>
    <TTGlyph name="agrave" xMin="78" yMin="-22" xMax="603" yMax="1146">
      <component glyphName="a" x="0" y="0" flags="0x1204"/>
      <component glyphName="grave" x="106" y="0" flags="0x1004"/>
    </TTGlyph>
    <TTGlyph name="ampersand" xMin="148" yMin="-25" xMax="919" yMax="1667">
      <contour>
        <pt x="323" y="103" on="0"/>
        <pt x="387" y="72" on="0"/>
        <pt x="513" y="72" on="0"/>
        <pt x="576" y="120" on="1"/>
        <pt x="626" y="158" on="0"/>
        <pt x="654" y="220" on="1"/>
        <pt x="646" y="232" on="0"/>
        <pt x="637" y="246" on="1"/>
        <pt x="618" y="276" on="0"/>
        <pt x="580" y="335" on="0"/>
        <pt x="547" y="388" on="0"/>
        <pt x="523" y="424" on="0"/>
        <pt x="488" y="477" on="0"/>
        <pt x="469" y="506" on="1"/>
        <pt x="435" y="557" on="0"/>
        <pt x="410" y="598" on="1"/>
        <pt x="394" y="574" on="0"/>
        <pt x="377" y="548" on="1"/>
        <pt x="348" y="506" on="0"/>
        <pt x="322" y="460" on="1"/>
        <pt x="260" y="350" on="0"/>
        <pt x="260" y="231" on="0"/>
        <pt x="281" y="158" on="0"/>
      </contour>
      <contour>
        <pt x="245" y="1232" on="1"/>
        <pt x="245" y="1146" on="0"/>
        <pt x="277" y="1023" on="0"/>
        <pt x="332" y="909" on="0"/>
        <pt x="368" y="852" on="1"/>
        <pt x="396" y="806" on="0"/>
        <pt x="426" y="753" on="1"/>
        <pt x="446" y="781" on="0"/>
        <pt x="468" y="808" on="1"/>
        <pt x="497" y="844" on="0"/>
        <pt x="552" y="918" on="0"/>
        <pt x="600" y="996" on="0"/>
        <pt x="618" y="1042" on="1"/>
        <pt x="657" y="1140" on="0"/>
        <pt x="657" y="1344" on="0"/>
        <pt x="629" y="1460" on="0"/>
        <pt x="603" y="1498" on="1"/>
        <pt x="552" y="1571" on="0"/>
        <pt x="457" y="1571" on="1"/>
        <pt x="373" y="1571" on="0"/>
        <pt x="314" y="1492" on="1"/>
        <pt x="245" y="1397" on="0"/>
      </contour>
      <contour>
        <pt x="810" y="586" on="1"/>
        <pt x="811" y="554" on="1"/>
        <pt x="811" y="363" on="0"/>
        <pt x="754" y="228" on="1"/>
        <pt x="820" y="135" on="0"/>
        <pt x="892" y="74" on="1"/>
        <pt x="919" y="51" on="0"/>
        <pt x="919" y="4" on="0"/>
        <pt x="892" y="-25" on="0"/>
        <pt x="875" y="-25" on="1"/>
        <pt x="839" y="-25" on="0"/>
        <pt x="815" y="14" on="1"/>
        <pt x="775" y="74" on="0"/>
        <pt x="745" y="114" on="1"/>
        <pt x="725" y="141" on="0"/>
        <pt x="713" y="157" on="1"/>
        <pt x="668" y="80" on="0"/>
        <pt x="599" y="34" on="1"/>
        <pt x="519" y="-18" on="0"/>
        <pt x="362" y="-18" on="0"/>
        <pt x="266" y="22" on="0"/>
        <pt x="232" y="59" on="1"/>
        <pt x="163" y="136" on="0"/>
        <pt x="163" y="266" on="1"/>
        <pt x="163" y="398" on="0"/>
        <pt x="314" y="598" on="1"/>
        <pt x="343" y="636" on="0"/>
        <pt x="367" y="671" on="1"/>
        <pt x="329" y="735" on="0"/>
        <pt x="294" y="792" on="1"/>
        <pt x="251" y="859" on="0"/>
        <pt x="219" y="924" on="1"/>
        <pt x="148" y="1067" on="0"/>
        <pt x="148" y="1318" on="0"/>
        <pt x="201" y="1494" on="0"/>
        <pt x="244" y="1552" on="1"/>
        <pt x="331" y="1667" on="0"/>
        <pt x="462" y="1667" on="1"/>
        <pt x="664" y="1667" on="0"/>
        <pt x="724" y="1445" on="1"/>
        <pt x="745" y="1367" on="0"/>
        <pt x="745" y="1183" on="0"/>
        <pt x="718" y="1060" on="0"/>
        <pt x="672" y="955" on="0"/>
        <pt x="611" y="864" on="0"/>
        <pt x="546" y="781" on="0"/>
        <pt x="513" y="741" on="1"/>
        <pt x="489" y="712" on="0"/>
        <pt x="468" y="683" on="1"/>
        <pt x="495" y="636" on="0"/>
        <pt x="514" y="605" on="1"/>
        <pt x="537" y="566" on="0"/>
        <pt x="569" y="511" on="0"/>
        <pt x="594" y="469" on="0"/>
        <pt x="631" y="411" on="0"/>
        <pt x="650" y="381" on="1"/>
        <pt x="678" y="338" on="0"/>
        <pt x="701" y="305" on="1"/>
        <pt x="721" y="370" on="0"/>
        <pt x="721" y="447" on="1"/>
        <pt x="721" y="540" on="0"/>
        <pt x="711" y="611" on="0"/>
        <pt x="741" y="646" on="0"/>
        <pt x="779" y="646" on="0"/>
        <pt x="809" y="617" on="0"/>
      </contour>
    </TTGlyph>
    <TTGlyph name="aring" xMin="78" yMin="-22" xMax="603" yMax="1273">
      <component glyphName="a" x="0" y="0" flags="0x1204"/>
      <component glyphName="ring" x="-5" y="0" flags="0x1004"/>
    </TTGlyph>
    <TTGlyph name="asciicircum" xMin="99" yMin="294" xMax="821" yMax="1487">
      <contour>
        <pt x="821" y="356" on="0"/>
        <pt x="821" y="318" on="0"/>
        <pt x="788" y="296" on="0"/>
        <pt x="773" y="296" on="1"/>
        <pt x="736" y="296" on="0"/>
        <pt x="722" y="327" on="1"/>
        <pt x="705" y="373" on="0"/>
        <pt x="608" y="770" on="0"/>
        <pt x="563" y="952" on="0"/>
        <pt x="517" y="1127" on="0"/>
        <pt x="496" y="1200" on="1"/>
        <pt x="470" y="1293" on="0"/>
        <pt x="452" y="1344" on="1"/>
        <pt x="425" y="1275" on="0"/>
        <pt x="394" y="1144" on="1"/>
        <pt x="348" y="951" on="0"/>
        <pt x="308" y="775" on="0"/>
        <pt x="270" y="604" on="0"/>
        <pt x="254" y="532" on="1"/>
        <pt x="216" y="368" on="0"/>
        <pt x="204" y="340" on="1"/>
        <pt x="185" y="294" on="0"/>
        <pt x="140" y="294" on="1"/>
        <pt x="124" y="294" on="0"/>
        <pt x="99" y="316" on="0"/>
        <pt x="99" y="330" on="1"/>
        <pt x="99" y="360" on="0"/>
        <pt x="124" y="404" on="0"/>
        <pt x="158" y="510" on="0"/>
        <pt x="196" y="654" on="0"/>
        <pt x="237" y="825" on="0"/>
        <pt x="279" y="1001" on="0"/>
        <pt x="320" y="1172" on="0"/>
        <pt x="338" y="1244" on="1"/>
        <pt x="380" y="1407" on="0"/>
        <pt x="413" y="1473" on="0"/>
        <pt x="443" y="1487" on="0"/>
        <pt x="456" y="1487" on="1"/>
        <pt x="487" y="1487" on="0"/>
        <pt x="504" y="1446" on="1"/>
        <pt x="530" y="1385" on="0"/>
        <pt x="630" y="1007" on="0"/>
        <pt x="676" y="835" on="0"/>
        <pt x="720" y="667" on="0"/>
        <pt x="740" y="594" on="1"/>
        <pt x="786" y="433" on="0"/>
      </contour>
    </TTGlyph>
    <TTGlyph name="asciitilde" xMin="76" yMin="301" xMax="897" yMax="590">
      <contour>
        <pt x="629" y="395" on="0"/>
        <pt x="689" y="390" on="0"/>
        <pt x="730" y="404" on="0"/>
        <pt x="746" y="417" on="1"/>
        <pt x="775" y="440" on="0"/>
        <pt x="787" y="477" on="1"/>
        <pt x="810" y="542" on="0"/>
        <pt x="854" y="542" on="1"/>
        <pt x="871" y="542" on="0"/>
        <pt x="897" y="507" on="0"/>
        <pt x="897" y="465" on="0"/>
        <pt x="872" y="414" on="0"/>
        <pt x="831" y="362" on="0"/>
        <pt x="802" y="341" on="1"/>
        <pt x="736" y="294" on="0"/>
        <pt x="651" y="301" on="1"/>
        <pt x="562" y="308" on="0"/>
        <pt x="482" y="402" on="1"/>
        <pt x="403" y="493" on="0"/>
        <pt x="319" y="502" on="1"/>
        <pt x="240" y="508" on="0"/>
        <pt x="201" y="446" on="1"/>
        <pt x="190" y="428" on="0"/>
        <pt x="177" y="377" on="0"/>
        <pt x="139" y="346" on="0"/>
        <pt x="103" y="346" on="0"/>
        <pt x="76" y="372" on="0"/>
        <pt x="76" y="388" on="1"/>
        <pt x="76" y="430" on="0"/>
        <pt x="101" y="478" on="0"/>
        <pt x="146" y="530" on="0"/>
        <pt x="177" y="550" on="1"/>
        <pt x="248" y="597" on="0"/>
        <pt x="333" y="590" on="1"/>
        <pt x="422" y="581" on="0"/>
        <pt x="508" y="490" on="1"/>
        <pt x="564" y="432" on="0"/>
      </contour>
    </TTGlyph>
    <TTGlyph name="asterisk" xMin="109" yMin="1079" xMax="780" yMax="1749">
      <contour>
        <pt x="361" y="1366" on="1"/>
        <pt x="309" y="1390" on="0"/>
        <pt x="210" y="1405" on="1"/>
        <pt x="145" y="1415" on="0"/>
        <pt x="109" y="1460" on="0"/>
        <pt x="109" y="1489" on="0"/>
        <pt x="123" y="1514" on="0"/>
        <pt x="134" y="1523" on="1"/>
        <pt x="161" y="1545" on="0"/>
        <pt x="214" y="1520" on="0"/>
        <pt x="271" y="1491" on="0"/>
        <pt x="300" y="1477" on="1"/>
        <pt x="352" y="1451" on="0"/>
        <pt x="388" y="1437" on="1"/>
        <pt x="382" y="1564" on="0"/>
        <pt x="374" y="1622" on="1"/>
        <pt x="366" y="1686" on="0"/>
        <pt x="374" y="1718" on="0"/>
        <pt x="382" y="1728" on="1"/>
        <pt x="398" y="1749" on="0"/>
        <pt x="437" y="1749" on="0"/>
        <pt x="461" y="1738" on="0"/>
        <pt x="470" y="1728" on="1"/>
        <pt x="491" y="1703" on="0"/>
        <pt x="480" y="1595" on="0"/>
        <pt x="472" y="1530" on="1"/>
        <pt x="464" y="1476" on="0"/>
        <pt x="460" y="1433" on="1"/>
        <pt x="522" y="1453" on="0"/>
        <pt x="585" y="1484" on="1"/>
        <pt x="658" y="1521" on="0"/>
        <pt x="674" y="1530" on="1"/>
        <pt x="700" y="1547" on="0"/>
        <pt x="749" y="1547" on="0"/>
        <pt x="780" y="1512" on="0"/>
        <pt x="780" y="1491" on="1"/>
        <pt x="780" y="1442" on="0"/>
        <pt x="721" y="1427" on="1"/>
        <pt x="588" y="1395" on="0"/>
        <pt x="489" y="1365" on="1"/>
        <pt x="539" y="1302" on="0"/>
        <pt x="638" y="1198" on="1"/>
        <pt x="668" y="1166" on="0"/>
        <pt x="668" y="1109" on="0"/>
        <pt x="639" y="1079" on="0"/>
        <pt x="622" y="1079" on="1"/>
        <pt x="581" y="1079" on="0"/>
        <pt x="536" y="1152" on="0"/>
        <pt x="496" y="1216" on="0"/>
        <pt x="477" y="1246" on="1"/>
        <pt x="447" y="1292" on="0"/>
        <pt x="427" y="1322" on="1"/>
        <pt x="409" y="1289" on="0"/>
        <pt x="391" y="1252" on="1"/>
        <pt x="319" y="1105" on="0"/>
        <pt x="282" y="1080" on="0"/>
        <pt x="244" y="1080" on="0"/>
        <pt x="208" y="1117" on="0"/>
        <pt x="208" y="1137" on="1"/>
        <pt x="208" y="1179" on="0"/>
        <pt x="243" y="1201" on="1"/>
        <pt x="304" y="1251" on="0"/>
      </contour>
    </TTGlyph>
    <TTGlyph name="at" xMin="88" yMin="-232" xMax="1150" yMax="1103">
      <contour>
        <pt x="854" y="100" on="1"/>
        <pt x="742" y="100" on="0"/>
        <pt x="742" y="269" on="1"/>
        <pt x="742" y="283" on="0"/>
        <pt x="748" y="346" on="0"/>
        <pt x="750" y="370" on="1"/>
        <pt x="751" y="380" on="0"/>
        <pt x="752" y="389" on="1"/>
        <pt x="714" y="271" on="0"/>
        <pt x="678" y="217" on="1"/>
        <pt x="633" y="149" on="0"/>
        <pt x="553" y="93" on="0"/>
        <pt x="471" y="93" on="0"/>
        <pt x="410" y="125" on="0"/>
        <pt x="385" y="156" on="1"/>
        <pt x="330" y="223" on="0"/>
        <pt x="330" y="416" on="0"/>
        <pt x="363" y="543" on="0"/>
        <pt x="417" y="641" on="0"/>
        <pt x="488" y="712" on="0"/>
        <pt x="527" y="735" on="1"/>
        <pt x="603" y="780" on="0"/>
        <pt x="677" y="780" on="1"/>
        <pt x="744" y="780" on="0"/>
        <pt x="800" y="730" on="1"/>
        <pt x="802" y="728" on="0"/>
        <pt x="804" y="726" on="1"/>
        <pt x="810" y="732" on="0"/>
        <pt x="816" y="736" on="1"/>
        <pt x="837" y="748" on="0"/>
        <pt x="868" y="748" on="0"/>
        <pt x="895" y="721" on="0"/>
        <pt x="895" y="680" on="0"/>
        <pt x="885" y="649" on="0"/>
        <pt x="876" y="610" on="0"/>
        <pt x="856" y="533" on="0"/>
        <pt x="846" y="484" on="1"/>
        <pt x="819" y="359" on="0"/>
        <pt x="819" y="283" on="1"/>
        <pt x="819" y="179" on="0"/>
        <pt x="877" y="179" on="1"/>
        <pt x="899" y="179" on="0"/>
        <pt x="961" y="227" on="0"/>
        <pt x="990" y="278" on="1"/>
        <pt x="1057" y="400" on="0"/>
        <pt x="1057" y="600" on="1"/>
        <pt x="1057" y="1015" on="0"/>
        <pt x="689" y="1015" on="1"/>
        <pt x="492" y="1015" on="0"/>
        <pt x="344" y="844" on="1"/>
        <pt x="179" y="655" on="0"/>
        <pt x="179" y="338" on="1"/>
        <pt x="179" y="109" on="0"/>
        <pt x="296" y="-20" on="1"/>
        <pt x="415" y="-150" on="0"/>
        <pt x="627" y="-150" on="1"/>
        <pt x="745" y="-150" on="0"/>
        <pt x="799" y="-126" on="1"/>
        <pt x="873" y="-92" on="0"/>
        <pt x="925" y="-36" on="1"/>
        <pt x="934" y="-22" on="0"/>
        <pt x="954" y="10" on="0"/>
        <pt x="965" y="22" on="1"/>
        <pt x="990" y="51" on="0"/>
        <pt x="1016" y="46" on="1"/>
        <pt x="1097" y="30" on="0"/>
        <pt x="1018" y="-80" on="1"/>
        <pt x="957" y="-164" on="0"/>
        <pt x="811" y="-208" on="1"/>
        <pt x="734" y="-232" on="0"/>
        <pt x="627" y="-232" on="1"/>
        <pt x="395" y="-232" on="0"/>
        <pt x="250" y="-98" on="1"/>
        <pt x="88" y="53" on="0"/>
        <pt x="88" y="335" on="1"/>
        <pt x="88" y="680" on="0"/>
        <pt x="276" y="898" on="1"/>
        <pt x="453" y="1103" on="0"/>
        <pt x="700" y="1103" on="1"/>
        <pt x="885" y="1103" on="0"/>
        <pt x="1006" y="994" on="1"/>
        <pt x="1150" y="865" on="0"/>
        <pt x="1150" y="616" on="1"/>
        <pt x="1150" y="403" on="0"/>
        <pt x="1066" y="252" on="1"/>
        <pt x="980" y="100" on="0"/>
      </contour>
      <contour>
        <pt x="769" y="647" on="1"/>
        <pt x="742" y="687" on="0"/>
        <pt x="669" y="687" on="1"/>
        <pt x="564" y="687" on="0"/>
        <pt x="420" y="494" on="0"/>
        <pt x="420" y="349" on="1"/>
        <pt x="420" y="264" on="0"/>
        <pt x="472" y="183" on="0"/>
        <pt x="554" y="183" on="0"/>
        <pt x="632" y="271" on="0"/>
        <pt x="666" y="342" on="1"/>
        <pt x="726" y="468" on="0"/>
      </contour>
    </TTGlyph>
    <TTGlyph name="atilde" xMin="78" yMin="-22" xMax="603" yMax="1079">
      <component glyphName="a" x="0" y="0" flags="0x1204"/>
      <component glyphName="tilde" x="-37" y="0" flags="0x1004"/>
    </TTGlyph>
    <TTGlyph name="b" xMin="113" yMin="-21" xMax="671" yMax="1757">
      <contour>
        <pt x="121" y="37" on="1"/>
        <pt x="130" y="902" on="1"/>
        <pt x="130" y="1032" on="1"/>
        <pt x="130" y="1095" on="0"/>
        <pt x="128" y="1215" on="0"/>
        <pt x="126" y="1335" on="0"/>
        <pt x="124" y="1399" on="1"/>
        <pt x="118" y="1538" on="0"/>
        <pt x="108" y="1707" on="0"/>
        <pt x="119" y="1735" on="0"/>
        <pt x="128" y="1743" on="1"/>
        <pt x="142" y="1757" on="0"/>
        <pt x="170" y="1757" on="1"/>
        <pt x="219" y="1757" on="0"/>
        <pt x="219" y="1674" on="1"/>
        <pt x="214" y="1255" on="1"/>
        <pt x="214" y="1054" on="1"/>
        <pt x="214" y="993" on="0"/>
        <pt x="213" y="857" on="0"/>
        <pt x="214" y="789" on="1"/>
        <pt x="215" y="647" on="0"/>
        <pt x="215" y="579" on="1"/>
        <pt x="246" y="657" on="0"/>
        <pt x="304" y="712" on="1"/>
        <pt x="377" y="783" on="0"/>
        <pt x="457" y="783" on="1"/>
        <pt x="609" y="783" on="0"/>
        <pt x="656" y="628" on="1"/>
        <pt x="671" y="578" on="0"/>
        <pt x="671" y="437" on="0"/>
        <pt x="630" y="297" on="0"/>
        <pt x="560" y="180" on="0"/>
        <pt x="466" y="87" on="0"/>
        <pt x="414" y="54" on="1"/>
        <pt x="284" y="-29" on="0"/>
        <pt x="170" y="-21" on="1"/>
        <pt x="121" y="-17" on="0"/>
      </contour>
      <contour>
        <pt x="260" y="547" on="0"/>
        <pt x="219" y="453" on="0"/>
        <pt x="214" y="372" on="0"/>
        <pt x="212" y="313" on="0"/>
        <pt x="211" y="273" on="0"/>
        <pt x="211" y="260" on="1"/>
        <pt x="211" y="237" on="1"/>
        <pt x="211" y="212" on="0"/>
        <pt x="215" y="60" on="1"/>
        <pt x="260" y="58" on="0"/>
        <pt x="312" y="86" on="1"/>
        <pt x="377" y="120" on="0"/>
        <pt x="464" y="192" on="0"/>
        <pt x="499" y="243" on="1"/>
        <pt x="579" y="360" on="0"/>
        <pt x="579" y="508" on="1"/>
        <pt x="579" y="596" on="0"/>
        <pt x="511" y="680" on="0"/>
        <pt x="410" y="680" on="0"/>
        <pt x="325" y="627" on="0"/>
      </contour>
    </TTGlyph>
    <TTGlyph name="backslash" xMin="72" yMin="-188" xMax="645" yMax="1786">
      <contour>
        <pt x="603" y="-188" on="1"/>
        <pt x="566" y="-188" on="0"/>
        <pt x="551" y="-139" on="1"/>
        <pt x="497" y="33" on="0"/>
        <pt x="343" y="678" on="0"/>
        <pt x="278" y="952" on="0"/>
        <pt x="215" y="1216" on="0"/>
        <pt x="185" y="1332" on="1"/>
        <pt x="119" y="1587" on="0"/>
        <pt x="96" y="1648" on="1"/>
        <pt x="72" y="1713" on="0"/>
        <pt x="72" y="1760" on="0"/>
        <pt x="98" y="1786" on="0"/>
        <pt x="133" y="1786" on="0"/>
        <pt x="168" y="1756" on="0"/>
        <pt x="189" y="1660" on="0"/>
        <pt x="233" y="1463" on="0"/>
        <pt x="288" y="1223" on="0"/>
        <pt x="351" y="953" on="0"/>
        <pt x="418" y="676" on="0"/>
        <pt x="487" y="404" on="0"/>
        <pt x="520" y="282" on="1"/>
        <pt x="586" y="32" on="0"/>
        <pt x="614" y="-43" on="1"/>
        <pt x="645" y="-126" on="0"/>
        <pt x="645" y="-162" on="0"/>
        <pt x="620" y="-188" on="0"/>
      </contour>
    </TTGlyph>
    <TTGlyph name="bar" xMin="159" yMin="-219" xMax="270" yMax="1875">
      <contour>
        <pt x="164" y="-154" on="1"/>
        <pt x="174" y="190" on="0"/>
        <pt x="174" y="891" on="0"/>
        <pt x="173" y="1161" on="0"/>
        <pt x="172" y="1294" on="1"/>
        <pt x="168" y="1583" on="0"/>
        <pt x="159" y="1801" on="1"/>
        <pt x="157" y="1839" on="0"/>
        <pt x="190" y="1875" on="0"/>
        <pt x="236" y="1875" on="0"/>
        <pt x="272" y="1837" on="0"/>
        <pt x="267" y="1722" on="0"/>
        <pt x="263" y="1580" on="0"/>
        <pt x="260" y="1442" on="0"/>
        <pt x="257" y="1302" on="0"/>
        <pt x="256" y="1225" on="1"/>
        <pt x="255" y="994" on="0"/>
        <pt x="255" y="759" on="0"/>
        <pt x="256" y="541" on="0"/>
        <pt x="257" y="338" on="0"/>
        <pt x="259" y="154" on="0"/>
        <pt x="260" y="78" on="1"/>
        <pt x="264" y="-99" on="0"/>
        <pt x="268" y="-187" on="0"/>
        <pt x="235" y="-219" on="0"/>
        <pt x="196" y="-219" on="0"/>
        <pt x="163" y="-187" on="0"/>
      </contour>
    </TTGlyph>
    <TTGlyph name="braceleft" xMin="78" yMin="-239" xMax="591" yMax="1877">
      <contour>
        <pt x="269" y="171" on="1"/>
        <pt x="269" y="436" on="0"/>
        <pt x="236" y="548" on="0"/>
        <pt x="191" y="575" on="0"/>
        <pt x="155" y="575" on="1"/>
        <pt x="121" y="570" on="0"/>
        <pt x="78" y="610" on="0"/>
        <pt x="78" y="658" on="0"/>
        <pt x="123" y="699" on="0"/>
        <pt x="174" y="699" on="1"/>
        <pt x="244" y="714" on="0"/>
        <pt x="265" y="892" on="1"/>
        <pt x="283" y="1046" on="0"/>
        <pt x="283" y="1498" on="1"/>
        <pt x="283" y="1794" on="0"/>
        <pt x="424" y="1857" on="1"/>
        <pt x="469" y="1877" on="0"/>
        <pt x="558" y="1877" on="0"/>
        <pt x="591" y="1847" on="0"/>
        <pt x="591" y="1809" on="0"/>
        <pt x="555" y="1778" on="0"/>
        <pt x="486" y="1778" on="0"/>
        <pt x="432" y="1753" on="0"/>
        <pt x="412" y="1716" on="1"/>
        <pt x="372" y="1638" on="0"/>
        <pt x="372" y="1429" on="1"/>
        <pt x="372" y="1357" on="0"/>
        <pt x="375" y="1183" on="0"/>
        <pt x="371" y="1007" on="0"/>
        <pt x="354" y="841" on="0"/>
        <pt x="334" y="777" on="1"/>
        <pt x="298" y="665" on="0"/>
        <pt x="228" y="642" on="1"/>
        <pt x="269" y="635" on="0"/>
        <pt x="294" y="608" on="1"/>
        <pt x="328" y="569" on="0"/>
        <pt x="355" y="423" on="0"/>
        <pt x="355" y="320" on="1"/>
        <pt x="355" y="92" on="1"/>
        <pt x="355" y="-18" on="0"/>
        <pt x="406" y="-108" on="0"/>
        <pt x="471" y="-147" on="0"/>
        <pt x="510" y="-147" on="1"/>
        <pt x="578" y="-147" on="0"/>
        <pt x="578" y="-189" on="1"/>
        <pt x="578" y="-208" on="0"/>
        <pt x="540" y="-239" on="0"/>
        <pt x="460" y="-239" on="0"/>
        <pt x="378" y="-210" on="0"/>
        <pt x="344" y="-173" on="1"/>
        <pt x="265" y="-86" on="0"/>
        <pt x="269" y="94" on="1"/>
      </contour>
    </TTGlyph>
    <TTGlyph name="braceright" xMin="78" yMin="-239" xMax="591" yMax="1877">
      <contour>
        <pt x="400" y="94" on="1"/>
        <pt x="402" y="-88" on="0"/>
        <pt x="324" y="-173" on="1"/>
        <pt x="265" y="-239" on="0"/>
        <pt x="171" y="-239" on="1"/>
        <pt x="129" y="-239" on="0"/>
        <pt x="91" y="-208" on="0"/>
        <pt x="91" y="-173" on="0"/>
        <pt x="120" y="-147" on="0"/>
        <pt x="198" y="-147" on="0"/>
        <pt x="263" y="-108" on="0"/>
        <pt x="282" y="-76" on="1"/>
        <pt x="314" y="-18" on="0"/>
        <pt x="314" y="99" on="1"/>
        <pt x="314" y="318" on="1"/>
        <pt x="314" y="533" on="0"/>
        <pt x="376" y="604" on="1"/>
        <pt x="398" y="630" on="0"/>
        <pt x="436" y="639" on="1"/>
        <pt x="327" y="667" on="0"/>
        <pt x="303" y="916" on="1"/>
        <pt x="289" y="1066" on="0"/>
        <pt x="297" y="1357" on="0"/>
        <pt x="297" y="1541" on="0"/>
        <pt x="276" y="1678" on="0"/>
        <pt x="256" y="1716" on="1"/>
        <pt x="224" y="1778" on="0"/>
        <pt x="150" y="1778" on="1"/>
        <pt x="114" y="1778" on="0"/>
        <pt x="78" y="1809" on="0"/>
        <pt x="78" y="1847" on="0"/>
        <pt x="111" y="1877" on="0"/>
        <pt x="200" y="1877" on="0"/>
        <pt x="290" y="1837" on="0"/>
        <pt x="322" y="1792" on="1"/>
        <pt x="386" y="1700" on="0"/>
        <pt x="386" y="1283" on="0"/>
        <pt x="392" y="986" on="0"/>
        <pt x="415" y="797" on="0"/>
        <pt x="458" y="707" on="0"/>
        <pt x="495" y="699" on="1"/>
        <pt x="546" y="699" on="0"/>
        <pt x="591" y="658" on="0"/>
        <pt x="591" y="610" on="0"/>
        <pt x="548" y="570" on="0"/>
        <pt x="514" y="575" on="1"/>
        <pt x="478" y="575" on="0"/>
        <pt x="433" y="548" on="0"/>
        <pt x="420" y="506" on="1"/>
        <pt x="400" y="436" on="0"/>
        <pt x="400" y="171" on="1"/>
      </contour>
    </TTGlyph>
    <TTGlyph name="bracketleft" xMin="157" yMin="-229" xMax="533" yMax="1875">
      <contour>
        <pt x="243" y="1866" on="0"/>
        <pt x="351" y="1866" on="0"/>
        <pt x="429" y="1873" on="0"/>
        <pt x="474" y="1877" on="0"/>
        <pt x="502" y="1868" on="0"/>
        <pt x="512" y="1860" on="1"/>
        <pt x="531" y="1844" on="0"/>
        <pt x="531" y="1799" on="0"/>
        <pt x="496" y="1767" on="0"/>
        <pt x="422" y="1773" on="0"/>
        <pt x="369" y="1778" on="0"/>
        <pt x="330" y="1778" on="0"/>
        <pt x="301" y="1777" on="0"/>
        <pt x="284" y="1776" on="1"/>
        <pt x="277" y="1776" on="0"/>
        <pt x="270" y="1776" on="1"/>
        <pt x="270" y="1711" on="0"/>
        <pt x="270" y="1622" on="1"/>
        <pt x="269" y="1495" on="0"/>
        <pt x="268" y="1175" on="0"/>
        <pt x="266" y="803" on="0"/>
        <pt x="266" y="607" on="1"/>
        <pt x="265" y="366" on="0"/>
        <pt x="262" y="-140" on="1"/>
        <pt x="324" y="-140" on="0"/>
        <pt x="392" y="-132" on="1"/>
        <pt x="477" y="-123" on="0"/>
        <pt x="504" y="-132" on="0"/>
        <pt x="514" y="-140" on="1"/>
        <pt x="533" y="-156" on="0"/>
        <pt x="533" y="-200" on="0"/>
        <pt x="497" y="-231" on="0"/>
        <pt x="462" y="-229" on="1"/>
        <pt x="357" y="-223" on="0"/>
        <pt x="271" y="-223" on="0"/>
        <pt x="217" y="-227" on="0"/>
        <pt x="192" y="-222" on="0"/>
        <pt x="182" y="-215" on="1"/>
        <pt x="160" y="-199" on="0"/>
        <pt x="162" y="-166" on="1"/>
        <pt x="181" y="266" on="0"/>
        <pt x="181" y="1085" on="0"/>
        <pt x="178" y="1335" on="0"/>
        <pt x="175" y="1446" on="1"/>
        <pt x="169" y="1667" on="0"/>
        <pt x="152" y="1829" on="0"/>
        <pt x="162" y="1854" on="0"/>
        <pt x="170" y="1862" on="1"/>
        <pt x="186" y="1876" on="0"/>
      </contour>
    </TTGlyph>
    <TTGlyph name="bracketright" xMin="151" yMin="-236" xMax="528" yMax="1875">
      <contour>
        <pt x="416" y="-140" on="1"/>
        <pt x="414" y="274" on="1"/>
        <pt x="414" y="968" on="0"/>
        <pt x="418" y="1336" on="1"/>
        <pt x="420" y="1647" on="0"/>
        <pt x="421" y="1774" on="1"/>
        <pt x="382" y="1777" on="0"/>
        <pt x="352" y="1777" on="1"/>
        <pt x="303" y="1777" on="0"/>
        <pt x="245" y="1772" on="1"/>
        <pt x="153" y="1764" on="0"/>
        <pt x="153" y="1819" on="1"/>
        <pt x="153" y="1858" on="0"/>
        <pt x="196" y="1872" on="1"/>
        <pt x="210" y="1877" on="0"/>
        <pt x="232" y="1875" on="1"/>
        <pt x="320" y="1867" on="0"/>
        <pt x="357" y="1867" on="1"/>
        <pt x="429" y="1867" on="0"/>
        <pt x="483" y="1875" on="0"/>
        <pt x="505" y="1869" on="0"/>
        <pt x="514" y="1862" on="1"/>
        <pt x="534" y="1844" on="0"/>
        <pt x="522" y="1744" on="0"/>
        <pt x="512" y="1556" on="0"/>
        <pt x="509" y="1444" on="1"/>
        <pt x="504" y="1259" on="0"/>
        <pt x="504" y="789" on="0"/>
        <pt x="506" y="466" on="0"/>
        <pt x="508" y="318" on="1"/>
        <pt x="515" y="-40" on="0"/>
        <pt x="523" y="-194" on="0"/>
        <pt x="511" y="-219" on="0"/>
        <pt x="502" y="-226" on="1"/>
        <pt x="482" y="-242" on="0"/>
        <pt x="448" y="-236" on="1"/>
        <pt x="388" y="-227" on="0"/>
        <pt x="336" y="-227" on="1"/>
        <pt x="262" y="-227" on="0"/>
        <pt x="187" y="-231" on="0"/>
        <pt x="151" y="-200" on="0"/>
        <pt x="151" y="-158" on="0"/>
        <pt x="191" y="-122" on="0"/>
        <pt x="244" y="-128" on="1"/>
        <pt x="351" y="-139" on="0"/>
      </contour>
    </TTGlyph>
    <TTGlyph name="brokenbar" xMin="161" yMin="-217" xMax="271" yMax="1875">
      <contour>
        <pt x="217" y="-217" on="1"/>
        <pt x="161" y="-217" on="0"/>
        <pt x="166" y="-130" on="1"/>
        <pt x="175" y="5" on="0"/>
        <pt x="175" y="151" on="1"/>
        <pt x="175" y="426" on="0"/>
        <pt x="157" y="627" on="0"/>
        <pt x="165" y="657" on="0"/>
        <pt x="174" y="668" on="1"/>
        <pt x="191" y="689" on="0"/>
        <pt x="240" y="689" on="0"/>
        <pt x="275" y="648" on="0"/>
        <pt x="271" y="607" on="1"/>
        <pt x="253" y="341" on="0"/>
        <pt x="253" y="123" on="0"/>
        <pt x="255" y="41" on="0"/>
        <pt x="257" y="2" on="1"/>
        <pt x="262" y="-87" on="0"/>
        <pt x="270" y="-185" on="0"/>
        <pt x="237" y="-217" on="0"/>
      </contour>
      <contour>
        <pt x="217" y="949" on="1"/>
        <pt x="161" y="949" on="0"/>
        <pt x="166" y="1036" on="1"/>
        <pt x="175" y="1171" on="0"/>
        <pt x="175" y="1327" on="1"/>
        <pt x="175" y="1612" on="0"/>
        <pt x="157" y="1812" on="0"/>
        <pt x="165" y="1843" on="0"/>
        <pt x="174" y="1854" on="1"/>
        <pt x="191" y="1875" on="0"/>
        <pt x="239" y="1875" on="0"/>
        <pt x="275" y="1833" on="0"/>
        <pt x="271" y="1792" on="1"/>
        <pt x="253" y="1528" on="0"/>
        <pt x="253" y="1394" on="1"/>
        <pt x="253" y="1169" on="0"/>
        <pt x="268" y="1013" on="1"/>
        <pt x="270" y="981" on="0"/>
        <pt x="237" y="949" on="0"/>
      </contour>
    </TTGlyph>
    <TTGlyph name="bullet" xMin="288" yMin="533" xMax="530" yMax="777">
      <contour>
        <pt x="509" y="733" on="0"/>
        <pt x="530" y="686" on="0"/>
        <pt x="530" y="620" on="0"/>
        <pt x="506" y="574" on="0"/>
        <pt x="487" y="560" on="1"/>
        <pt x="452" y="533" on="0"/>
        <pt x="381" y="533" on="0"/>
        <pt x="340" y="548" on="0"/>
        <pt x="324" y="564" on="1"/>
        <pt x="288" y="598" on="0"/>
        <pt x="288" y="654" on="1"/>
        <pt x="288" y="740" on="0"/>
        <pt x="368" y="769" on="1"/>
        <pt x="391" y="777" on="0"/>
        <pt x="433" y="777" on="0"/>
        <pt x="475" y="763" on="0"/>
      </contour>
    </TTGlyph>
    <TTGlyph name="c" xMin="105" yMin="-21" xMax="592" yMax="777">
      <contour>
        <pt x="592" y="525" on="1"/>
        <pt x="592" y="461" on="0"/>
        <pt x="491" y="461" on="0"/>
        <pt x="491" y="525" on="1"/>
        <pt x="493" y="691" on="0"/>
        <pt x="369" y="691" on="1"/>
        <pt x="291" y="691" on="0"/>
        <pt x="240" y="593" on="1"/>
        <pt x="195" y="504" on="0"/>
        <pt x="195" y="292" on="0"/>
        <pt x="226" y="172" on="0"/>
        <pt x="252" y="134" on="1"/>
        <pt x="300" y="61" on="0"/>
        <pt x="375" y="61" on="1"/>
        <pt x="423" y="61" on="0"/>
        <pt x="486" y="134" on="0"/>
        <pt x="497" y="174" on="1"/>
        <pt x="514" y="236" on="0"/>
        <pt x="549" y="236" on="1"/>
        <pt x="566" y="235" on="0"/>
        <pt x="592" y="209" on="0"/>
        <pt x="586" y="140" on="0"/>
        <pt x="548" y="64" on="0"/>
        <pt x="518" y="36" on="1"/>
        <pt x="454" y="-21" on="0"/>
        <pt x="358" y="-21" on="1"/>
        <pt x="253" y="-21" on="0"/>
        <pt x="182" y="76" on="1"/>
        <pt x="105" y="181" on="0"/>
        <pt x="105" y="367" on="1"/>
        <pt x="105" y="562" on="0"/>
        <pt x="184" y="673" on="1"/>
        <pt x="257" y="775" on="0"/>
        <pt x="369" y="777" on="1"/>
        <pt x="464" y="779" on="0"/>
        <pt x="526" y="714" on="1"/>
        <pt x="592" y="647" on="0"/>
      </contour>
    </TTGlyph>
    <TTGlyph name="caron" xMin="141" yMin="854" xMax="565" yMax="1153">
      <contour>
        <pt x="565" y="1091" on="0"/>
        <pt x="545" y="1068" on="0"/>
        <pt x="510" y="1028" on="0"/>
        <pt x="481" y="993" on="0"/>
        <pt x="468" y="977" on="1"/>
        <pt x="446" y="948" on="0"/>
        <pt x="426" y="913" on="1"/>
        <pt x="394" y="854" on="0"/>
        <pt x="315" y="854" on="0"/>
        <pt x="292" y="895" on="1"/>
        <pt x="246" y="980" on="0"/>
        <pt x="170" y="1054" on="1"/>
        <pt x="141" y="1083" on="0"/>
        <pt x="141" y="1129" on="0"/>
        <pt x="168" y="1153" on="0"/>
        <pt x="186" y="1153" on="1"/>
        <pt x="222" y="1153" on="0"/>
        <pt x="248" y="1110" on="1"/>
        <pt x="258" y="1092" on="0"/>
        <pt x="281" y="1049" on="0"/>
        <pt x="296" y="1026" on="1"/>
        <pt x="325" y="979" on="0"/>
        <pt x="356" y="948" on="1"/>
        <pt x="403" y="991" on="0"/>
        <pt x="437" y="1068" on="1"/>
        <pt x="464" y="1128" on="0"/>
        <pt x="498" y="1153" on="0"/>
        <pt x="536" y="1153" on="0"/>
        <pt x="565" y="1129" on="0"/>
      </contour>
    </TTGlyph>
    <TTGlyph name="caron.cap" xMin="74" yMin="1657" xMax="589" yMax="1907">
      <contour>
        <pt x="558" y="1907" on="0"/>
        <pt x="589" y="1882" on="0"/>
        <pt x="589" y="1826" on="0"/>
        <pt x="538" y="1801" on="0"/>
        <pt x="493" y="1778" on="0"/>
        <pt x="471" y="1764" on="1"/>
        <pt x="421" y="1734" on="0"/>
        <pt x="401" y="1709" on="1"/>
        <pt x="359" y="1657" on="0"/>
        <pt x="313" y="1657" on="0"/>
        <pt x="283" y="1683" on="0"/>
        <pt x="255" y="1718" on="0"/>
        <pt x="216" y="1746" on="0"/>
        <pt x="172" y="1773" on="0"/>
        <pt x="125" y="1798" on="0"/>
        <pt x="108" y="1808" on="1"/>
        <pt x="74" y="1829" on="0"/>
        <pt x="74" y="1882" on="0"/>
        <pt x="101" y="1907" on="0"/>
        <pt x="119" y="1907" on="1"/>
        <pt x="148" y="1907" on="0"/>
        <pt x="193" y="1862" on="0"/>
        <pt x="238" y="1828" on="0"/>
        <pt x="264" y="1808" on="1"/>
        <pt x="306" y="1778" on="0"/>
        <pt x="338" y="1751" on="1"/>
        <pt x="445" y="1837" on="0"/>
        <pt x="468" y="1862" on="1"/>
        <pt x="494" y="1892" on="0"/>
        <pt x="521" y="1907" on="0"/>
      </contour>
    </TTGlyph>
    <TTGlyph name="ccedilla" xMin="105" yMin="-543" xMax="592" yMax="777">
      <component glyphName="c" x="0" y="0" flags="0x1204"/>
      <component glyphName="cedilla" x="138" y="0" flags="0x1004"/>
    </TTGlyph>
    <TTGlyph name="cedilla" xMin="92" yMin="-543" xMax="399" yMax="36">
      <contour>
        <pt x="300" y="-386" on="0"/>
        <pt x="326" y="-345" on="0"/>
        <pt x="326" y="-284" on="0"/>
        <pt x="295" y="-237" on="0"/>
        <pt x="248" y="-237" on="0"/>
        <pt x="221" y="-248" on="0"/>
        <pt x="209" y="-255" on="1"/>
        <pt x="178" y="-273" on="0"/>
        <pt x="130" y="-273" on="0"/>
        <pt x="92" y="-248" on="0"/>
        <pt x="92" y="-206" on="0"/>
        <pt x="105" y="-165" on="0"/>
        <pt x="128" y="-106" on="0"/>
        <pt x="161" y="-25" on="0"/>
        <pt x="181" y="31" on="1"/>
        <pt x="250" y="36" on="1"/>
        <pt x="250" y="12" on="0"/>
        <pt x="228" y="-50" on="1"/>
        <pt x="195" y="-146" on="1"/>
        <pt x="187" y="-170" on="0"/>
        <pt x="182" y="-190" on="1"/>
        <pt x="207" y="-175" on="0"/>
        <pt x="234" y="-169" on="1"/>
        <pt x="269" y="-161" on="0"/>
        <pt x="305" y="-163" on="0"/>
        <pt x="346" y="-180" on="0"/>
        <pt x="362" y="-198" on="1"/>
        <pt x="400" y="-239" on="0"/>
        <pt x="397" y="-358" on="0"/>
        <pt x="359" y="-439" on="0"/>
        <pt x="329" y="-471" on="1"/>
        <pt x="262" y="-543" on="0"/>
        <pt x="190" y="-543" on="1"/>
        <pt x="167" y="-543" on="0"/>
        <pt x="141" y="-515" on="0"/>
        <pt x="141" y="-482" on="0"/>
        <pt x="167" y="-445" on="0"/>
        <pt x="214" y="-438" on="0"/>
        <pt x="261" y="-418" on="0"/>
      </contour>
    </TTGlyph>
    <TTGlyph name="cent" xMin="110" yMin="63" xMax="618" yMax="1505">
      <contour>
        <pt x="538" y="958" on="1"/>
        <pt x="522" y="973" on="0"/>
        <pt x="522" y="1048" on="0"/>
        <pt x="510" y="1115" on="0"/>
        <pt x="495" y="1138" on="1"/>
        <pt x="471" y="1176" on="0"/>
        <pt x="419" y="1185" on="1"/>
        <pt x="415" y="1087" on="0"/>
        <pt x="415" y="991" on="1"/>
        <pt x="414" y="770" on="0"/>
        <pt x="414" y="540" on="1"/>
        <pt x="414" y="453" on="0"/>
        <pt x="415" y="374" on="1"/>
        <pt x="488" y="382" on="0"/>
        <pt x="512" y="448" on="1"/>
        <pt x="521" y="471" on="0"/>
        <pt x="529" y="498" on="1"/>
        <pt x="544" y="547" on="0"/>
        <pt x="578" y="547" on="1"/>
        <pt x="595" y="546" on="0"/>
        <pt x="618" y="520" on="0"/>
        <pt x="618" y="457" on="0"/>
        <pt x="583" y="383" on="0"/>
        <pt x="551" y="354" on="1"/>
        <pt x="495" y="303" on="0"/>
        <pt x="417" y="293" on="1"/>
        <pt x="419" y="206" on="0"/>
        <pt x="423" y="129" on="1"/>
        <pt x="425" y="96" on="0"/>
        <pt x="393" y="63" on="0"/>
        <pt x="355" y="63" on="0"/>
        <pt x="325" y="93" on="0"/>
        <pt x="326" y="124" on="1"/>
        <pt x="329" y="214" on="0"/>
        <pt x="332" y="294" on="1"/>
        <pt x="243" y="312" on="0"/>
        <pt x="186" y="408" on="1"/>
        <pt x="110" y="533" on="0"/>
        <pt x="110" y="999" on="0"/>
        <pt x="198" y="1138" on="1"/>
        <pt x="258" y="1231" on="0"/>
        <pt x="336" y="1254" on="1"/>
        <pt x="331" y="1357" on="0"/>
        <pt x="325" y="1443" on="1"/>
        <pt x="323" y="1475" on="0"/>
        <pt x="358" y="1505" on="0"/>
        <pt x="400" y="1505" on="0"/>
        <pt x="434" y="1475" on="0"/>
        <pt x="432" y="1443" on="1"/>
        <pt x="426" y="1351" on="0"/>
        <pt x="422" y="1260" on="1"/>
        <pt x="497" y="1252" on="0"/>
        <pt x="550" y="1200" on="1"/>
        <pt x="618" y="1131" on="0"/>
        <pt x="618" y="1012" on="1"/>
        <pt x="618" y="979" on="0"/>
        <pt x="604" y="964" on="1"/>
        <pt x="572" y="928" on="0"/>
      </contour>
      <contour>
        <pt x="335" y="386" on="1"/>
        <pt x="344" y="649" on="0"/>
        <pt x="344" y="785" on="1"/>
        <pt x="344" y="1002" on="0"/>
        <pt x="339" y="1175" on="1"/>
        <pt x="287" y="1148" on="0"/>
        <pt x="249" y="1057" on="1"/>
        <pt x="200" y="939" on="0"/>
        <pt x="200" y="668" on="0"/>
        <pt x="231" y="515" on="0"/>
        <pt x="258" y="466" on="1"/>
        <pt x="290" y="408" on="0"/>
      </contour>
    </TTGlyph>
    <TTGlyph name="circumflex" xMin="149" yMin="854" xMax="573" yMax="1153">
      <contour>
        <pt x="489" y="1014" on="0"/>
        <pt x="518" y="979" on="0"/>
        <pt x="553" y="939" on="0"/>
        <pt x="573" y="916" on="0"/>
        <pt x="573" y="878" on="0"/>
        <pt x="544" y="854" on="0"/>
        <pt x="525" y="854" on="1"/>
        <pt x="486" y="854" on="0"/>
        <pt x="465" y="897" on="1"/>
        <pt x="455" y="917" on="0"/>
        <pt x="435" y="962" on="0"/>
        <pt x="422" y="985" on="1"/>
        <pt x="398" y="1027" on="0"/>
        <pt x="363" y="1059" on="1"/>
        <pt x="319" y="1014" on="0"/>
        <pt x="278" y="936" on="1"/>
        <pt x="245" y="876" on="0"/>
        <pt x="212" y="854" on="0"/>
        <pt x="176" y="854" on="0"/>
        <pt x="149" y="878" on="0"/>
        <pt x="149" y="896" on="1"/>
        <pt x="149" y="924" on="0"/>
        <pt x="185" y="960" on="1"/>
        <pt x="254" y="1027" on="0"/>
        <pt x="298" y="1107" on="1"/>
        <pt x="323" y="1153" on="0"/>
        <pt x="366" y="1153" on="1"/>
        <pt x="402" y="1153" on="0"/>
        <pt x="441" y="1082" on="0"/>
        <pt x="464" y="1046" on="0"/>
      </contour>
    </TTGlyph>
    <TTGlyph name="circumflex.cap" xMin="127" yMin="1667" xMax="620" yMax="1917">
      <contour>
        <pt x="437" y="1873" on="1"/>
        <pt x="481" y="1815" on="0"/>
        <pt x="576" y="1770" on="1"/>
        <pt x="620" y="1749" on="0"/>
        <pt x="620" y="1711" on="1"/>
        <pt x="620" y="1692" on="0"/>
        <pt x="591" y="1667" on="0"/>
        <pt x="572" y="1667" on="1"/>
        <pt x="541" y="1667" on="0"/>
        <pt x="501" y="1708" on="0"/>
        <pt x="466" y="1743" on="0"/>
        <pt x="444" y="1764" on="1"/>
        <pt x="407" y="1798" on="0"/>
        <pt x="380" y="1822" on="1"/>
        <pt x="352" y="1798" on="0"/>
        <pt x="326" y="1777" on="1"/>
        <pt x="253" y="1719" on="0"/>
        <pt x="233" y="1700" on="1"/>
        <pt x="200" y="1667" on="0"/>
        <pt x="153" y="1667" on="0"/>
        <pt x="127" y="1692" on="0"/>
        <pt x="127" y="1709" on="1"/>
        <pt x="127" y="1746" on="0"/>
        <pt x="177" y="1775" on="0"/>
        <pt x="221" y="1800" on="0"/>
        <pt x="241" y="1814" on="1"/>
        <pt x="289" y="1846" on="0"/>
        <pt x="307" y="1868" on="1"/>
        <pt x="346" y="1917" on="0"/>
        <pt x="393" y="1917" on="0"/>
        <pt x="423" y="1890" on="0"/>
      </contour>
    </TTGlyph>
    <TTGlyph name="colon" xMin="139" yMin="-24" xMax="318" yMax="724">
      <component glyphName="period" x="0" y="585" flags="0x1204"/>
      <component glyphName="period" x="0" y="7" flags="0x1004"/>
    </TTGlyph>
    <TTGlyph name="comma" xMin="131" yMin="-201" xMax="321" yMax="161">
      <contour>
        <pt x="321" y="48" on="1"/>
        <pt x="321" y="-68" on="0"/>
        <pt x="245" y="-162" on="1"/>
        <pt x="186" y="-232" on="0"/>
        <pt x="156" y="-201" on="1"/>
        <pt x="149" y="-193" on="0"/>
        <pt x="149" y="-182" on="1"/>
        <pt x="149" y="-162" on="0"/>
        <pt x="170" y="-136" on="1"/>
        <pt x="223" y="-70" on="0"/>
        <pt x="225" y="2" on="1"/>
        <pt x="201" y="-8" on="0"/>
        <pt x="177" y="7" on="1"/>
        <pt x="131" y="34" on="0"/>
        <pt x="131" y="113" on="0"/>
        <pt x="183" y="161" on="0"/>
        <pt x="244" y="161" on="0"/>
        <pt x="278" y="144" on="0"/>
        <pt x="292" y="128" on="1"/>
        <pt x="321" y="95" on="0"/>
      </contour>
    </TTGlyph>
    <TTGlyph name="commaaccent" xMin="100" yMin="-520" xMax="283" yMax="-169">
      <contour>
        <pt x="283" y="-278" on="1"/>
        <pt x="283" y="-391" on="0"/>
        <pt x="209" y="-482" on="1"/>
        <pt x="153" y="-552" on="0"/>
        <pt x="124" y="-520" on="1"/>
        <pt x="117" y="-513" on="0"/>
        <pt x="117" y="-502" on="1"/>
        <pt x="117" y="-480" on="0"/>
        <pt x="138" y="-456" on="1"/>
        <pt x="189" y="-393" on="0"/>
        <pt x="191" y="-323" on="1"/>
        <pt x="168" y="-332" on="0"/>
        <pt x="144" y="-319" on="1"/>
        <pt x="100" y="-293" on="0"/>
        <pt x="100" y="-216" on="0"/>
        <pt x="150" y="-169" on="0"/>
        <pt x="209" y="-169" on="0"/>
        <pt x="243" y="-186" on="0"/>
        <pt x="256" y="-200" on="1"/>
        <pt x="283" y="-232" on="0"/>
      </contour>
    </TTGlyph>
    <TTGlyph name="copyright" xMin="88" yMin="-82" xMax="1171" yMax="1721">
      <contour>
        <pt x="657" y="1463" on="1"/>
        <pt x="911" y="1463" on="0"/>
        <pt x="893" y="1073" on="1"/>
        <pt x="890" y="1003" on="0"/>
        <pt x="841" y="1003" on="1"/>
        <pt x="797" y="1003" on="0"/>
        <pt x="797" y="1068" on="1"/>
        <pt x="826" y="1191" on="0"/>
        <pt x="792" y="1278" on="1"/>
        <pt x="754" y="1376" on="0"/>
        <pt x="655" y="1376" on="1"/>
        <pt x="557" y="1376" on="0"/>
        <pt x="498" y="1201" on="1"/>
        <pt x="446" y="1044" on="0"/>
        <pt x="446" y="665" on="0"/>
        <pt x="473" y="453" on="0"/>
        <pt x="499" y="386" on="1"/>
        <pt x="549" y="259" on="0"/>
        <pt x="648" y="259" on="1"/>
        <pt x="726" y="259" on="0"/>
        <pt x="805" y="389" on="0"/>
        <pt x="798" y="500" on="1"/>
        <pt x="798" y="547" on="0"/>
        <pt x="832" y="559" on="1"/>
        <pt x="858" y="568" on="0"/>
        <pt x="893" y="528" on="0"/>
        <pt x="893" y="426" on="0"/>
        <pt x="852" y="304" on="0"/>
        <pt x="818" y="260" on="1"/>
        <pt x="746" y="167" on="0"/>
        <pt x="645" y="167" on="1"/>
        <pt x="513" y="167" on="0"/>
        <pt x="435" y="324" on="1"/>
        <pt x="352" y="492" on="0"/>
        <pt x="352" y="805" on="1"/>
        <pt x="352" y="1124" on="0"/>
        <pt x="443" y="1300" on="1"/>
        <pt x="527" y="1463" on="0"/>
      </contour>
      <contour>
        <pt x="788" y="1602" on="1"/>
        <pt x="724" y="1634" on="0"/>
        <pt x="566" y="1634" on="0"/>
        <pt x="437" y="1573" on="0"/>
        <pt x="334" y="1463" on="0"/>
        <pt x="257" y="1310" on="0"/>
        <pt x="232" y="1218" on="1"/>
        <pt x="180" y="1031" on="0"/>
        <pt x="180" y="651" on="0"/>
        <pt x="217" y="415" on="0"/>
        <pt x="282" y="238" on="0"/>
        <pt x="370" y="115" on="0"/>
        <pt x="422" y="78" on="1"/>
        <pt x="520" y="6" on="0"/>
        <pt x="645" y="6" on="1"/>
        <pt x="828" y="6" on="0"/>
        <pt x="946" y="188" on="1"/>
        <pt x="1083" y="399" on="0"/>
        <pt x="1083" y="821" on="1"/>
        <pt x="1083" y="1158" on="0"/>
        <pt x="986" y="1378" on="1"/>
        <pt x="914" y="1538" on="0"/>
      </contour>
      <contour>
        <pt x="636" y="-82" on="1"/>
        <pt x="509" y="-82" on="0"/>
        <pt x="305" y="32" on="0"/>
        <pt x="234" y="146" on="1"/>
        <pt x="88" y="380" on="0"/>
        <pt x="88" y="833" on="1"/>
        <pt x="88" y="1207" on="0"/>
        <pt x="238" y="1462" on="1"/>
        <pt x="334" y="1626" on="0"/>
        <pt x="476" y="1690" on="1"/>
        <pt x="547" y="1721" on="0"/>
        <pt x="627" y="1721" on="1"/>
        <pt x="894" y="1721" on="0"/>
        <pt x="1035" y="1478" on="1"/>
        <pt x="1167" y="1250" on="0"/>
        <pt x="1171" y="844" on="1"/>
        <pt x="1173" y="422" on="0"/>
        <pt x="1032" y="172" on="1"/>
        <pt x="889" y="-82" on="0"/>
      </contour>
    </TTGlyph>
    <TTGlyph name="currency" xMin="148" yMin="284" xMax="831" yMax="1330">
      <contour>
        <pt x="482" y="499" on="1"/>
        <pt x="525" y="499" on="0"/>
        <pt x="597" y="547" on="0"/>
        <pt x="622" y="590" on="1"/>
        <pt x="672" y="676" on="0"/>
        <pt x="672" y="967" on="0"/>
        <pt x="575" y="1115" on="0"/>
        <pt x="495" y="1115" on="1"/>
        <pt x="408" y="1115" on="0"/>
        <pt x="355" y="1016" on="1"/>
        <pt x="307" y="926" on="0"/>
        <pt x="307" y="797" on="1"/>
        <pt x="307" y="671" on="0"/>
        <pt x="353" y="586" on="1"/>
        <pt x="401" y="499" on="0"/>
      </contour>
      <contour>
        <pt x="320" y="472" on="1"/>
        <pt x="296" y="438" on="0"/>
        <pt x="274" y="388" on="1"/>
        <pt x="248" y="333" on="0"/>
        <pt x="221" y="289" on="0"/>
        <pt x="176" y="280" on="0"/>
        <pt x="148" y="311" on="0"/>
        <pt x="148" y="355" on="0"/>
        <pt x="180" y="405" on="0"/>
        <pt x="225" y="459" on="0"/>
        <pt x="249" y="488" on="1"/>
        <pt x="264" y="506" on="0"/>
        <pt x="275" y="525" on="1"/>
        <pt x="213" y="623" on="0"/>
        <pt x="213" y="787" on="1"/>
        <pt x="213" y="972" on="0"/>
        <pt x="286" y="1084" on="1"/>
        <pt x="269" y="1114" on="0"/>
        <pt x="234" y="1154" on="1"/>
        <pt x="189" y="1206" on="0"/>
        <pt x="156" y="1256" on="0"/>
        <pt x="156" y="1291" on="0"/>
        <pt x="165" y="1310" on="0"/>
        <pt x="172" y="1317" on="1"/>
        <pt x="190" y="1333" on="0"/>
        <pt x="234" y="1326" on="0"/>
        <pt x="259" y="1280" on="0"/>
        <pt x="284" y="1231" on="0"/>
        <pt x="298" y="1206" on="1"/>
        <pt x="319" y="1166" on="0"/>
        <pt x="334" y="1143" on="1"/>
        <pt x="397" y="1206" on="0"/>
        <pt x="593" y="1210" on="0"/>
        <pt x="658" y="1143" on="1"/>
        <pt x="676" y="1171" on="0"/>
        <pt x="700" y="1217" on="1"/>
        <pt x="731" y="1279" on="0"/>
        <pt x="761" y="1325" on="0"/>
        <pt x="796" y="1330" on="0"/>
        <pt x="812" y="1324" on="0"/>
        <pt x="818" y="1317" on="1"/>
        <pt x="831" y="1302" on="0"/>
        <pt x="831" y="1260" on="0"/>
        <pt x="799" y="1211" on="0"/>
        <pt x="777" y="1184" on="1"/>
        <pt x="727" y="1121" on="0"/>
        <pt x="705" y="1083" on="1"/>
        <pt x="766" y="976" on="0"/>
        <pt x="766" y="799" on="1"/>
        <pt x="766" y="633" on="0"/>
        <pt x="693" y="526" on="1"/>
        <pt x="711" y="498" on="0"/>
        <pt x="744" y="456" on="1"/>
        <pt x="789" y="398" on="0"/>
        <pt x="821" y="350" on="0"/>
        <pt x="821" y="320" on="0"/>
        <pt x="811" y="302" on="0"/>
        <pt x="804" y="296" on="1"/>
        <pt x="787" y="283" on="0"/>
        <pt x="745" y="290" on="0"/>
        <pt x="718" y="330" on="0"/>
        <pt x="696" y="375" on="0"/>
        <pt x="684" y="400" on="1"/>
        <pt x="662" y="444" on="0"/>
        <pt x="645" y="471" on="1"/>
        <pt x="575" y="412" on="0"/>
        <pt x="471" y="412" on="1"/>
        <pt x="381" y="412" on="0"/>
      </contour>
    </TTGlyph>
    <TTGlyph name="d" xMin="79" yMin="-22" xMax="644" yMax="1756">
      <contour>
        <pt x="515" y="440" on="1"/>
        <pt x="514" y="651" on="1"/>
        <pt x="456" y="688" on="0"/>
        <pt x="353" y="688" on="0"/>
        <pt x="276" y="647" on="0"/>
        <pt x="245" y="606" on="1"/>
        <pt x="175" y="515" on="0"/>
        <pt x="175" y="365" on="1"/>
        <pt x="175" y="154" on="0"/>
        <pt x="272" y="87" on="1"/>
        <pt x="304" y="65" on="0"/>
        <pt x="386" y="65" on="0"/>
        <pt x="444" y="99" on="0"/>
        <pt x="464" y="124" on="1"/>
        <pt x="500" y="170" on="0"/>
        <pt x="513" y="233" on="1"/>
        <pt x="515" y="315" on="0"/>
      </contour>
      <contour>
        <pt x="595" y="1365" on="0"/>
        <pt x="594" y="1198" on="0"/>
        <pt x="594" y="649" on="0"/>
        <pt x="615" y="134" on="0"/>
        <pt x="624" y="88" on="0"/>
        <pt x="635" y="56" on="0"/>
        <pt x="644" y="36" on="0"/>
        <pt x="644" y="8" on="0"/>
        <pt x="619" y="-15" on="0"/>
        <pt x="604" y="-15" on="1"/>
        <pt x="539" y="-15" on="0"/>
        <pt x="536" y="114" on="1"/>
        <pt x="536" y="117" on="0"/>
        <pt x="536" y="119" on="1"/>
        <pt x="470" y="-22" on="0"/>
        <pt x="338" y="-22" on="1"/>
        <pt x="224" y="-22" on="0"/>
        <pt x="154" y="72" on="1"/>
        <pt x="79" y="173" on="0"/>
        <pt x="79" y="355" on="1"/>
        <pt x="79" y="546" on="0"/>
        <pt x="178" y="666" on="1"/>
        <pt x="268" y="776" on="0"/>
        <pt x="391" y="776" on="1"/>
        <pt x="460" y="776" on="0"/>
        <pt x="509" y="751" on="1"/>
        <pt x="508" y="823" on="0"/>
        <pt x="508" y="900" on="1"/>
        <pt x="507" y="996" on="0"/>
        <pt x="505" y="1187" on="0"/>
        <pt x="502" y="1367" on="0"/>
        <pt x="501" y="1446" on="1"/>
        <pt x="499" y="1611" on="0"/>
        <pt x="493" y="1725" on="0"/>
        <pt x="529" y="1756" on="0"/>
        <pt x="574" y="1756" on="0"/>
        <pt x="611" y="1725" on="0"/>
        <pt x="604" y="1643" on="0"/>
        <pt x="598" y="1515" on="0"/>
      </contour>
    </TTGlyph>
    <TTGlyph name="dagger" xMin="72" yMin="161" xMax="456" yMax="1875">
      <contour>
        <pt x="72" y="1220" on="0"/>
        <pt x="104" y="1256" on="0"/>
        <pt x="145" y="1250" on="1"/>
        <pt x="175" y="1246" on="0"/>
        <pt x="222" y="1244" on="1"/>
        <pt x="222" y="1269" on="0"/>
        <pt x="222" y="1294" on="1"/>
        <pt x="218" y="1583" on="0"/>
        <pt x="209" y="1801" on="1"/>
        <pt x="207" y="1839" on="0"/>
        <pt x="240" y="1875" on="0"/>
        <pt x="286" y="1875" on="0"/>
        <pt x="322" y="1837" on="0"/>
        <pt x="317" y="1722" on="0"/>
        <pt x="313" y="1580" on="0"/>
        <pt x="310" y="1442" on="0"/>
        <pt x="308" y="1372" on="1"/>
        <pt x="307" y="1311" on="0"/>
        <pt x="306" y="1245" on="1"/>
        <pt x="347" y="1246" on="0"/>
        <pt x="376" y="1249" on="1"/>
        <pt x="423" y="1254" on="0"/>
        <pt x="456" y="1219" on="0"/>
        <pt x="456" y="1179" on="0"/>
        <pt x="425" y="1145" on="0"/>
        <pt x="363" y="1149" on="0"/>
        <pt x="328" y="1152" on="1"/>
        <pt x="317" y="1152" on="0"/>
        <pt x="306" y="1153" on="1"/>
        <pt x="305" y="975" on="0"/>
        <pt x="305" y="876" on="1"/>
        <pt x="305" y="758" on="0"/>
        <pt x="306" y="597" on="0"/>
        <pt x="307" y="479" on="0"/>
        <pt x="309" y="394" on="0"/>
        <pt x="310" y="359" on="1"/>
        <pt x="314" y="289" on="0"/>
        <pt x="318" y="193" on="0"/>
        <pt x="285" y="161" on="0"/>
        <pt x="246" y="161" on="0"/>
        <pt x="213" y="193" on="0"/>
        <pt x="216" y="283" on="0"/>
        <pt x="219" y="356" on="0"/>
        <pt x="221" y="414" on="0"/>
        <pt x="222" y="469" on="0"/>
        <pt x="222" y="510" on="1"/>
        <pt x="224" y="631" on="0"/>
        <pt x="224" y="891" on="0"/>
        <pt x="224" y="1026" on="1"/>
        <pt x="223" y="1090" on="0"/>
        <pt x="223" y="1153" on="1"/>
        <pt x="191" y="1152" on="0"/>
        <pt x="163" y="1150" on="1"/>
        <pt x="120" y="1145" on="0"/>
        <pt x="96" y="1152" on="0"/>
        <pt x="88" y="1160" on="1"/>
        <pt x="72" y="1174" on="0"/>
      </contour>
    </TTGlyph>
    <TTGlyph name="daggerdbl" xMin="72" yMin="161" xMax="456" yMax="1875">
      <contour>
        <pt x="72" y="780" on="0"/>
        <pt x="104" y="816" on="0"/>
        <pt x="145" y="810" on="1"/>
        <pt x="176" y="805" on="0"/>
        <pt x="224" y="804" on="1"/>
        <pt x="224" y="913" on="0"/>
        <pt x="224" y="1026" on="1"/>
        <pt x="223" y="1090" on="0"/>
        <pt x="223" y="1153" on="1"/>
        <pt x="191" y="1152" on="0"/>
        <pt x="163" y="1150" on="1"/>
        <pt x="120" y="1145" on="0"/>
        <pt x="96" y="1152" on="0"/>
        <pt x="88" y="1160" on="1"/>
        <pt x="72" y="1174" on="0"/>
        <pt x="72" y="1220" on="0"/>
        <pt x="104" y="1256" on="0"/>
        <pt x="145" y="1250" on="1"/>
        <pt x="175" y="1246" on="0"/>
        <pt x="222" y="1244" on="1"/>
        <pt x="222" y="1269" on="0"/>
        <pt x="222" y="1294" on="1"/>
        <pt x="218" y="1583" on="0"/>
        <pt x="209" y="1801" on="1"/>
        <pt x="207" y="1839" on="0"/>
        <pt x="240" y="1875" on="0"/>
        <pt x="286" y="1875" on="0"/>
        <pt x="322" y="1837" on="0"/>
        <pt x="317" y="1722" on="0"/>
        <pt x="313" y="1580" on="0"/>
        <pt x="310" y="1442" on="0"/>
        <pt x="308" y="1372" on="1"/>
        <pt x="307" y="1311" on="0"/>
        <pt x="306" y="1245" on="1"/>
        <pt x="347" y="1246" on="0"/>
        <pt x="376" y="1249" on="1"/>
        <pt x="423" y="1254" on="0"/>
        <pt x="456" y="1219" on="0"/>
        <pt x="456" y="1179" on="0"/>
        <pt x="425" y="1145" on="0"/>
        <pt x="363" y="1149" on="0"/>
        <pt x="328" y="1152" on="1"/>
        <pt x="317" y="1152" on="0"/>
        <pt x="306" y="1153" on="1"/>
        <pt x="305" y="975" on="0"/>
        <pt x="305" y="876" on="1"/>
        <pt x="305" y="838" on="0"/>
        <pt x="305" y="805" on="1"/>
        <pt x="346" y="806" on="0"/>
        <pt x="376" y="809" on="1"/>
        <pt x="423" y="814" on="0"/>
        <pt x="456" y="779" on="0"/>
        <pt x="456" y="739" on="0"/>
        <pt x="425" y="705" on="0"/>
        <pt x="363" y="709" on="0"/>
        <pt x="328" y="712" on="1"/>
        <pt x="316" y="712" on="0"/>
        <pt x="305" y="713" on="1"/>
        <pt x="305" y="694" on="0"/>
        <pt x="306" y="678" on="1"/>
        <pt x="306" y="597" on="0"/>
        <pt x="307" y="479" on="0"/>
        <pt x="309" y="394" on="0"/>
        <pt x="310" y="359" on="1"/>
        <pt x="314" y="289" on="0"/>
        <pt x="318" y="193" on="0"/>
        <pt x="285" y="161" on="0"/>
        <pt x="246" y="161" on="0"/>
        <pt x="213" y="193" on="0"/>
        <pt x="216" y="283" on="0"/>
        <pt x="219" y="356" on="0"/>
        <pt x="221" y="414" on="0"/>
        <pt x="222" y="469" on="0"/>
        <pt x="222" y="510" on="1"/>
        <pt x="224" y="609" on="0"/>
        <pt x="224" y="713" on="1"/>
        <pt x="191" y="712" on="0"/>
        <pt x="163" y="710" on="1"/>
        <pt x="120" y="705" on="0"/>
        <pt x="96" y="712" on="0"/>
        <pt x="88" y="720" on="1"/>
        <pt x="72" y="734" on="0"/>
      </contour>
    </TTGlyph>
    <TTGlyph name="degree" xMin="67" yMin="1158" xMax="505" yMax="1778">
      <contour>
        <pt x="152" y="1457" on="1"/>
        <pt x="152" y="1235" on="0"/>
        <pt x="279" y="1235" on="1"/>
        <pt x="345" y="1235" on="0"/>
        <pt x="420" y="1353" on="0"/>
        <pt x="420" y="1538" on="0"/>
        <pt x="399" y="1629" on="0"/>
        <pt x="381" y="1654" on="1"/>
        <pt x="351" y="1696" on="0"/>
        <pt x="286" y="1696" on="1"/>
        <pt x="190" y="1696" on="0"/>
        <pt x="161" y="1554" on="1"/>
        <pt x="152" y="1510" on="0"/>
      </contour>
      <contour>
        <pt x="168" y="1741" on="0"/>
        <pt x="247" y="1777" on="0"/>
        <pt x="337" y="1779" on="0"/>
        <pt x="416" y="1748" on="0"/>
        <pt x="444" y="1712" on="1"/>
        <pt x="505" y="1636" on="0"/>
        <pt x="505" y="1466" on="1"/>
        <pt x="505" y="1326" on="0"/>
        <pt x="379" y="1158" on="0"/>
        <pt x="273" y="1158" on="1"/>
        <pt x="127" y="1158" on="0"/>
        <pt x="82" y="1318" on="1"/>
        <pt x="67" y="1374" on="0"/>
        <pt x="67" y="1539" on="0"/>
        <pt x="105" y="1663" on="0"/>
      </contour>
    </TTGlyph>
    <TTGlyph name="dieresis" xMin="121" yMin="908" xMax="540" yMax="1066">
      <contour>
        <pt x="527" y="1036" on="0"/>
        <pt x="541" y="1007" on="0"/>
        <pt x="538" y="965" on="0"/>
        <pt x="521" y="935" on="0"/>
        <pt x="508" y="926" on="1"/>
        <pt x="485" y="908" on="0"/>
        <pt x="425" y="908" on="0"/>
        <pt x="376" y="949" on="0"/>
        <pt x="376" y="1007" on="0"/>
        <pt x="391" y="1036" on="0"/>
        <pt x="403" y="1046" on="1"/>
        <pt x="427" y="1066" on="0"/>
        <pt x="474" y="1066" on="0"/>
        <pt x="503" y="1056" on="0"/>
      </contour>
      <contour>
        <pt x="271" y="1036" on="0"/>
        <pt x="285" y="1007" on="0"/>
        <pt x="282" y="965" on="0"/>
        <pt x="266" y="935" on="0"/>
        <pt x="254" y="926" on="1"/>
        <pt x="230" y="908" on="0"/>
        <pt x="170" y="908" on="0"/>
        <pt x="121" y="949" on="0"/>
        <pt x="121" y="1007" on="0"/>
        <pt x="136" y="1036" on="0"/>
        <pt x="148" y="1046" on="1"/>
        <pt x="170" y="1066" on="0"/>
        <pt x="218" y="1066" on="0"/>
        <pt x="247" y="1056" on="0"/>
      </contour>
    </TTGlyph>
    <TTGlyph name="dieresis.cap" xMin="107" yMin="1754" xMax="568" yMax="1918">
      <contour>
        <pt x="554" y="1887" on="0"/>
        <pt x="569" y="1856" on="0"/>
        <pt x="566" y="1813" on="0"/>
        <pt x="548" y="1782" on="0"/>
        <pt x="535" y="1772" on="1"/>
        <pt x="512" y="1754" on="0"/>
        <pt x="461" y="1754" on="0"/>
        <pt x="433" y="1764" on="0"/>
        <pt x="422" y="1774" on="1"/>
        <pt x="396" y="1798" on="0"/>
        <pt x="396" y="1856" on="0"/>
        <pt x="411" y="1887" on="0"/>
        <pt x="424" y="1897" on="1"/>
        <pt x="450" y="1918" on="0"/>
        <pt x="498" y="1918" on="0"/>
        <pt x="529" y="1907" on="0"/>
      </contour>
      <contour>
        <pt x="265" y="1887" on="0"/>
        <pt x="279" y="1856" on="0"/>
        <pt x="276" y="1813" on="0"/>
        <pt x="259" y="1782" on="0"/>
        <pt x="246" y="1772" on="1"/>
        <pt x="221" y="1754" on="0"/>
        <pt x="172" y="1754" on="0"/>
        <pt x="143" y="1764" on="0"/>
        <pt x="132" y="1774" on="1"/>
        <pt x="107" y="1798" on="0"/>
        <pt x="107" y="1856" on="0"/>
        <pt x="122" y="1887" on="0"/>
        <pt x="134" y="1897" on="1"/>
        <pt x="161" y="1918" on="0"/>
        <pt x="225" y="1918" on="0"/>
      </contour>
    </TTGlyph>
    <TTGlyph name="divide" xMin="108" yMin="66" xMax="783" yMax="800">
      <contour>
        <pt x="517" y="205" on="0"/>
        <pt x="533" y="173" on="0"/>
        <pt x="533" y="127" on="0"/>
        <pt x="515" y="94" on="0"/>
        <pt x="500" y="84" on="1"/>
        <pt x="474" y="66" on="0"/>
        <pt x="437" y="66" on="1"/>
        <pt x="384" y="66" on="0"/>
        <pt x="362" y="114" on="1"/>
        <pt x="354" y="130" on="0"/>
        <pt x="354" y="151" on="1"/>
        <pt x="354" y="211" on="0"/>
        <pt x="412" y="230" on="1"/>
        <pt x="428" y="236" on="0"/>
        <pt x="459" y="236" on="0"/>
        <pt x="491" y="226" on="0"/>
      </contour>
      <contour>
        <pt x="517" y="769" on="0"/>
        <pt x="533" y="737" on="0"/>
        <pt x="533" y="691" on="0"/>
        <pt x="515" y="658" on="0"/>
        <pt x="500" y="648" on="1"/>
        <pt x="474" y="630" on="0"/>
        <pt x="437" y="630" on="1"/>
        <pt x="384" y="630" on="0"/>
        <pt x="362" y="678" on="1"/>
        <pt x="354" y="694" on="0"/>
        <pt x="354" y="715" on="1"/>
        <pt x="354" y="775" on="0"/>
        <pt x="412" y="794" on="1"/>
        <pt x="428" y="800" on="0"/>
        <pt x="459" y="800" on="0"/>
        <pt x="491" y="790" on="0"/>
      </contour>
      <contour>
        <pt x="172" y="493" on="1"/>
        <pt x="264" y="484" on="0"/>
        <pt x="601" y="484" on="0"/>
        <pt x="718" y="492" on="1"/>
        <pt x="750" y="494" on="0"/>
        <pt x="783" y="458" on="0"/>
        <pt x="783" y="418" on="0"/>
        <pt x="752" y="385" on="0"/>
        <pt x="706" y="390" on="1"/>
        <pt x="599" y="400" on="0"/>
        <pt x="501" y="400" on="1"/>
        <pt x="342" y="400" on="0"/>
        <pt x="172" y="388" on="1"/>
        <pt x="139" y="386" on="0"/>
        <pt x="108" y="419" on="0"/>
        <pt x="108" y="460" on="0"/>
        <pt x="140" y="495" on="0"/>
      </contour>
    </TTGlyph>
    <TTGlyph name="dollar" xMin="95" yMin="-153" xMax="774" yMax="1792">
      <contour>
        <pt x="469" y="775" on="1"/>
        <pt x="468" y="240" on="1"/>
        <pt x="468" y="164" on="0"/>
        <pt x="468" y="106" on="1"/>
        <pt x="570" y="118" on="0"/>
        <pt x="626" y="204" on="1"/>
        <pt x="681" y="291" on="0"/>
        <pt x="681" y="444" on="1"/>
        <pt x="681" y="599" on="0"/>
        <pt x="506" y="746" on="1"/>
        <pt x="488" y="761" on="0"/>
        <pt x="469" y="777" on="1"/>
      </contour>
      <contour>
        <pt x="658" y="1168" on="1"/>
        <pt x="636" y="1168" on="0"/>
        <pt x="607" y="1208" on="0"/>
        <pt x="612" y="1240" on="1"/>
        <pt x="624" y="1315" on="0"/>
        <pt x="624" y="1384" on="0"/>
        <pt x="606" y="1453" on="0"/>
        <pt x="584" y="1480" on="1"/>
        <pt x="548" y="1524" on="0"/>
        <pt x="485" y="1535" on="1"/>
        <pt x="484" y="1521" on="0"/>
        <pt x="484" y="1507" on="1"/>
        <pt x="480" y="1434" on="0"/>
        <pt x="475" y="1261" on="0"/>
        <pt x="473" y="1167" on="1"/>
        <pt x="470" y="1032" on="0"/>
        <pt x="469" y="888" on="1"/>
        <pt x="485" y="876" on="0"/>
        <pt x="500" y="863" on="1"/>
        <pt x="551" y="821" on="0"/>
        <pt x="650" y="735" on="0"/>
        <pt x="688" y="686" on="1"/>
        <pt x="774" y="576" on="0"/>
        <pt x="774" y="353" on="0"/>
        <pt x="727" y="195" on="0"/>
        <pt x="681" y="139" on="1"/>
        <pt x="601" y="42" on="0"/>
        <pt x="469" y="25" on="1"/>
        <pt x="469" y="-47" on="0"/>
        <pt x="470" y="-66" on="1"/>
        <pt x="472" y="-103" on="0"/>
        <pt x="462" y="-128" on="0"/>
        <pt x="454" y="-136" on="1"/>
        <pt x="437" y="-153" on="0"/>
        <pt x="396" y="-153" on="0"/>
        <pt x="364" y="-122" on="0"/>
        <pt x="365" y="-92" on="1"/>
        <pt x="366" y="-34" on="0"/>
        <pt x="368" y="25" on="1"/>
        <pt x="255" y="39" on="0"/>
        <pt x="179" y="130" on="1"/>
        <pt x="95" y="232" on="0"/>
        <pt x="95" y="383" on="1"/>
        <pt x="95" y="444" on="0"/>
        <pt x="130" y="504" on="0"/>
        <pt x="185" y="504" on="0"/>
        <pt x="207" y="473" on="0"/>
        <pt x="210" y="432" on="0"/>
        <pt x="203" y="390" on="0"/>
        <pt x="203" y="308" on="0"/>
        <pt x="236" y="205" on="0"/>
        <pt x="266" y="171" on="1"/>
        <pt x="308" y="125" on="0"/>
        <pt x="371" y="111" on="1"/>
        <pt x="374" y="220" on="0"/>
        <pt x="378" y="336" on="1"/>
        <pt x="387" y="559" on="0"/>
        <pt x="387" y="792" on="1"/>
        <pt x="387" y="844" on="1"/>
        <pt x="345" y="879" on="0"/>
        <pt x="304" y="915" on="1"/>
        <pt x="255" y="959" on="0"/>
        <pt x="216" y="1009" on="1"/>
        <pt x="130" y="1119" on="0"/>
        <pt x="130" y="1246" on="1"/>
        <pt x="130" y="1418" on="0"/>
        <pt x="216" y="1521" on="1"/>
        <pt x="281" y="1600" on="0"/>
        <pt x="386" y="1619" on="1"/>
        <pt x="385" y="1639" on="0"/>
        <pt x="384" y="1654" on="1"/>
        <pt x="380" y="1745" on="0"/>
        <pt x="391" y="1768" on="0"/>
        <pt x="400" y="1776" on="1"/>
        <pt x="416" y="1792" on="0"/>
        <pt x="442" y="1792" on="1"/>
        <pt x="482" y="1792" on="0"/>
        <pt x="496" y="1756" on="1"/>
        <pt x="500" y="1745" on="0"/>
        <pt x="494" y="1693" on="0"/>
        <pt x="490" y="1636" on="1"/>
        <pt x="490" y="1630" on="0"/>
        <pt x="490" y="1623" on="1"/>
        <pt x="580" y="1610" on="0"/>
        <pt x="644" y="1530" on="1"/>
        <pt x="721" y="1432" on="0"/>
        <pt x="721" y="1168" on="0"/>
      </contour>
      <contour>
        <pt x="388" y="957" on="1"/>
        <pt x="389" y="1278" on="1"/>
        <pt x="389" y="1433" on="0"/>
        <pt x="388" y="1531" on="1"/>
        <pt x="322" y="1513" on="0"/>
        <pt x="279" y="1450" on="1"/>
        <pt x="226" y="1373" on="0"/>
        <pt x="226" y="1251" on="1"/>
        <pt x="226" y="1098" on="0"/>
      </contour>
    </TTGlyph>
    <TTGlyph name="dotaccentcmb" xMin="133" yMin="939" xMax="301" yMax="1108">
      <contour>
        <pt x="295" y="1060" on="1"/>
        <pt x="302" y="1044" on="0"/>
        <pt x="299" y="999" on="0"/>
        <pt x="281" y="967" on="0"/>
        <pt x="268" y="957" on="1"/>
        <pt x="246" y="939" on="0"/>
        <pt x="198" y="939" on="0"/>
        <pt x="170" y="950" on="0"/>
        <pt x="158" y="960" on="1"/>
        <pt x="133" y="984" on="0"/>
        <pt x="133" y="1062" on="0"/>
        <pt x="153" y="1079" on="1"/>
        <pt x="186" y="1108" on="0"/>
        <pt x="219" y="1108" on="1"/>
        <pt x="273" y="1108" on="0"/>
      </contour>
    </TTGlyph>
    <TTGlyph name="dotaccentcmb.cap" xMin="133" yMin="1739" xMax="301" yMax="1908">
      <component glyphName="dotaccentcmb" x="0" y="800" flags="0x1204"/>
    </TTGlyph>
    <TTGlyph name="dotlessi" xMin="138" yMin="0" xMax="251" yMax="747">
      <contour>
        <pt x="251" y="686" on="1"/>
        <pt x="237" y="392" on="0"/>
        <pt x="237" y="252" on="0"/>
        <pt x="245" y="50" on="0"/>
        <pt x="235" y="25" on="0"/>
        <pt x="227" y="17" on="1"/>
        <pt x="210" y="0" on="0"/>
        <pt x="168" y="0" on="0"/>
        <pt x="134" y="30" on="0"/>
        <pt x="138" y="76" on="1"/>
        <pt x="147" y="201" on="0"/>
        <pt x="147" y="456" on="0"/>
        <pt x="142" y="618" on="0"/>
        <pt x="139" y="701" on="0"/>
        <pt x="149" y="724" on="0"/>
        <pt x="158" y="732" on="1"/>
        <pt x="175" y="747" on="0"/>
        <pt x="216" y="747" on="0"/>
        <pt x="252" y="717" on="0"/>
      </contour>
    </TTGlyph>
    <TTGlyph name="dotlessj" xMin="-134" yMin="-542" xMax="277" yMax="747">
      <contour>
        <pt x="220" y="747" on="1"/>
        <pt x="279" y="747" on="0"/>
        <pt x="277" y="678" on="1"/>
        <pt x="268" y="372" on="0"/>
        <pt x="268" y="148" on="1"/>
        <pt x="268" y="-174" on="1"/>
        <pt x="268" y="-466" on="0"/>
        <pt x="141" y="-524" on="1"/>
        <pt x="100" y="-542" on="0"/>
        <pt x="10" y="-542" on="0"/>
        <pt x="-56" y="-519" on="0"/>
        <pt x="-81" y="-494" on="1"/>
        <pt x="-134" y="-443" on="0"/>
        <pt x="-134" y="-338" on="1"/>
        <pt x="-134" y="-259" on="0"/>
        <pt x="-78" y="-259" on="1"/>
        <pt x="-60" y="-259" on="0"/>
        <pt x="-33" y="-293" on="0"/>
        <pt x="-36" y="-352" on="0"/>
        <pt x="-30" y="-401" on="0"/>
        <pt x="-21" y="-420" on="1"/>
        <pt x="-2" y="-461" on="0"/>
        <pt x="84" y="-461" on="0"/>
        <pt x="133" y="-431" on="0"/>
        <pt x="148" y="-396" on="1"/>
        <pt x="174" y="-336" on="0"/>
        <pt x="178" y="-157" on="1"/>
        <pt x="178" y="221" on="1"/>
        <pt x="178" y="374" on="0"/>
        <pt x="173" y="450" on="1"/>
        <pt x="164" y="583" on="0"/>
        <pt x="158" y="713" on="0"/>
        <pt x="192" y="747" on="0"/>
      </contour>
    </TTGlyph>
    <TTGlyph name="e" xMin="86" yMin="-24" xMax="611" yMax="775">
      <contour>
        <pt x="519" y="432" on="1"/>
        <pt x="521" y="606" on="0"/>
        <pt x="446" y="670" on="1"/>
        <pt x="416" y="697" on="0"/>
        <pt x="330" y="697" on="0"/>
        <pt x="274" y="665" on="0"/>
        <pt x="231" y="611" on="0"/>
        <pt x="202" y="542" on="0"/>
        <pt x="193" y="506" on="1"/>
        <pt x="184" y="468" on="0"/>
        <pt x="180" y="431" on="1"/>
        <pt x="317" y="425" on="1"/>
        <pt x="451" y="425" on="0"/>
      </contour>
      <contour>
        <pt x="176" y="345" on="1"/>
        <pt x="178" y="207" on="0"/>
        <pt x="226" y="134" on="1"/>
        <pt x="278" y="56" on="0"/>
        <pt x="373" y="56" on="1"/>
        <pt x="460" y="56" on="0"/>
        <pt x="500" y="142" on="1"/>
        <pt x="525" y="198" on="0"/>
        <pt x="562" y="198" on="1"/>
        <pt x="579" y="198" on="0"/>
        <pt x="602" y="176" on="0"/>
        <pt x="600" y="121" on="0"/>
        <pt x="563" y="57" on="0"/>
        <pt x="530" y="32" on="1"/>
        <pt x="458" y="-24" on="0"/>
        <pt x="357" y="-24" on="1"/>
        <pt x="248" y="-24" on="0"/>
        <pt x="169" y="69" on="1"/>
        <pt x="86" y="167" on="0"/>
        <pt x="86" y="437" on="0"/>
        <pt x="133" y="606" on="0"/>
        <pt x="172" y="662" on="1"/>
        <pt x="248" y="775" on="0"/>
        <pt x="362" y="775" on="1"/>
        <pt x="508" y="775" on="0"/>
        <pt x="567" y="660" on="1"/>
        <pt x="608" y="580" on="0"/>
        <pt x="611" y="425" on="1"/>
        <pt x="612" y="381" on="0"/>
        <pt x="582" y="351" on="0"/>
        <pt x="536" y="351" on="1"/>
      </contour>
    </TTGlyph>
    <TTGlyph name="eacute" xMin="86" yMin="-24" xMax="611" yMax="1146">
      <component glyphName="e" x="0" y="0" flags="0x1204"/>
      <component glyphName="acute" x="165" y="0" flags="0x1004"/>
    </TTGlyph>
    <TTGlyph name="ecircumflex" xMin="86" yMin="-24" xMax="611" yMax="1153">
      <component glyphName="e" x="0" y="0" flags="0x1204"/>
      <component glyphName="circumflex" x="11" y="0" flags="0x1004"/>
    </TTGlyph>
    <TTGlyph name="edieresis" xMin="86" yMin="-24" xMax="611" yMax="1066">
      <component glyphName="e" x="0" y="0" flags="0x1204"/>
      <component glyphName="dieresis" x="41" y="0" flags="0x1004"/>
    </TTGlyph>
    <TTGlyph name="egrave" xMin="86" yMin="-24" xMax="611" yMax="1146">
      <component glyphName="e" x="0" y="0" flags="0x1204"/>
      <component glyphName="grave" x="153" y="0" flags="0x1004"/>
    </TTGlyph>
    <TTGlyph name="eight" xMin="122" yMin="-22" xMax="808" yMax="1635">
      <contour>
        <pt x="474" y="72" on="1"/>
        <pt x="534" y="72" on="0"/>
        <pt x="621" y="123" on="0"/>
        <pt x="649" y="166" on="1"/>
        <pt x="704" y="249" on="0"/>
        <pt x="704" y="374" on="1"/>
        <pt x="704" y="483" on="0"/>
        <pt x="638" y="560" on="1"/>
        <pt x="570" y="640" on="0"/>
        <pt x="461" y="640" on="1"/>
        <pt x="359" y="640" on="0"/>
        <pt x="294" y="559" on="1"/>
        <pt x="234" y="483" on="0"/>
        <pt x="234" y="372" on="1"/>
        <pt x="234" y="250" on="0"/>
        <pt x="295" y="165" on="1"/>
        <pt x="361" y="72" on="0"/>
      </contour>
      <contour>
        <pt x="707" y="1349" on="0"/>
        <pt x="596" y="1544" on="0"/>
        <pt x="349" y="1544" on="0"/>
        <pt x="218" y="1350" on="0"/>
        <pt x="218" y="1157" on="1"/>
        <pt x="218" y="979" on="0"/>
        <pt x="286" y="858" on="1"/>
        <pt x="357" y="732" on="0"/>
        <pt x="470" y="732" on="1"/>
        <pt x="584" y="732" on="0"/>
        <pt x="648" y="858" on="1"/>
        <pt x="707" y="976" on="0"/>
      </contour>
      <contour>
        <pt x="331" y="692" on="1"/>
        <pt x="196" y="756" on="0"/>
        <pt x="143" y="982" on="1"/>
        <pt x="122" y="1072" on="0"/>
        <pt x="122" y="1154" on="1"/>
        <pt x="122" y="1395" on="0"/>
        <pt x="300" y="1635" on="0"/>
        <pt x="643" y="1635" on="0"/>
        <pt x="808" y="1395" on="0"/>
        <pt x="808" y="1154" on="1"/>
        <pt x="808" y="1023" on="0"/>
        <pt x="756" y="888" on="1"/>
        <pt x="702" y="746" on="0"/>
        <pt x="601" y="688" on="1"/>
        <pt x="795" y="618" on="0"/>
        <pt x="795" y="355" on="1"/>
        <pt x="795" y="195" on="0"/>
        <pt x="707" y="90" on="1"/>
        <pt x="614" y="-22" on="0"/>
        <pt x="461" y="-22" on="1"/>
        <pt x="324" y="-22" on="0"/>
        <pt x="232" y="86" on="1"/>
        <pt x="140" y="195" on="0"/>
        <pt x="140" y="353" on="1"/>
        <pt x="140" y="560" on="0"/>
        <pt x="280" y="659" on="1"/>
        <pt x="305" y="677" on="0"/>
      </contour>
    </TTGlyph>
    <TTGlyph name="ellipsis" xMin="139" yMin="-31" xMax="1240" yMax="139">
      <contour>
        <pt x="1224" y="108" on="0"/>
        <pt x="1240" y="76" on="0"/>
        <pt x="1240" y="30" on="0"/>
        <pt x="1222" y="-3" on="0"/>
        <pt x="1208" y="-13" on="1"/>
        <pt x="1181" y="-31" on="0"/>
        <pt x="1144" y="-31" on="1"/>
        <pt x="1091" y="-31" on="0"/>
        <pt x="1068" y="17" on="1"/>
        <pt x="1061" y="33" on="0"/>
        <pt x="1061" y="54" on="1"/>
        <pt x="1061" y="114" on="0"/>
        <pt x="1119" y="134" on="1"/>
        <pt x="1135" y="139" on="0"/>
        <pt x="1166" y="139" on="0"/>
        <pt x="1198" y="129" on="0"/>
      </contour>
      <contour>
        <pt x="763" y="108" on="0"/>
        <pt x="779" y="76" on="0"/>
        <pt x="779" y="30" on="0"/>
        <pt x="761" y="-3" on="0"/>
        <pt x="746" y="-13" on="1"/>
        <pt x="720" y="-31" on="0"/>
        <pt x="683" y="-31" on="1"/>
        <pt x="630" y="-31" on="0"/>
        <pt x="608" y="17" on="1"/>
        <pt x="600" y="33" on="0"/>
        <pt x="600" y="54" on="1"/>
        <pt x="600" y="114" on="0"/>
        <pt x="658" y="134" on="1"/>
        <pt x="674" y="139" on="0"/>
        <pt x="705" y="139" on="0"/>
        <pt x="737" y="129" on="0"/>
      </contour>
      <contour>
        <pt x="302" y="108" on="0"/>
        <pt x="318" y="76" on="0"/>
        <pt x="318" y="30" on="0"/>
        <pt x="300" y="-3" on="0"/>
        <pt x="286" y="-13" on="1"/>
        <pt x="259" y="-31" on="0"/>
        <pt x="222" y="-31" on="1"/>
        <pt x="169" y="-31" on="0"/>
        <pt x="146" y="17" on="1"/>
        <pt x="139" y="33" on="0"/>
        <pt x="139" y="54" on="1"/>
        <pt x="139" y="114" on="0"/>
        <pt x="197" y="134" on="1"/>
        <pt x="213" y="139" on="0"/>
        <pt x="244" y="139" on="0"/>
        <pt x="276" y="129" on="0"/>
      </contour>
    </TTGlyph>
    <TTGlyph name="emdash" xMin="119" yMin="374" xMax="1119" yMax="471">
      <contour>
        <pt x="184" y="471" on="1"/>
        <pt x="307" y="460" on="0"/>
        <pt x="845" y="460" on="0"/>
        <pt x="1053" y="467" on="1"/>
        <pt x="1086" y="469" on="0"/>
        <pt x="1119" y="439" on="0"/>
        <pt x="1119" y="404" on="0"/>
        <pt x="1089" y="377" on="0"/>
        <pt x="1048" y="380" on="1"/>
        <pt x="976" y="384" on="0"/>
        <pt x="821" y="384" on="1"/>
        <pt x="544" y="384" on="0"/>
        <pt x="184" y="374" on="1"/>
        <pt x="150" y="373" on="0"/>
        <pt x="119" y="405" on="0"/>
        <pt x="119" y="443" on="0"/>
        <pt x="151" y="473" on="0"/>
      </contour>
    </TTGlyph>
    <TTGlyph name="endash" xMin="119" yMin="377" xMax="794" yMax="471">
      <contour>
        <pt x="184" y="471" on="1"/>
        <pt x="266" y="463" on="0"/>
        <pt x="600" y="463" on="0"/>
        <pt x="728" y="470" on="1"/>
        <pt x="762" y="472" on="0"/>
        <pt x="794" y="443" on="0"/>
        <pt x="794" y="406" on="0"/>
        <pt x="763" y="376" on="0"/>
        <pt x="717" y="378" on="1"/>
        <pt x="610" y="381" on="0"/>
        <pt x="512" y="381" on="1"/>
        <pt x="352" y="381" on="0"/>
        <pt x="184" y="377" on="1"/>
        <pt x="150" y="376" on="0"/>
        <pt x="119" y="406" on="0"/>
        <pt x="119" y="444" on="0"/>
        <pt x="151" y="473" on="0"/>
      </contour>
    </TTGlyph>
    <TTGlyph name="equal" xMin="108" yMin="280" xMax="837" yMax="590">
      <contour>
        <pt x="173" y="590" on="1"/>
        <pt x="274" y="581" on="0"/>
        <pt x="644" y="581" on="0"/>
        <pt x="772" y="589" on="1"/>
        <pt x="804" y="591" on="0"/>
        <pt x="837" y="558" on="0"/>
        <pt x="837" y="521" on="0"/>
        <pt x="806" y="492" on="0"/>
        <pt x="762" y="497" on="0"/>
        <pt x="711" y="501" on="0"/>
        <pt x="676" y="502" on="1"/>
        <pt x="569" y="505" on="0"/>
        <pt x="461" y="505" on="0"/>
        <pt x="363" y="504" on="0"/>
        <pt x="318" y="503" on="1"/>
        <pt x="238" y="501" on="0"/>
        <pt x="188" y="498" on="1"/>
        <pt x="108" y="492" on="0"/>
        <pt x="108" y="542" on="1"/>
        <pt x="108" y="561" on="0"/>
        <pt x="140" y="592" on="0"/>
      </contour>
      <contour>
        <pt x="173" y="374" on="1"/>
        <pt x="263" y="366" on="0"/>
        <pt x="660" y="366" on="0"/>
        <pt x="772" y="373" on="1"/>
        <pt x="804" y="375" on="0"/>
        <pt x="837" y="343" on="0"/>
        <pt x="837" y="306" on="0"/>
        <pt x="806" y="278" on="0"/>
        <pt x="764" y="281" on="1"/>
        <pt x="652" y="289" on="0"/>
        <pt x="521" y="289" on="1"/>
        <pt x="322" y="289" on="0"/>
        <pt x="173" y="280" on="1"/>
        <pt x="139" y="278" on="0"/>
        <pt x="108" y="308" on="0"/>
        <pt x="108" y="346" on="0"/>
        <pt x="140" y="376" on="0"/>
      </contour>
    </TTGlyph>
    <TTGlyph name="eth" xMin="79" yMin="-22" xMax="696" yMax="1594">
      <contour>
        <pt x="530" y="1499" on="0"/>
        <pt x="574" y="1541" on="0"/>
        <pt x="623" y="1588" on="0"/>
        <pt x="674" y="1584" on="0"/>
        <pt x="698" y="1556" on="0"/>
        <pt x="694" y="1508" on="0"/>
        <pt x="646" y="1471" on="0"/>
        <pt x="605" y="1442" on="0"/>
        <pt x="584" y="1428" on="1"/>
        <pt x="551" y="1405" on="0"/>
        <pt x="524" y="1383" on="1"/>
        <pt x="609" y="1267" on="0"/>
        <pt x="654" y="1096" on="1"/>
        <pt x="709" y="890" on="0"/>
        <pt x="684" y="538" on="1"/>
        <pt x="651" y="71" on="0"/>
        <pt x="460" y="-5" on="1"/>
        <pt x="417" y="-22" on="0"/>
        <pt x="299" y="-22" on="0"/>
        <pt x="200" y="54" on="0"/>
        <pt x="169" y="114" on="1"/>
        <pt x="110" y="228" on="0"/>
        <pt x="110" y="395" on="1"/>
        <pt x="110" y="585" on="0"/>
        <pt x="193" y="696" on="1"/>
        <pt x="269" y="797" on="0"/>
        <pt x="381" y="797" on="1"/>
        <pt x="477" y="797" on="0"/>
        <pt x="538" y="706" on="1"/>
        <pt x="582" y="639" on="0"/>
        <pt x="600" y="530" on="1"/>
        <pt x="603" y="584" on="0"/>
        <pt x="602" y="645" on="1"/>
        <pt x="598" y="785" on="0"/>
        <pt x="592" y="965" on="0"/>
        <pt x="543" y="1170" on="0"/>
        <pt x="507" y="1243" on="1"/>
        <pt x="484" y="1290" on="0"/>
        <pt x="457" y="1327" on="1"/>
        <pt x="448" y="1319" on="0"/>
        <pt x="440" y="1312" on="1"/>
        <pt x="410" y="1286" on="0"/>
        <pt x="378" y="1258" on="1"/>
        <pt x="299" y="1189" on="0"/>
        <pt x="247" y="1140" on="1"/>
        <pt x="222" y="1119" on="0"/>
        <pt x="171" y="1125" on="0"/>
        <pt x="158" y="1138" on="1"/>
        <pt x="146" y="1153" on="0"/>
        <pt x="152" y="1204" on="0"/>
        <pt x="199" y="1237" on="0"/>
        <pt x="257" y="1278" on="0"/>
        <pt x="290" y="1301" on="1"/>
        <pt x="363" y="1352" on="0"/>
        <pt x="404" y="1385" on="1"/>
        <pt x="370" y="1417" on="0"/>
        <pt x="336" y="1438" on="1"/>
        <pt x="291" y="1466" on="0"/>
        <pt x="208" y="1491" on="0"/>
        <pt x="162" y="1495" on="0"/>
        <pt x="130" y="1497" on="0"/>
        <pt x="116" y="1502" on="1"/>
        <pt x="83" y="1511" on="0"/>
        <pt x="79" y="1535" on="1"/>
        <pt x="69" y="1582" on="0"/>
        <pt x="136" y="1594" on="1"/>
        <pt x="234" y="1610" on="0"/>
        <pt x="352" y="1540" on="1"/>
        <pt x="419" y="1501" on="0"/>
        <pt x="473" y="1444" on="1"/>
        <pt x="492" y="1462" on="0"/>
        <pt x="510" y="1480" on="1"/>
      </contour>
      <contour>
        <pt x="553" y="390" on="1"/>
        <pt x="553" y="459" on="0"/>
        <pt x="524" y="576" on="0"/>
        <pt x="500" y="616" on="1"/>
        <pt x="450" y="701" on="0"/>
        <pt x="385" y="701" on="1"/>
        <pt x="297" y="701" on="0"/>
        <pt x="248" y="615" on="1"/>
        <pt x="201" y="534" on="0"/>
        <pt x="201" y="315" on="0"/>
        <pt x="229" y="194" on="0"/>
        <pt x="253" y="152" on="1"/>
        <pt x="302" y="67" on="0"/>
        <pt x="377" y="67" on="1"/>
        <pt x="459" y="67" on="0"/>
        <pt x="508" y="160" on="1"/>
        <pt x="553" y="248" on="0"/>
      </contour>
    </TTGlyph>
    <TTGlyph name="exclam" xMin="150" yMin="-24" xMax="329" yMax="1768">
      <contour>
        <pt x="313" y="115" on="0"/>
        <pt x="329" y="83" on="0"/>
        <pt x="329" y="37" on="0"/>
        <pt x="311" y="4" on="0"/>
        <pt x="296" y="-6" on="1"/>
        <pt x="270" y="-24" on="0"/>
        <pt x="233" y="-24" on="1"/>
        <pt x="180" y="-24" on="0"/>
        <pt x="158" y="24" on="1"/>
        <pt x="150" y="40" on="0"/>
        <pt x="150" y="61" on="1"/>
        <pt x="150" y="121" on="0"/>
        <pt x="208" y="140" on="1"/>
        <pt x="224" y="146" on="0"/>
        <pt x="255" y="146" on="0"/>
        <pt x="287" y="136" on="0"/>
      </contour>
      <contour>
        <pt x="288" y="946" on="1"/>
        <pt x="288" y="662" on="1"/>
        <pt x="288" y="471" on="0"/>
        <pt x="296" y="386" on="1"/>
        <pt x="299" y="354" on="0"/>
        <pt x="265" y="320" on="0"/>
        <pt x="225" y="320" on="0"/>
        <pt x="197" y="349" on="0"/>
        <pt x="200" y="407" on="1"/>
        <pt x="203" y="488" on="0"/>
        <pt x="203" y="865" on="0"/>
        <pt x="201" y="1121" on="0"/>
        <pt x="199" y="1244" on="1"/>
        <pt x="195" y="1501" on="0"/>
        <pt x="181" y="1691" on="1"/>
        <pt x="178" y="1730" on="0"/>
        <pt x="221" y="1768" on="0"/>
        <pt x="269" y="1768" on="0"/>
        <pt x="309" y="1729" on="0"/>
        <pt x="301" y="1625" on="0"/>
        <pt x="294" y="1451" on="0"/>
        <pt x="292" y="1352" on="1"/>
        <pt x="288" y="1154" on="0"/>
      </contour>
    </TTGlyph>
    <TTGlyph name="exclamdown" xMin="162" yMin="1405" xMax="341" yMax="1575">
      <component glyphName="period" x="23" y="1436" flags="0x1004"/>
    </TTGlyph>
    <TTGlyph name="f" xMin="61" yMin="-6" xMax="607" yMax="1787">
      <contour>
        <pt x="492" y="1497" on="1"/>
        <pt x="505" y="1575" on="1"/>
        <pt x="505" y="1664" on="0"/>
        <pt x="446" y="1685" on="1"/>
        <pt x="429" y="1691" on="0"/>
        <pt x="374" y="1691" on="0"/>
        <pt x="322" y="1655" on="0"/>
        <pt x="304" y="1605" on="1"/>
        <pt x="264" y="1488" on="0"/>
        <pt x="270" y="994" on="1"/>
        <pt x="272" y="864" on="0"/>
        <pt x="272" y="742" on="1"/>
        <pt x="433" y="747" on="1"/>
        <pt x="500" y="747" on="0"/>
        <pt x="500" y="697" on="1"/>
        <pt x="500" y="666" on="0"/>
        <pt x="466" y="652" on="1"/>
        <pt x="454" y="648" on="0"/>
        <pt x="428" y="650" on="1"/>
        <pt x="348" y="654" on="0"/>
        <pt x="320" y="654" on="1"/>
        <pt x="293" y="654" on="0"/>
        <pt x="272" y="653" on="1"/>
        <pt x="272" y="474" on="1"/>
        <pt x="272" y="184" on="0"/>
        <pt x="286" y="68" on="0"/>
        <pt x="278" y="32" on="0"/>
        <pt x="269" y="20" on="1"/>
        <pt x="251" y="-6" on="0"/>
        <pt x="206" y="-6" on="0"/>
        <pt x="177" y="30" on="0"/>
        <pt x="180" y="96" on="0"/>
        <pt x="181" y="215" on="0"/>
        <pt x="180" y="382" on="0"/>
        <pt x="180" y="486" on="1"/>
        <pt x="179" y="563" on="0"/>
        <pt x="178" y="647" on="1"/>
        <pt x="155" y="645" on="0"/>
        <pt x="124" y="644" on="1"/>
        <pt x="91" y="642" on="0"/>
        <pt x="61" y="674" on="0"/>
        <pt x="61" y="710" on="0"/>
        <pt x="74" y="731" on="0"/>
        <pt x="84" y="738" on="1"/>
        <pt x="103" y="751" on="0"/>
        <pt x="125" y="751" on="1"/>
        <pt x="178" y="747" on="1"/>
        <pt x="176" y="964" on="0"/>
        <pt x="176" y="1160" on="1"/>
        <pt x="176" y="1374" on="0"/>
        <pt x="199" y="1590" on="0"/>
        <pt x="226" y="1658" on="1"/>
        <pt x="279" y="1787" on="0"/>
        <pt x="418" y="1787" on="1"/>
        <pt x="548" y="1787" on="0"/>
        <pt x="592" y="1641" on="1"/>
        <pt x="607" y="1593" on="0"/>
        <pt x="607" y="1480" on="0"/>
        <pt x="571" y="1436" on="0"/>
        <pt x="547" y="1436" on="1"/>
        <pt x="492" y="1436" on="0"/>
      </contour>
    </TTGlyph>
    <TTGlyph name="fi" xMin="61" yMin="-7" xMax="780" yMax="1787">
      <component glyphName="f" x="0" y="0" flags="0x1004"/>
      <component glyphName="i" x="494" y="0" flags="0x1004"/>
    </TTGlyph>
    <TTGlyph name="five" xMin="144" yMin="-22" xMax="804" yMax="1622">
      <contour>
        <pt x="496" y="762" on="1"/>
        <pt x="447" y="762" on="0"/>
        <pt x="379" y="735" on="0"/>
        <pt x="356" y="716" on="1"/>
        <pt x="318" y="683" on="0"/>
        <pt x="302" y="648" on="1"/>
        <pt x="272" y="582" on="0"/>
        <pt x="230" y="582" on="1"/>
        <pt x="190" y="582" on="0"/>
        <pt x="180" y="619" on="1"/>
        <pt x="176" y="631" on="0"/>
        <pt x="183" y="690" on="0"/>
        <pt x="192" y="774" on="0"/>
        <pt x="196" y="822" on="1"/>
        <pt x="203" y="926" on="0"/>
        <pt x="203" y="1072" on="1"/>
        <pt x="203" y="1352" on="0"/>
        <pt x="186" y="1562" on="1"/>
        <pt x="183" y="1612" on="0"/>
        <pt x="229" y="1622" on="1"/>
        <pt x="241" y="1624" on="0"/>
        <pt x="272" y="1620" on="0"/>
        <pt x="336" y="1616" on="0"/>
        <pt x="376" y="1616" on="1"/>
        <pt x="494" y="1614" on="0"/>
        <pt x="547" y="1614" on="1"/>
        <pt x="663" y="1614" on="0"/>
        <pt x="760" y="1620" on="0"/>
        <pt x="797" y="1590" on="0"/>
        <pt x="797" y="1540" on="0"/>
        <pt x="756" y="1508" on="0"/>
        <pt x="683" y="1516" on="0"/>
        <pt x="568" y="1521" on="0"/>
        <pt x="440" y="1524" on="0"/>
        <pt x="376" y="1524" on="1"/>
        <pt x="329" y="1525" on="0"/>
        <pt x="289" y="1526" on="1"/>
        <pt x="289" y="1420" on="0"/>
        <pt x="290" y="1331" on="1"/>
        <pt x="290" y="1230" on="0"/>
        <pt x="290" y="1133" on="1"/>
        <pt x="288" y="951" on="0"/>
        <pt x="284" y="747" on="1"/>
        <pt x="339" y="819" on="0"/>
        <pt x="442" y="842" on="1"/>
        <pt x="471" y="849" on="0"/>
        <pt x="487" y="849" on="1"/>
        <pt x="638" y="849" on="0"/>
        <pt x="804" y="637" on="0"/>
        <pt x="804" y="416" on="1"/>
        <pt x="804" y="221" on="0"/>
        <pt x="708" y="98" on="1"/>
        <pt x="614" y="-22" on="0"/>
        <pt x="470" y="-22" on="1"/>
        <pt x="317" y="-22" on="0"/>
        <pt x="229" y="78" on="1"/>
        <pt x="138" y="182" on="0"/>
        <pt x="144" y="357" on="1"/>
        <pt x="145" y="388" on="0"/>
        <pt x="178" y="417" on="0"/>
        <pt x="220" y="417" on="0"/>
        <pt x="255" y="383" on="0"/>
        <pt x="252" y="360" on="1"/>
        <pt x="249" y="329" on="0"/>
        <pt x="249" y="257" on="0"/>
        <pt x="281" y="166" on="0"/>
        <pt x="310" y="132" on="1"/>
        <pt x="373" y="60" on="0"/>
        <pt x="470" y="60" on="1"/>
        <pt x="592" y="60" on="0"/>
        <pt x="656" y="166" on="1"/>
        <pt x="712" y="260" on="0"/>
        <pt x="712" y="413" on="1"/>
        <pt x="712" y="555" on="0"/>
        <pt x="655" y="655" on="1"/>
        <pt x="594" y="762" on="0"/>
      </contour>
    </TTGlyph>
    <TTGlyph name="fl" xMin="61" yMin="-9" xMax="756" yMax="1787">
      <component glyphName="f" x="0" y="0" flags="0x1004"/>
      <component glyphName="l" x="494" y="0" flags="0x1004"/>
    </TTGlyph>
    <TTGlyph name="four" xMin="20" yMin="-19" xMax="799" yMax="1635">
      <contour>
        <pt x="613" y="1570" on="1"/>
        <pt x="606" y="834" on="1"/>
        <pt x="606" y="631" on="1"/>
        <pt x="734" y="638" on="1"/>
        <pt x="767" y="640" on="0"/>
        <pt x="799" y="609" on="0"/>
        <pt x="799" y="575" on="0"/>
        <pt x="770" y="548" on="0"/>
        <pt x="734" y="549" on="0"/>
        <pt x="688" y="549" on="0"/>
        <pt x="635" y="548" on="0"/>
        <pt x="612" y="548" on="1"/>
        <pt x="609" y="547" on="0"/>
        <pt x="607" y="547" on="1"/>
        <pt x="605" y="452" on="1"/>
        <pt x="605" y="417" on="1"/>
        <pt x="605" y="314" on="0"/>
        <pt x="611" y="122" on="0"/>
        <pt x="614" y="15" on="0"/>
        <pt x="581" y="-19" on="0"/>
        <pt x="543" y="-19" on="0"/>
        <pt x="511" y="11" on="0"/>
        <pt x="511" y="43" on="1"/>
        <pt x="511" y="74" on="1"/>
        <pt x="516" y="390" on="1"/>
        <pt x="516" y="467" on="0"/>
        <pt x="514" y="547" on="1"/>
        <pt x="423" y="549" on="1"/>
        <pt x="87" y="538" on="1"/>
        <pt x="20" y="538" on="0"/>
        <pt x="20" y="581" on="1"/>
        <pt x="20" y="597" on="0"/>
        <pt x="56" y="673" on="0"/>
        <pt x="156" y="862" on="0"/>
        <pt x="222" y="990" on="1"/>
        <pt x="379" y="1298" on="0"/>
        <pt x="507" y="1591" on="1"/>
        <pt x="528" y="1635" on="0"/>
        <pt x="613" y="1635" on="0"/>
      </contour>
      <contour>
        <pt x="521" y="1432" on="1"/>
        <pt x="471" y="1319" on="0"/>
        <pt x="384" y="1138" on="1"/>
        <pt x="279" y="917" on="0"/>
        <pt x="244" y="843" on="1"/>
        <pt x="176" y="696" on="0"/>
        <pt x="149" y="627" on="1"/>
        <pt x="203" y="625" on="0"/>
        <pt x="258" y="625" on="1"/>
        <pt x="343" y="625" on="1"/>
        <pt x="359" y="625" on="0"/>
        <pt x="407" y="626" on="0"/>
        <pt x="433" y="626" on="1"/>
        <pt x="487" y="627" on="0"/>
        <pt x="514" y="628" on="1"/>
        <pt x="520" y="1093" on="0"/>
        <pt x="520" y="1111" on="1"/>
        <pt x="520" y="1164" on="1"/>
        <pt x="521" y="1316" on="1"/>
      </contour>
    </TTGlyph>
    <TTGlyph name="g" xMin="78" yMin="-491" xMax="693" yMax="1019">
      <contour>
        <pt x="268" y="39" on="1"/>
        <pt x="282" y="38" on="0"/>
        <pt x="320" y="38" on="1"/>
        <pt x="376" y="38" on="1"/>
        <pt x="554" y="38" on="0"/>
        <pt x="622" y="-110" on="1"/>
        <pt x="645" y="-158" on="0"/>
        <pt x="645" y="-284" on="0"/>
        <pt x="608" y="-382" on="0"/>
        <pt x="572" y="-418" on="1"/>
        <pt x="496" y="-491" on="0"/>
        <pt x="352" y="-491" on="1"/>
        <pt x="237" y="-491" on="0"/>
        <pt x="166" y="-432" on="1"/>
        <pt x="94" y="-371" on="0"/>
        <pt x="94" y="-262" on="1"/>
        <pt x="94" y="-165" on="0"/>
        <pt x="146" y="-87" on="1"/>
        <pt x="164" y="-59" on="0"/>
        <pt x="184" y="-41" on="1"/>
        <pt x="143" y="-31" on="0"/>
        <pt x="118" y="2" on="1"/>
        <pt x="86" y="44" on="0"/>
        <pt x="86" y="134" on="0"/>
        <pt x="104" y="193" on="0"/>
        <pt x="120" y="218" on="1"/>
        <pt x="145" y="257" on="0"/>
        <pt x="176" y="283" on="1"/>
        <pt x="128" y="317" on="0"/>
        <pt x="100" y="376" on="1"/>
        <pt x="78" y="423" on="0"/>
        <pt x="78" y="556" on="0"/>
        <pt x="123" y="665" on="0"/>
        <pt x="199" y="738" on="0"/>
        <pt x="297" y="776" on="0"/>
        <pt x="354" y="777" on="1"/>
        <pt x="394" y="778" on="0"/>
        <pt x="432" y="769" on="1"/>
        <pt x="437" y="836" on="0"/>
        <pt x="486" y="912" on="1"/>
        <pt x="556" y="1019" on="0"/>
        <pt x="646" y="1019" on="1"/>
        <pt x="693" y="1019" on="0"/>
        <pt x="693" y="970" on="1"/>
        <pt x="693" y="940" on="0"/>
        <pt x="649" y="919" on="1"/>
        <pt x="580" y="904" on="0"/>
        <pt x="536" y="846" on="1"/>
        <pt x="501" y="801" on="0"/>
        <pt x="497" y="743" on="1"/>
        <pt x="524" y="728" on="0"/>
        <pt x="546" y="706" on="1"/>
        <pt x="620" y="632" on="0"/>
        <pt x="620" y="497" on="1"/>
        <pt x="620" y="389" on="0"/>
        <pt x="550" y="317" on="1"/>
        <pt x="472" y="237" on="0"/>
        <pt x="345" y="237" on="1"/>
        <pt x="280" y="237" on="0"/>
        <pt x="230" y="255" on="1"/>
        <pt x="210" y="229" on="0"/>
        <pt x="195" y="186" on="1"/>
        <pt x="175" y="129" on="0"/>
        <pt x="175" y="104" on="1"/>
        <pt x="175" y="39" on="0"/>
      </contour>
      <contour>
        <pt x="168" y="408" on="0"/>
        <pt x="263" y="313" on="0"/>
        <pt x="394" y="313" on="0"/>
        <pt x="465" y="345" on="0"/>
        <pt x="488" y="372" on="1"/>
        <pt x="534" y="424" on="0"/>
        <pt x="534" y="514" on="1"/>
        <pt x="534" y="642" on="0"/>
        <pt x="422" y="682" on="1"/>
        <pt x="389" y="694" on="0"/>
        <pt x="302" y="694" on="0"/>
        <pt x="234" y="657" on="0"/>
        <pt x="212" y="628" on="1"/>
        <pt x="168" y="572" on="0"/>
      </contour>
      <contour>
        <pt x="259" y="-48" on="1"/>
        <pt x="244" y="-57" on="0"/>
        <pt x="231" y="-78" on="1"/>
        <pt x="184" y="-150" on="0"/>
        <pt x="184" y="-239" on="1"/>
        <pt x="184" y="-410" on="0"/>
        <pt x="379" y="-410" on="1"/>
        <pt x="556" y="-410" on="0"/>
        <pt x="556" y="-228" on="1"/>
        <pt x="556" y="-148" on="0"/>
        <pt x="514" y="-96" on="1"/>
        <pt x="476" y="-48" on="0"/>
        <pt x="377" y="-47" on="0"/>
        <pt x="320" y="-48" on="1"/>
        <pt x="289" y="-49" on="0"/>
      </contour>
    </TTGlyph>
    <TTGlyph name="germandbls" xMin="150" yMin="-42" xMax="842" yMax="1763">
      <contour>
        <pt x="459" y="209" on="1"/>
        <pt x="456" y="173" on="1"/>
        <pt x="456" y="124" on="0"/>
        <pt x="497" y="83" on="1"/>
        <pt x="536" y="44" on="0"/>
        <pt x="620" y="44" on="0"/>
        <pt x="680" y="74" on="0"/>
        <pt x="702" y="104" on="1"/>
        <pt x="749" y="170" on="0"/>
        <pt x="749" y="354" on="0"/>
        <pt x="716" y="455" on="0"/>
        <pt x="662" y="538" on="0"/>
        <pt x="593" y="606" on="0"/>
        <pt x="522" y="670" on="0"/>
        <pt x="453" y="737" on="0"/>
        <pt x="426" y="776" on="1"/>
        <pt x="366" y="863" on="0"/>
        <pt x="366" y="1085" on="0"/>
        <pt x="588" y="1318" on="0"/>
        <pt x="588" y="1451" on="1"/>
        <pt x="588" y="1618" on="0"/>
        <pt x="484" y="1662" on="1"/>
        <pt x="454" y="1675" on="0"/>
        <pt x="375" y="1675" on="0"/>
        <pt x="305" y="1620" on="0"/>
        <pt x="282" y="1560" on="1"/>
        <pt x="237" y="1443" on="0"/>
        <pt x="237" y="1179" on="1"/>
        <pt x="241" y="492" on="1"/>
        <pt x="241" y="169" on="0"/>
        <pt x="255" y="60" on="1"/>
        <pt x="256" y="41" on="1"/>
        <pt x="256" y="8" on="0"/>
        <pt x="239" y="-25" on="0"/>
        <pt x="211" y="-25" on="1"/>
        <pt x="154" y="-25" on="0"/>
        <pt x="154" y="44" on="1"/>
        <pt x="156" y="183" on="1"/>
        <pt x="150" y="1209" on="1"/>
        <pt x="150" y="1495" on="0"/>
        <pt x="290" y="1763" on="0"/>
        <pt x="437" y="1763" on="1"/>
        <pt x="531" y="1763" on="0"/>
        <pt x="598" y="1696" on="1"/>
        <pt x="681" y="1613" on="0"/>
        <pt x="681" y="1449" on="1"/>
        <pt x="681" y="1305" on="0"/>
        <pt x="568" y="1180" on="1"/>
        <pt x="494" y="1099" on="0"/>
        <pt x="455" y="1019" on="0"/>
        <pt x="455" y="910" on="0"/>
        <pt x="512" y="808" on="0"/>
        <pt x="598" y="719" on="0"/>
        <pt x="699" y="632" on="0"/>
        <pt x="742" y="579" on="1"/>
        <pt x="842" y="456" on="0"/>
        <pt x="842" y="301" on="1"/>
        <pt x="842" y="151" on="0"/>
        <pt x="770" y="56" on="1"/>
        <pt x="697" y="-42" on="0"/>
        <pt x="577" y="-42" on="1"/>
        <pt x="480" y="-42" on="0"/>
        <pt x="416" y="24" on="1"/>
        <pt x="357" y="85" on="0"/>
        <pt x="357" y="169" on="1"/>
        <pt x="357" y="216" on="0"/>
        <pt x="389" y="262" on="0"/>
        <pt x="430" y="262" on="0"/>
        <pt x="459" y="234" on="0"/>
      </contour>
    </TTGlyph>
    <TTGlyph name="grave" xMin="75" yMin="855" xMax="336" yMax="1146">
      <contour>
        <pt x="75" y="1146" on="1"/>
        <pt x="118" y="1171" on="0"/>
        <pt x="171" y="1100" on="1"/>
        <pt x="214" y="1042" on="0"/>
        <pt x="306" y="944" on="1"/>
        <pt x="336" y="909" on="0"/>
        <pt x="336" y="874" on="0"/>
        <pt x="311" y="855" on="0"/>
        <pt x="296" y="855" on="1"/>
        <pt x="273" y="855" on="0"/>
        <pt x="211" y="924" on="0"/>
        <pt x="164" y="971" on="0"/>
        <pt x="144" y="990" on="1"/>
        <pt x="95" y="1039" on="0"/>
        <pt x="77" y="1062" on="1"/>
        <pt x="33" y="1119" on="0"/>
      </contour>
    </TTGlyph>
    <TTGlyph name="grave.cap" xMin="-18" yMin="1693" xMax="338" yMax="1916">
      <contour>
        <pt x="47" y="1920" on="0"/>
        <pt x="90" y="1904" on="0"/>
        <pt x="177" y="1844" on="0"/>
        <pt x="256" y="1804" on="0"/>
        <pt x="307" y="1779" on="0"/>
        <pt x="334" y="1757" on="0"/>
        <pt x="338" y="1738" on="1"/>
        <pt x="345" y="1701" on="0"/>
        <pt x="305" y="1693" on="1"/>
        <pt x="281" y="1689" on="0"/>
        <pt x="196" y="1731" on="0"/>
        <pt x="109" y="1767" on="0"/>
        <pt x="72" y="1784" on="1"/>
        <pt x="-15" y="1823" on="0"/>
        <pt x="-21" y="1872" on="0"/>
        <pt x="1" y="1911" on="0"/>
      </contour>
    </TTGlyph>
    <TTGlyph name="greater" xMin="143" yMin="55" xMax="899" yMax="858">
      <contour>
        <pt x="203" y="55" on="1"/>
        <pt x="143" y="55" on="0"/>
        <pt x="143" y="108" on="1"/>
        <pt x="143" y="146" on="0"/>
        <pt x="221" y="179" on="0"/>
        <pt x="324" y="226" on="0"/>
        <pt x="445" y="283" on="0"/>
        <pt x="575" y="347" on="0"/>
        <pt x="634" y="378" on="1"/>
        <pt x="713" y="420" on="0"/>
        <pt x="762" y="452" on="1"/>
        <pt x="368" y="674" on="0"/>
        <pt x="185" y="748" on="1"/>
        <pt x="144" y="765" on="0"/>
        <pt x="144" y="824" on="0"/>
        <pt x="175" y="858" on="0"/>
        <pt x="218" y="858" on="0"/>
        <pt x="239" y="847" on="1"/>
        <pt x="592" y="629" on="0"/>
        <pt x="845" y="512" on="1"/>
        <pt x="871" y="500" on="0"/>
        <pt x="899" y="479" on="0"/>
        <pt x="899" y="437" on="0"/>
        <pt x="871" y="416" on="0"/>
        <pt x="817" y="389" on="0"/>
        <pt x="730" y="343" on="0"/>
        <pt x="628" y="287" on="0"/>
        <pt x="515" y="225" on="0"/>
        <pt x="458" y="193" on="1"/>
        <pt x="397" y="158" on="0"/>
        <pt x="235" y="64" on="0"/>
        <pt x="214" y="55" on="0"/>
      </contour>
    </TTGlyph>
</ttFont>
